<svg width="654" height="461" xmlns="http://www.w3.org/2000/svg" xmlns:xlink="http://www.w3.org/1999/xlink"><defs><linearGradient id="c" x1="30.057%" x2="31.898%" y1="41.998%" y2="95.682%"><stop stop-color="#C2D4EF" offset="0"/><stop stop-color="#E7E5ED" stop-opacity="0" offset="1"/></linearGradient><linearGradient id="d" x1="30.933%" x2="33.532%" y1="108.76%" y2="-163.59%"><stop stop-color="#C2D4EF" offset="0"/><stop stop-color="#E7E5ED" stop-opacity="0" offset="1"/></linearGradient><linearGradient id="e" x1="50%" x2="50%" y1="-107.4%" y2="100%"><stop stop-color="#FFD1EE" offset="0"/><stop stop-color="#FF6BAF" offset="1"/></linearGradient><linearGradient id="f" x1="-9.511%" x2="53.129%" y1="63.961%" y2="203.65%"><stop stop-color="#638692" offset="0"/><stop stop-color="#ABB0D3" offset="1"/></linearGradient><linearGradient id="g" x1="-10.203%" x2="130.09%" y1="61.073%" y2="330.49%"><stop stop-color="#638692" offset="0"/><stop stop-color="#ABB0D3" offset="1"/></linearGradient><linearGradient id="h" x1="50%" x2="50%" y1="158.43%" y2="-47.644%"><stop stop-color="#638692" offset="0"/><stop stop-color="#ABB0D3" offset="1"/></linearGradient><linearGradient id="i" x1="-24.93%" x2="242.67%" y1="100%" y2="-137.38%"><stop stop-color="#638692" offset="0"/><stop stop-color="#ABB0D3" offset="1"/></linearGradient><linearGradient id="j" x1="-19.371%" x2="0%" y1="-92.325%" y2="214.99%"><stop stop-color="#5DEBC9" offset="0"/><stop stop-color="#43B99A" offset="1"/></linearGradient><linearGradient id="k" x1="50%" x2="50%" y1="3.098%" y2="100%"><stop stop-color="#6E6E6E" offset="0"/><stop stop-color="#4C4C4C" offset="1"/></linearGradient><linearGradient id="l" x1="89.034%" x2="120.62%" y1="73.89%" y2="150.5%"><stop stop-color="#638692" offset="0"/><stop stop-color="#ABB0D3" offset="1"/></linearGradient><linearGradient id="m" x1="50%" x2="40.25%" y1="-8.359%" y2="169.58%"><stop stop-color="#F5BA86" offset="0"/><stop stop-color="#F8587A" offset="1"/></linearGradient><linearGradient id="n" x1="50%" x2="-19.597%" y2="270.22%"><stop stop-color="#F5BA86" offset="0"/><stop stop-color="#F8587A" offset="1"/></linearGradient><linearGradient id="o" x1="50%" x2="50%" y1="-15.553%" y2="100%"><stop stop-color="#BB6849" offset="0"/><stop stop-color="#862E46" offset="1"/></linearGradient><linearGradient id="p" x1="50%" x2="50%" y2="100%"><stop stop-color="#F5BA86" offset="0"/><stop stop-color="#F8587A" offset="1"/></linearGradient><linearGradient id="q" x1="50%" x2="36.499%" y2="173.81%"><stop stop-color="#C1E3FF" offset="0"/><stop stop-color="#6F88FC" offset="1"/></linearGradient><linearGradient id="r" x1="96.396%" x2="50%" y1="-118.5%" y2="100%"><stop stop-color="#34426B" offset="0"/><stop stop-color="#34406B" offset="1"/></linearGradient><linearGradient id="s" x1="96.396%" x2="50%" y1="-118.5%" y2="100%"><stop stop-color="#6474A4" offset="0"/><stop stop-color="#34406B" offset="1"/></linearGradient><linearGradient id="t" x1="50%" x2="50%" y2="100%"><stop stop-color="#C1E3FF" offset="0"/><stop stop-color="#6F88FC" offset="1"/></linearGradient><linearGradient id="u" x1="50%" x2="50%" y2="246.01%"><stop stop-color="#C1E3FF" offset="0"/><stop stop-color="#6F88FC" offset="1"/></linearGradient><linearGradient id="v" x1="50%" x2="50%" y2="100%"><stop stop-color="#B4EC51" offset="0"/><stop stop-color="#429321" offset="1"/></linearGradient><path id="a" d="M.678.633h23.256v12.545H.678z"/></defs><g fill="none" fill-rule="evenodd"><path d="M300.39 16.904a4.026 4.026 0 00-2.637.982 4.543 4.543 0 00-4.434-5.526c-.816 0-1.58.218-2.243.596.085-.56.13-1.13.13-1.713 0-6.21-5.032-11.243-11.24-11.243-5.819 0-10.605 4.424-11.18 10.093a3.762 3.762 0 00-2.302-.786 3.784 3.784 0 00-3.783 3.784c0 .295.037.58.1.855a3.182 3.182 0 00-2.169-.855 3.197 3.197 0 00-2.702 4.9 5.012 5.012 0 00-1.408-.202c-2.575 0-4.607 2.31-2.652 2.31h49.331c1.465 0-.075-3.195-2.811-3.195" fill="#E3F0FF" opacity=".703"/><path d="M462.32 51.158a4.02 4.02 0 00-2.636.983 4.543 4.543 0 00-4.434-5.527c-.817 0-1.581.218-2.244.596.086-.558.13-1.13.13-1.713 0-6.21-5.032-11.243-11.239-11.243-5.819 0-10.606 4.424-11.18 10.093a3.764 3.764 0 00-2.302-.786 3.785 3.785 0 00-3.784 3.784c0 .294.037.58.1.855a3.18 3.18 0 00-2.169-.855 3.197 3.197 0 00-2.702 4.9 5.03 5.03 0 00-1.407-.202c-2.575 0-4.607 2.31-2.653 2.31h49.331c1.465 0-.075-3.195-2.811-3.195" fill="#E3F0FF" opacity=".473"/><g transform="translate(164.63 87.776)"><mask id="b" fill="#fff"><use xlink:href="#a"/></mask><path d="M21.874 13.178H1.719a2.864 2.864 0 012.353-5.025 6.468 6.468 0 01-.087-1.01 6.508 6.508 0 016.507-6.51c3.23 0 5.902 2.357 6.412 5.442a4.32 4.32 0 012.685-.933 4.344 4.344 0 014.344 4.345 4.34 4.34 0 01-2.06 3.691" fill="#E3F0FF" mask="url(#b)"/></g><g opacity=".782"><path d="M343.27 137.601v-25.562h49.636v49.24H343.27V137.6z" stroke="#E3F0FF" stroke-linecap="round" stroke-linejoin="round" stroke-width=".713"/><path d="M382.836 141.32v-15.309h7.753v15.309h-7.753zm-34.873-18.373v-5.2h42.626v5.2h-42.626zm.35 5.55v-2.486h32.967v2.487h-32.967zm0 6.412v-2.487h32.967v2.487h-32.967zm0 6.411v-2.486h32.967v2.486h-32.967zm0 6.412v-2.487h42.451v2.487h-42.45zm0 6.41v-2.486h42.451v2.487h-42.45z" fill="#E3F0FF"/></g><path d="M443.08 90.547h10.668a4.363 4.363 0 014.362 4.363v1.352l1.736 1.161c.445.298.445.78 0 1.078l-1.736 1.161v1.352a4.363 4.363 0 01-4.362 4.364H443.08a4.363 4.363 0 01-4.362-4.364V94.91a4.363 4.363 0 014.362-4.363" fill="url(#c)" opacity=".3" transform="translate(-8)"/><g fill="#fff"><path d="M446.209 97.438a1.442 1.442 0 01-.221-.585 6.33 6.33 0 01-.064-.881 6.54 6.54 0 00-.038-.74c-.019-.128-.06-.215-.124-.26-.064-.044-.177-.077-.338-.099a.39.39 0 01-.264-.15.556.556 0 01-.102-.354c0-.33.204-.496.612-.496.39 0 .704.115.938.344.235.229.356.535.365.918.01.62.02 1.01.025 1.172.006.163.026.313.06.45.035.138.095.25.179.338.085.087.228.194.427.319a.511.511 0 01.241.462c0 .141-.027.245-.082.31-.056.065-.15.139-.281.22-.132.083-.24.17-.321.266a.957.957 0 00-.185.42c-.017.075-.03.24-.038.496-.009.255-.016.594-.025 1.016-.003.25-.058.471-.167.665a1.113 1.113 0 01-.46.447 1.414 1.414 0 01-.676.158c-.408 0-.612-.168-.612-.503 0-.145.035-.262.104-.35a.39.39 0 01.262-.155c.128-.02.218-.04.27-.06.053-.021.1-.066.136-.133s.062-.168.075-.298c.012-.13.019-.334.019-.608 0-.367.022-.667.066-.902a1.42 1.42 0 01.234-.58c.11-.15.265-.287.462-.409a1.575 1.575 0 01-.477-.437M443.095 100.019a.598.598 0 01-.186-.465c0-.172.062-.318.186-.44a.617.617 0 01.447-.18c.175 0 .322.06.442.183s.179.268.179.437c0 .2-.062.356-.188.467a.65.65 0 01-.445.166.626.626 0 01-.435-.168M440.426 100.019a.598.598 0 01-.186-.465c0-.172.062-.318.186-.44a.617.617 0 01.447-.18c.176 0 .323.06.442.183.12.123.179.268.179.437 0 .2-.062.356-.188.467a.65.65 0 01-.445.166.626.626 0 01-.435-.168M437.757 100.019a.598.598 0 01-.185-.465c0-.172.062-.318.185-.44a.617.617 0 01.447-.18c.176 0 .323.06.442.183.12.123.179.268.179.437 0 .2-.062.356-.188.467a.65.65 0 01-.445.166.626.626 0 01-.435-.168M435.527 98.309a1.4 1.4 0 01.222.558c.038.216.06.517.066.9 0 .258.005.455.014.59a.92.92 0 00.063.305c.032.07.078.117.139.142.061.025.154.045.279.062.07.008.131.033.185.075a.446.446 0 01.132.178.63.63 0 01.05.251c0 .165-.052.289-.157.375s-.253.13-.447.13c-.394 0-.71-.117-.947-.348-.238-.232-.36-.54-.369-.923-.008-.405-.016-.743-.023-1.012a2.974 2.974 0 00-.062-.606.738.738 0 00-.183-.337 2.222 2.222 0 00-.423-.315c-.159-.097-.237-.25-.237-.458 0-.147.03-.257.09-.33.059-.071.15-.144.272-.218.122-.074.226-.158.312-.254a.96.96 0 00.195-.418c.023-.092.043-.6.059-1.52.003-.248.06-.468.173-.661.112-.193.266-.341.463-.446.194-.104.422-.156.68-.156.402 0 .604.166.604.496 0 .15-.035.268-.107.354a.398.398 0 01-.26.15 1.13 1.13 0 00-.273.056.263.263 0 00-.139.13.85.85 0 00-.067.307c-.01.14-.016.343-.016.607 0 .272-.013.508-.038.71a1.998 1.998 0 01-.13.522 1.264 1.264 0 01-.232.375 1.773 1.773 0 01-.366.296c.21.133.37.277.478.433"/></g><path d="M229.62 49.388a4.05 4.05 0 01-4.048 4.05h-11.08a4.048 4.048 0 01-4.047-4.051V38.304a4.049 4.049 0 014.048-4.05h11.08a4.048 4.048 0 014.047 4.05v11.083z" fill="url(#c)" opacity=".3" transform="translate(-8)"/><g stroke="#fff" stroke-linecap="round" stroke-linejoin="round" stroke-width=".713"><path d="M209.995 39.984l-.973 2.59-3.077-2.064 2.01-1.888"/><path d="M212.035 39.984h2.04l2.04-1.362-1.883-.817h-4.395l-1.883.817 2.04 1.362zM214.075 39.984l.973 2.589 3.076-2.063-2.009-1.888"/><path d="M218.124 40.51l-6.09 8.119 3.014-6.056h-6.026l3.012 6.056-6.089-8.119"/></g><path d="M530.82 14.986h-12.064a4.934 4.934 0 00-4.933 4.935v1.529l-1.963 1.312c-.503.337-.503.883 0 1.22l1.963 1.313v1.529a4.934 4.934 0 004.933 4.934h12.064a4.934 4.934 0 004.934-4.934V19.92a4.935 4.935 0 00-4.934-4.935" fill="url(#c)" opacity=".3" transform="translate(-8)"/><g fill="#fff"><path d="M524.003 23.66l-3.301-1.272v-1.342l4.738 2.054v1.14l-4.738 2.053V24.96zM515.264 20.485a.4.4 0 01.124-.31c.084-.076.204-.114.36-.114.183 0 .305.054.368.16.063.107.128.305.198.594l1.313 5.431c.063.29.095.47.095.542 0 .276-.16.415-.481.415-.128 0-.226-.03-.294-.087a.53.53 0 01-.151-.243 8.072 8.072 0 01-.115-.425l-1.318-5.43c-.066-.258-.1-.436-.1-.533M507.551 23.11l4.737-2.045v1.323l-3.31 1.281 3.31 1.3v1.334l-4.737-2.064z"/></g><g transform="translate(66.19 111.8)" fill="url(#c)" opacity=".3"><path d="M0 234.78h43.924V90.63H0zM257.59 234.78h43.92V90.63h-43.92zM64.769 234.78h43.921v-89.91H64.769zM322.36 234.78h43.92v-89.91h-43.92zM129.54 234.78h43.92V102.76h-43.92zM387.12 234.78h43.93V102.76h-43.93zM193.56 234.78h43.93V0h-43.93zM451.15 234.78h43.92V0h-43.92z"/></g><path d="M113.77 52.266c-.789 0-1.432.642-1.432 1.433 0 .79.643 1.432 1.432 1.432a1.434 1.434 0 000-2.865m0 3.75a2.32 2.32 0 01-2.317-2.317 2.32 2.32 0 012.317-2.319 2.32 2.32 0 012.318 2.319 2.32 2.32 0 01-2.318 2.318" fill="#fff"/><path d="M356.626 40.269l2.45 5.857 6.272.545a.5.5 0 01.282.874l-4.758 4.164 1.426 6.194c.099.43-.363.77-.736.54l-5.39-3.283-5.391 3.284a.495.495 0 01-.737-.54l1.426-6.195-4.758-4.165a.5.5 0 01.281-.874l6.273-.545 2.45-5.856a.492.492 0 01.91 0zM585.616 78.09l2.45 5.858 6.272.545a.5.5 0 01.282.874l-4.758 4.164 1.426 6.194c.099.43-.363.77-.737.54l-5.39-3.283-5.39 3.284a.495.495 0 01-.737-.54l1.426-6.195-4.758-4.165a.5.5 0 01.281-.874l6.272-.545 2.45-5.856a.492.492 0 01.911 0zM604.673 131.475l1.361 3.154 3.485.293c.241.02.34.315.156.47l-2.643 2.243.792 3.335c.055.232-.201.414-.409.291l-2.995-1.768-2.994 1.768c-.208.123-.464-.06-.41-.29l.793-3.336-2.644-2.243a.268.268 0 01.157-.47l3.484-.294 1.361-3.153a.277.277 0 01.506 0z" fill="#E3F0FF"/><path d="M360.49 456.46c129.81-15.724 267.04-15.724 267.04-35.121s-119.56-35.121-267.04-35.121-267.04 15.724-267.04 35.121 137.23 50.845 267.04 35.121z" fill="url(#d)" opacity=".353" transform="translate(-8)"/><path transform="scale(-1 1) rotate(-4 4 17257.087)" d="M593.43 388.01c32.943-4.762 67.77-4.763 67.77-10.636 0-5.873-30.341-10.633-67.769-10.632s-67.77 4.763-67.77 10.636c0 5.873 34.826 15.394 67.769 10.632z" fill="url(#d)" opacity=".627"/><path d="M73.129 6.562s9.341.68 12.984 10.499c3.642 9.818 8.042 6.606 8.042 6.606s-3.98 11.412-14.51 4.216c-10.533-7.196-6.516-21.32-6.516-21.32" fill="url(#e)" transform="translate(129.68 132.02)"/><path fill="#8585E0" d="M177.514 421.67h3.139l25.575-150.26h-6.479zM418.86 421.67h-3.14l-25.58-150.26h6.48z"/><path fill="url(#f)" d="M65.894 272.82h5.741V217.2h-5.741zM64.15 217.2h9.229v-8.09H64.15z" transform="translate(129.68 132.02)"/><path fill="url(#f)" d="M65.279 268.77h6.97v-17.35h-6.97zM64.15 276.87h9.229v-8.1H64.15z" transform="translate(129.68 132.02)"/><path d="M101.09 195.59v3.891a1.19 1.19 0 01-1.191 1.191h-19.95v8.433H57.577v-8.433H39.862a1.19 1.19 0 01-1.192-1.19V187.008a3.607 3.607 0 013.61-3.606h79.602c1.99 0 3.609 1.614 3.609 3.606v4.973a3.61 3.61 0 01-3.61 3.608H101.09z" fill="url(#g)" transform="translate(129.68 132.02)"/><path fill="url(#f)" d="M46.529 284.61l17.621-8.74v-6.09l-19.933 13.36z" transform="translate(129.68 132.02)"/><path d="M40.088 286.32a4.127 4.127 0 004.129 4.125 4.126 4.126 0 100-8.253 4.127 4.127 0 00-4.129 4.128M64.636 286.32a4.127 4.127 0 004.129 4.125 4.128 4.128 0 004.129-4.125c0-2.28-1.85-4.128-4.129-4.128a4.127 4.127 0 00-4.129 4.128M91.002 284.61l-17.622-8.74v-6.09l19.934 13.36z" fill="url(#f)" transform="translate(129.68 132.02)"/><path d="M97.442 286.32c0 2.279-1.85 4.125-4.129 4.125s-4.129-1.847-4.129-4.125a4.128 4.128 0 018.258 0M67.647 286.27h2.237v-13.45h-2.237zM28.297 195.48c-2.066.064-3.904-1.314-4.391-3.322-1.51-6.217-4.248-17.82-4.31-46.818-.068-32-6.72-56.332-9.01-66.586a6.648 6.648 0 013.173-7.218 9.02 9.02 0 014.492-1.2H73.87s22.865 40.887 25.864 54.897c3 14.012 7.188 67.79 7.188 67.79l-78.624 2.457z" fill="url(#f)" transform="translate(129.68 132.02)"/><path d="M30.11 195.59s-5.195-10.184-5.28-50.247c-.073-32.993-6.63-60.169-8.523-70.661a3.691 3.691 0 013.642-4.343h59.153s22.867 40.887 25.864 54.897c2.997 14.012 7.19 67.79 7.19 67.79L30.11 195.59z" fill="url(#h)" transform="translate(129.68 132.02)"/><path d="M27.759 195.59h56.306v-12.187H24.876v9.305a2.882 2.882 0 002.883 2.882" fill="url(#i)" transform="translate(129.68 132.02)"/><path d="M256.41 305.73c.333 6.614-1.116 14.86-2.942 22.162-2.941 11.771-14.23 90.212-14.23 90.212h-8.341s-2.143-30.906-3.616-53.472c-1.09-16.725 1.395-38.806 2.754-49.12-5.773-2.408-24.568-11.222-31.038-26.254l-7.685-17.851 16.514-6.571 27.588 13.057c6.254 5.834 24.657 15.674 20.996 27.839z" fill="#34406B"/><path d="M176.727 188.278s8.601-2.723 9.47-6.468c.702-3.04 1.827-12.482 1.827-12.482h15.003s-.573 8.438 0 11.17c1.43 6.794 9.954 9.03 9.954 9.03l1.217 21.224-22.118 18.536-21.34-21.433 5.987-19.577z" fill="#FEC4AD"/><path d="M211.039 146.193c3.783 5.046 3.013 5.759 2.493 12.709-.445 5.977-1.973 11.718-2.984 14.309-1.02 2.62-6.353 13.887-15.866 9.774-5.263-2.276-11.237-7.88-12.96-11.738-1.263-2.824-1.93-7.92-2.03-12.627-.094-4.623-.118-10.62.047-14.067.583-12.178 24.377-7.59 31.3 1.64M235.41 227.164c1.286 5.407 2.885 10.681 4.843 14.1 1.96 3.419 42.41 18.322 42.41 18.322h-23.627s-22.49-2.952-28.907-11.568c-6.417-8.619-12.369-20.854-12.369-20.854h17.65z" fill="#FEC4AD"/><path d="M231.74 316.19c1.674-9.501-3.488-15.029-8.383-18.626-5.343-5.301-12.385-10.461-17.775-19.174 0 0-14.232-5.948-23.378-2.763-9.146 3.183-13.618 7.4-13.618 7.4-2.194 10.555 2.997 33.621 37.333 39.647 0 0-14.285 25.768-19.191 47.355-4.909 21.587-12.092 44.955-12.092 44.955l9.326-2.23s9.94-19.254 15.525-28.453c8.145-13.424 21.32-40.618 28.055-56.598a27.063 27.063 0 003.252-8.268c.489-1.405.82-2.519.947-3.243" fill="#44527E"/><path d="M91.244 60.461c4.184 1.86 8.049 12.427 11.138 21.431 3.09 9.004 3.35 13.253 3.35 13.253s-10.81 6.18-16.546 4.634c0 0-5.445-19.557-1.693-29.437l3.75-9.88z" fill="url(#j)" transform="translate(129.68 132.02)"/><path d="M109.87 148.34c-5.726-3.712-14.912-8.77-16.013-9.871-2.453-2.453-7.596-23.607-.539-32.502 7.057-8.896 4.856-16.273 0-23.095-4.855-6.821-2.068-22.414-2.068-22.414l-7.945-2.953s2.437 18.327-16.83 18.327c-19.34 0-19.424-19.577-19.424-19.577l-12.327 2.73s-.91 23.863-.452 34.692c.458 10.827 5.605 29.585 7.076 39.397 1.145 7.637-.976 12.306-2.436 17.931 9.808-3.854 20.581-4.805 31.479-4.429 20.858 0 14.96 22.074 39.479 1.766z" fill="url(#j)" transform="translate(129.68 132.02)"/><path d="M109.89 280.45s-.245 2.479-3.86 3.597c-3.614 1.118-4.94-2.832-6.076-2.164-.756.446-1.023 3.145-.8 8.097 17.11 1.848 26.634 1.912 28.57.194 1.935-1.719-4.009-4.96-17.833-9.724z" fill="url(#k)" transform="translate(129.68 132.02)"/><path d="M241.39 257.72c-3.528-.418-6.912-3.714-20.568-3.879-2.453-.029-18.674-3.192-23.063-4.486-8.62-2.54-13.019-5.616-13.019-5.616s-5.005-18.653-6.915-30.485c-5.551-.61-11.088-1.321-16.589-2.252-.198 14.776 10.275 41.048 13.761 43.67 6.785 5.103 22.73 4.847 26.558 4.918 8.87.16 46.67 1.18 46.67 1.18s2.913-1.891-6.836-3.05" fill="#FEC4AD"/><path d="M52.604 99.917s-5.027-29.523-6.485-32.629c-7.534-16.055-17.88-7.5-16.362 4.925.645 5.29 1.057 18.959 3.732 31.87 6.019.33 14.94-1.764 19.114-4.165" fill="url(#j)" transform="translate(129.68 132.02)"/><path fill="#BFC7D5" d="M233.343 260.766h14.887l14.882-52.061h-11.317z"/><path fill="#D2DCEB" d="M237.616 260.766h58.093l14.88-52.061H252.5z"/><path fill="#D2DCEB" d="M229.07 263.47h66.639v-3.884H229.07z"/><path fill="#BFC7D5" d="M195.752 263.47h33.318v-3.884h-33.318zM269.521 237.268c-1.682 3.987-.5 8.29 2.64 9.614 3.143 1.325 7.052-.833 8.734-4.817 1.68-3.987.498-8.29-2.643-9.614-3.142-1.325-7.05.832-8.731 4.817"/><path d="M336.45 276.87v5.474a4.128 4.128 0 01-1.12 8.1 4.128 4.128 0 01-1.117-8.1v-5.474h-3.497v-.999l-16.486 8.173a4.128 4.128 0 01-3.447 6.4 4.127 4.127 0 111.165-8.087l18.767-12.575v-1.01h1.132v-17.355h.613v-34.214h-1.745v-8.097h-6.57v-8.433h-19.95a1.19 1.19 0 01-1.19-1.19v-9.097a1.19 1.19 0 011.19-1.191h60.034a1.19 1.19 0 011.192 1.191v9.096a1.19 1.19 0 01-1.192 1.191h-17.71v8.433h-6.574v8.097h-1.744v34.214h.614v17.356h1.13v8.097h-3.495zm19.982 7.174l-16.487-8.173v-6.089l18.768 12.575a4.127 4.127 0 111.165 8.086 4.128 4.128 0 01-3.446-6.399z" fill="url(#h)" transform="translate(129.68 132.02)"/><path transform="rotate(15 -379.136 843.719)" d="M53.751 279.71s-.244 2.479-3.86 3.597c-3.614 1.118-4.83-3.423-6.076-2.165-.83.839-1.096 3.538-.799 8.097 17.11 1.849 26.633 1.914 28.57.196 1.935-1.718-4.01-4.96-17.835-9.725z" fill="url(#k)"/><path d="M375.8 195.48a4.37 4.37 0 004.391-3.322c1.508-6.217 4.248-17.82 4.31-46.818.068-32 16.846-56.332 19.139-66.586a6.646 6.646 0 00-3.176-7.218 9.014 9.014 0 00-4.492-1.2h-65.746s-22.865 40.887-25.862 54.897c-3 14.012-7.19 67.79-7.19 67.79l78.627 2.457z" fill="url(#l)" transform="translate(129.68 132.02)"/><path d="M373.99 195.59s5.197-10.184 5.283-50.247c.07-32.993 16.754-60.169 18.645-70.661a3.687 3.687 0 00-3.638-4.343h-69.283s-22.865 40.887-25.862 54.897c-3 14.012-7.19 67.79-7.19 67.79l82.044 2.564z" fill="url(#h)" transform="translate(129.68 132.02)"/><path d="M376.34 195.59h-74.52v-12.187h77.402v9.305a2.882 2.882 0 01-2.883 2.882" fill="url(#h)" transform="translate(129.68 132.02)"/><path d="M311.49 195.59h-29.277a3.61 3.61 0 01-3.61-3.608v-4.973a3.607 3.607 0 013.61-3.606h25.668a3.606 3.606 0 013.61 3.606v8.581z" fill="url(#h)" transform="translate(129.68 132.02)"/><path d="M472.33 209.792c-1.332 4.361-3.193 8.352-5.212 12.299-2.033 3.934-4.345 7.714-6.76 11.445a553.584 553.584 0 01-7.347 11.218 180.093 180.093 0 01-3.909 5.598c-1.36 1.874-2.746 3.738-4.345 5.704-.821.995-1.64 1.984-2.836 3.208-.302.308-.64.64-1.07 1.023-.443.388-.925.817-1.832 1.42-.2.134-.54.34-.815.491-.401.211-.696.368-1.288.601-.265.101-.51.194-.921.313l-.564.145-.288.062-.386.066c-.26.04-.52.07-.78.09l-.378.022h-.081l-.333-.002-.667-.027a6.64 6.64 0 01-.575-.046l-.757-.103a24.212 24.212 0 01-2.218-.46c-.64-.161-1.235-.324-1.814-.487a138.94 138.94 0 01-3.345-1.002 428.642 428.642 0 01-12.631-4.189l-12.332-4.216c-2.042-.669-4.068-1.369-6.063-1.979-1.949-.596-4.054-1.23-5.492-1.53l-.53-.112c-2.907-.605-3.231-3.54-4.163-6.355-1.515-4.58 45.311 1.43 45.311 1.43 1.04.174 2.077.346 3.055.483.49.068.969.13 1.402.176.43.044.853.083 1.02.072a.309.309 0 01.062-.013 2.524 2.524 0 00-.423-.037l-.126.002-.359.018a7.795 7.795 0 00-.678.077l-.575.11-.462.116a9.448 9.448 0 00-.729.245c-.46.187-.639.275-.916.425-.16.079-.379.22-.47.273-.453.297-.519.365-.56.38-.031.011.013-.05.08-.145.287-.39.813-1.131 1.302-1.889 2.064-3.143 4.151-6.934 6.237-10.604a524.517 524.517 0 006.141-11.324c1.991-3.832 4.028-7.656 6.299-11.35 2.279-3.682 4.68-7.34 7.548-10.662l.073-.083c3.475-4.025 9.557-4.471 13.583-.998 2.975 2.57 3.99 6.57 2.918 10.1" fill="#E4B083"/><path d="M397.59 244.03s-12.136-5.51-13.765-5.697c-1.63-.185-14.072 1.026-14.829 1.041-.76.015-7.806 5.567-8.742 7.643-.938 2.078-.853 6.519.125 6.609.978.088 1.328-4.25 1.328-4.25l3.838-3.285 2.264-.733s-2.94 4.93-2.926 5.798c.017.865-.102 5.961.656 5.946.76-.013 1.242-3.166 1.427-4.795.185-1.626 3.924-4.532 3.924-4.532s-2.616 4.832-2.488 5.915c.13 1.08-.245 4.23.944 4.099 1.192-.132 1.654-4.258 1.654-4.258s1.99-3.614 2.847-4.171c.855-.56 9.555.9 13.655-.044 4.1-.945 10.451 2.401 12.065 1.827 1.617-.57 3.449-6.783-1.977-7.113" fill="#E4B083"/><path d="M440.93 221.572s-2.167 2.686-2.339 3.936c-.171 1.248 14.063 12.502 18.918 11.163l2.83-4.11s-19.238-10.56-19.409-10.989" fill="#F7837F"/><path d="M311.1 87.84s9.747-24.896 23.437-19.344c13.688 5.554-1.343 29.083-2.79 32.024-1.445 2.943-22.677-8.304-20.647-12.68" fill="url(#m)" transform="translate(129.68 132.02)"/><path d="M334.23 60.152s-4.779 3.806-5.866 7.1c0 0 2.11-2.717 2.961-2.078.85.64 1.683 1.99 1.683 1.99s2.153.735 2.125-1.128c-.031-1.862 2.559-3.407-.903-5.884" fill="url(#n)" transform="translate(129.68 132.02)"/><path d="M492.92 216.515s-1.757-8.11-5.908-12.988c-4.147-4.88-6.184-17.97.015-27.727 6.948-10.932 11.165-29.244-4.82-34.186-19.731-6.1-26.558 6.014-27.5 10.776-.298 1.504-.707 3.502-.405 4.211l.658.797c.341.808.207 1.73-.352 2.402-1.502 1.8-5.151 5.123-6.08 6.567-1.165 1.81 3.638 3.456 3.638 3.456s-1.057 2.978-.456 3.46c.603.485 2.58.725 2.58.725s-2.131 1.279-1.074 2.36c1.055 1.08.843 3.005.843 3.005s-1.147 2.617.386 4.041c2.468 2.292 4.76 1.123 9.072 2.768 3.057 1.166 4.391 12.44-10.515 20.416-11.735 6.278 35.811 13.946 39.918 9.917" fill="#F6C7A1"/><path d="M329.64 19.197c.04-.225.068-.43.09-.61.25.027.507.055.751.084-.275.18-.557.356-.841.526m34.177-6.996l1.57.235c-.473-1.908-3.922-3.707-3.922-3.707l2.643-.218c-1.707-1.635-4.345-1.655-4.345-1.655l-.355-2.708-.616 2.331c-1.667-3.238-3.209-4.052-3.209-4.052L355.46 5.6c-.659-1.22-2.986-3.996-2.986-3.996l.41 2.96c-3.52-3.78-8.79-3.624-8.79-3.624 1.335.35 3.436 3.196 3.436 3.196C340.32-.285 333.747.5 333.747.5c1.057.254 3.312 2.858 3.312 2.858-4.094-1.138-9.498-.546-9.498-.546 2.544.493 3.9 2.098 3.9 2.098-4.534 1.655-9.321.213-9.324.213-.158 1.183 4.572 3.838 1.71 3.84l-2.271.002c-.606 0-1.24.007-1.773.293a3.203 3.203 0 00-.665.515c-2.308 2.19-1.49 5.065.83 6.937 1.284 1.034 1.758 1.62 2.782 3.086.858 1.23 1.891 2.547 3.325 3.133 1.623.664 2.541-.465 3.06-1.823 3.231.268 6.279-2.292 9.043.713.704.766 1.156 1.732 1.823 2.534.416.5 6.036 3.214 5.725 3.562-.627.695-1.774 2.133-1.684 3.273l.797-.517s-.978 2.628-.678 4.176l1.193-1.215-.123 1.149c-.366 1.43-1.022 3.542-1.801 3.885 0 0 .74-.156 1.576-1.09 1.104 3.124 3.348-2.835 5.345-6.863 1.947-3.921 7.443-2.294 7.104 2.432-.13.839-.784 3.8-3.01 6.048 0 0-2.493 2.465-2.588 7.465l.795-.91s-.566 3.672.45 4.808c0 0 .488-1.21.493-1.226-.483 1.198.667 2.19.495 3.364-.103.704-1.33 2.55.456 2.019 1.167-.346 2.772-1.33 2.957-2.594.042-.286-.083-4.667.196-4.592.139.035 1.21.24 1.22.321-.002-.028-.205-1.488-.301-2.454-.1-.975 3.607-5.497 3.607-5.497l-.564 2.142c2.929-3.384 4.012-9.869 4.012-9.869l.302 2.457c2.636-5.482 1.147-13.283 1.147-13.283l1.489 1.506c.733-3.24-4.794-10.648-4.794-10.648" fill="url(#o)" transform="translate(129.68 132.02)"/><path d="M472.7 285.32s-7.304-3.905-81.5 6.576c-2.46.347-6.934 3.383-8.124 5.86-3.527 7.342.751 61.27 5.688 85.774 2.98 14.79 4.402 7.56 8.485 8.006 5.891.643 1.64-48.495 1.702-47.656 1.463 20.682-.48-22.835-3.096-30.247 0 0 73.024 19.315 76.845-28.312" fill="#86213E"/><path d="M343.31 177.5l8.846-1.904c15.364-3.311 21.328-17.955 18.123-32.828l3.19-62.974c.426-8.322-5.39-15.678-13.593-17.164-7.056-1.277-14.43-1.147-16.164-.23l-7.96 2.185c-14.645 3.154-20.135 7.82-19.488 35.817l7.133 64.7c1.89 8.772 10.85 14.35 19.912 12.398" fill="url(#p)" transform="translate(129.68 132.02)"/><path d="M496.46 311.1c5.413-5.922 4.543-21.197-3.213-23.269-12.629-3.377-41.43-4.119-92.062 9.832-2.462.68-4.376 2.872-5.869 5.268-9.447 15.144-38.592 74.155-41.567 83.238-3.43 10.48-15.124 38.113 23.563-13.83 7.091-9.518 27.071-34.936 33.281-48.656 1.073-2.37 3.436-3.887 6.036-4.022 15.018-.79 64.833 7.857 79.831-8.56" fill="#9D2B4C"/><path d="M461.08 247.19a.26.26 0 00-.06.013 5.909 5.909 0 01-.684-.037l.196-.011.127-.002c.086 0 .17.006.256.013.066.006.216.028.165.024m35.965-45.444c-4.025-3.476-10.108-3.03-13.583.995l-.073.084c-2.87 3.322-5.27 6.983-7.549 10.66-2.27 3.697-4.307 7.518-6.298 11.352-2.017 3.82-4.06 7.61-6.141 11.326-2.081 3.66-4.162 7.438-6.221 10.578a194.47 194.47 0 01-1.639-.269s-42.915-5.503-44.434-5.448c-2.413.088-.36 1.55-.876 4.017a5.374 5.374 0 004.162 6.358l.53.11c1.439.3 3.544.933 5.493 1.532 1.995.61 4.019 1.308 6.06 1.977l12.336 4.218a429.115 429.115 0 0012.629 4.187c1.09.34 2.182.674 3.345 1.002.579.165 1.171.328 1.814.486a24.21 24.21 0 002.22.463l.755.103c.082.015.37.033.575.046l.667.024.33.005h.084l.38-.022c.259-.022.521-.05.779-.09l.387-.069.286-.061.562-.143c.414-.12.658-.212.923-.313.59-.236.887-.392 1.286-.603.277-.152.616-.357.817-.491.905-.603 1.39-1.03 1.83-1.418.431-.385.768-.715 1.074-1.026 1.196-1.222 2.015-2.21 2.837-3.207 1.596-1.966 2.981-3.83 4.34-5.702a173.03 173.03 0 003.911-5.6 559.423 559.423 0 007.344-11.218c2.418-3.732 4.73-7.512 6.76-11.443 2.022-3.95 3.883-7.939 5.213-12.302 1.077-3.531.062-7.531-2.916-10.098" fill="#F6C7A1"/><path d="M497.19 201.894a9.687 9.687 0 01-.007 5.563c-1.33 4.361-3.193 8.352-5.212 12.299-2.03 3.932-4.343 7.714-6.76 11.445a559.815 559.815 0 01-7.347 11.218 175.322 175.322 0 01-3.909 5.598c-1.36 1.874-2.746 3.736-4.342 5.702-.822.997-1.643 1.986-2.839 3.21-.301.308-.64.638-1.07 1.023-.443.388-.925.817-1.832 1.42-.198.134-.54.34-.815.491-.4.211-.696.368-1.288.601a9.666 9.666 0 01-.92.313l-.562.143-.29.064-.384.066c-.26.04-.52.07-.78.09l-.378.022h-.084l-.332-.004-.666-.025a7.75 7.75 0 01-.576-.046l-.756-.103a23.901 23.901 0 01-2.217-.46 65.14 65.14 0 01-1.817-.487c-1.16-.328-2.253-.665-3.343-1.002a426.497 426.497 0 01-12.63-4.189l-12.335-4.218c-2.041-.667-4.065-1.367-6.06-1.977-1.951-.598-4.054-1.23-5.492-1.532l-.53-.11a5.328 5.328 0 01-1.467-.566c.13 2.367 1.812 4.45 4.243 4.958l.533.112c1.438.3 3.543.934 5.492 1.53 1.995.61 4.019 1.31 6.06 1.98l12.334 4.215c4.147 1.44 8.3 2.833 12.631 4.19 1.09.336 2.183.673 3.343 1 .581.164 1.172.327 1.815.487.647.163 1.301.315 2.22.46l.757.104c.081.018.37.035.575.046l.665.027.332.002h.084l.379-.022c.26-.02.52-.05.777-.09l.388-.067.288-.061.562-.145c.411-.12.658-.21.922-.31a11.586 11.586 0 002.103-1.095c.905-.603 1.39-1.032 1.83-1.42.43-.383.767-.715 1.073-1.024 1.195-1.224 2.015-2.212 2.836-3.207 1.599-1.966 2.984-3.83 4.343-5.704a172.866 172.866 0 003.908-5.598 556.122 556.122 0 007.344-11.218c2.42-3.732 4.733-7.511 6.763-11.445 2.022-3.947 3.88-7.938 5.213-12.3a9.63 9.63 0 00-2.773-9.954" fill="#EFB888"/><path d="M421.73 245.46s-12.138-5.51-13.765-5.697c-1.63-.185-14.074 1.026-14.829 1.041-.76.015-7.806 5.567-8.745 7.643-.935 2.076-.85 6.519.128 6.607.976.09 1.328-4.251 1.328-4.251l3.838-3.282 2.264-.733s-2.942 4.93-2.926 5.798c.017.865-.102 5.961.656 5.946.76-.013 1.242-3.166 1.427-4.795.185-1.629 3.924-4.532 3.924-4.532s-2.618 4.832-2.49 5.915c.13 1.079-.243 4.23.946 4.099 1.19-.132 1.654-4.258 1.654-4.258s1.989-3.614 2.847-4.171c.855-.56 9.555.9 13.655-.044s10.451 2.401 12.065 1.827c1.617-.573 3.449-6.783-1.977-7.113" fill="#F6C7A1"/><path d="M390.37 247.3l1.579-.51-2.887-.41-3.838 3.284s-.35 4.342-1.328 4.251c-.01-.002-.018-.009-.027-.01.126.67.344 1.124.65 1.15.975.09 1.328-4.25 1.328-4.25l3.838-3.283.685-.222zM425.83 251.92c-1.698-.579-1.746-.84-2.744-.489-1.614.575-7.965-2.774-12.068-1.827-4.1.944-12.799-.515-13.655.042-.854.56-2.847 4.172-2.847 4.172s-.463 4.127-1.654 4.257a.525.525 0 01-.196-.01c.104.693.326 1.208.82 1.153 1.19-.13 1.653-4.258 1.653-4.258s1.99-3.612 2.847-4.172c.857-.559 9.555.903 13.658-.044 4.1-.944 10.451 2.402 12.065 1.83 1.212-.43 1.434-.143 2.121-.654M392.88 251.12c1.733-1.429 2.41-2.232 2.41-2.232s-4.62 2.082-4.808 3.71c-.174 1.527-.606 4.387-1.284 4.756.097.698.247 1.185.482 1.18.76-.013 1.24-3.165 1.425-4.794.084-.74.905-1.746 1.775-2.62" fill="#EFB888"/><path d="M464.54 196.648s-2.658 7.918-1.645 9.36c1.015 1.442 11.867-9.629 12.959-12.914 1.095-3.286-11.314 3.553-11.314 3.553" fill="#F6C7A1"/><path d="M463.15 209.234s.597-9.466 2.768-9.975c2.171-.51 4.076 1.321 4.076 1.321s-5.377 8.826-5.19 12.092c.187 3.265-2.14.826-1.654-3.438" fill="#F7837F"/><path d="M337.24 65.037s14.587-8.163 15.697-10.054c1.108-1.895 3.037 2.356 3.728 4.806s-13.3 10.529-14.116 11.377c-.815.845-4.441-4.273-6.307-3.928-1.863.346.998-2.201.998-2.201" fill="url(#n)" transform="translate(129.68 132.02)"/><path d="M461.08 197.345s1.75 4.365 2.01 9.803 1.769-7.078.884-11.4c0 0-1.78.31-2.894 1.597M471.64 220.485s-2.167 2.688-2.339 3.936c-.174 1.248 14.063 12.502 18.918 11.163l2.83-4.11s-19.238-10.558-19.409-10.989" fill="#F7837F"/><path d="M341.81 86.753s9.747-24.896 23.437-19.344c13.688 5.554-1.343 29.083-2.79 32.024-1.447 2.943-22.677-8.304-20.647-12.68" fill="url(#m)" transform="translate(129.68 132.02)"/><path fill="#BFC7D5" d="M385.54 260.77h-8.17l-8.16-52.065h6.21z"/><path fill="#D2DCEB" d="M383.19 260.77h-31.86l-8.16-52.065h31.86z"/><path fill="#D2DCEB" d="M350.91 263.47h34.63v-3.88h-34.63z"/><path fill="#BFC7D5" d="M385.54 263.47h43.66v-3.88h-43.66zM365.7 237.27c.923 3.987.273 8.29-1.449 9.614-1.722 1.325-3.867-.833-4.787-4.817-.923-3.987-.273-8.29 1.449-9.614 1.722-1.325 3.864.832 4.787 4.817"/><path fill="#C7C6F7" d="M129.854 271.41H455.11v-7.54H129.854z"/><path transform="translate(365.799 390.356)" d="M.589 16.788c.338.464.831.891 1.488 1.247 1.917 1.04 5.536 1.056 7.764 1.174 2.73.144 5.49.031 8.179-.402a40.031 40.031 0 006.236-1.524c.283-.096 2.232-.576 2.316-.872 0 .003-.483 1.661 3.39 1.246 3.87-.414 7.743 1.456 8.468-4.985.066-.58.095-1.157.091-1.724C38.492 5.164 35.284 0 35.284 0c-2.661 1.247-11.13 0-11.13 0s-2.421 2.493-5.187 6.233C16.205 9.974 7.91 8.864 2.342 11.77.117 12.933-.645 15.11.589 16.788" fill="url(#k)"/><path d="M367.939 407.071c.324.478.797.917 1.427 1.283 1.839 1.071 5.31 1.087 7.447 1.21 2.619.147 5.265.031 7.844-.414a36.25 36.25 0 005.981-1.57c.272-.098 2.141-.593 2.222-.897 0 .003-.464 1.71 3.251 1.283 3.711-.427 7.426 1.498 8.122-5.132.063-.597.091-1.19.088-1.774-3.262 1.152-18.428 6.428-23.284 6.62-4.648.183-10.305.443-13.097-.609" fill="#4E4C4C"/><path fill="#8585E0" d="M164.564 421.67h3.138l25.575-150.26h-6.478zM405.91 421.67h-3.14l-25.58-150.26h6.48z"/><path d="M48.703 30.783c.297 2.325.304 6.358.304 6.358-.086-3.765 4.428-8.035 4.428-8.035-3.668 5.201-3.598 16.002 4.063 16.605 7.664.603 5.717-5.66 5.717-5.66.68 2.395-3.004 4.896-5.16.986-2.151-3.91 4.557-10.703 12.48-14.09 7.923-3.385 6.205-14.6 6.205-14.6s1.62-3.86-6.85-7.195c-8.472-3.338-22.99 11.412-21.188 25.63" fill="url(#e)" transform="translate(129.68 132.02)"/><path d="M68.393 4.931s-12.717-3.749-21.09 7.071c-8.373 10.818-2.88 24.876 5.767 33.76l.124-4.274 1.779 1.13-.59-5.022 1.308 2.281s.502-5.744.652-7.062c.15-1.319 6.732-28.645 12.05-27.883M76.41 9.445s9.267-1.23 8.042 18.437c-.084 4.96.024 6.932.859 7.773.837.841-13.351-15.278-8.901-26.21" fill="url(#e)" transform="translate(129.68 132.02)"/><g><path transform="rotate(25 -688.955 928.377)" d="M38.347.031s4.158 7.155 3.38 14.55c-.78 7.393-4.94 5.247-9.098 5.724-4.157.476-3.639-1.43-3.639-1.43-.092.338-2.183.89-2.49.999a40.75 40.75 0 01-6.695 1.75c-2.891.499-5.852.627-8.786.46-2.391-.134-6.28-.15-8.34-1.346-3.257-1.892-2.762-5.488.288-7.192 5.978-3.34 14.887-2.066 17.856-6.36 2.97-4.293 5.568-7.155 5.568-7.155s9.098 1.43 11.956 0" fill="url(#k)"/><path d="M320.49 395.72c.093.658.356 1.346.814 2.03 1.334 2.002 4.842 3.658 6.947 4.797 2.58 1.392 5.316 2.52 8.15 3.267 2.24.59 4.53.982 6.831 1.167.324.023 2.462.384 2.692.1-.001.003-1.311 1.588 2.662 2.892 3.97 1.302 6.783 5.091 10.757-1.59.358-.601.679-1.215.963-1.834-3.872-.323-21.834-1.908-26.85-3.998-4.797-2.002-10.656-4.4-12.966-6.831" fill="#4E4C4C"/></g><path d="M67.118 147.314s-6.67 28.936-3.496 30.837c2.383 1.43 31.783-9.738 36.684-11.795 4.898-2.056 15.388-7.553 15.388-7.553l-5.061-6.088s-19.442 6.046-23.774 6.584c-4.332.539-8.922.907-8.922.907l-.347-12.957-10.473.065z" fill="#F0B9A3"/><path d="M81.867 66.246c1.758 7.511 4 16.794 4 16.794l-13.141 4.072s-2.428-13.355-3.323-21.79c-.895-8.434 1.63-12.267 5.203-11.317 4.092 1.089 5.505 4.727 7.261 12.241z" fill="url(#q)" transform="translate(-8 64.94)"/><path d="M36.531 93.253s-.885 6.87-1.607 10.366c-.725 3.494-1.328 5.336-1.86 6.406-1.184 2.364-8.437 9.573-8.437 9.573s22.608 11.927 29.256 11.927c6.644 0 4.314-13.325 4.314-13.325s-7.245-5.724-8.325-8.615c-1.08-2.893-1.682-11.27-1.682-11.27l-11.659-5.062z" fill="#FEC4AD"/><path d="M53.34 176.56s2.556 51.42 3.065 61.543c.514 10.125 0 103.12 0 103.12s12.78.345 12.78 0 12.047-98.056 13.607-123c1.562-24.948.646-54.522 2.72-57.971 2.07-3.451-5.595-17.99-5.595-17.99l-18.085 4.82-8.492 29.486z" fill="url(#r)" transform="translate(-8 64.94)"/><path d="M23.147 142.26s-3.457 31.413-3.579 65.159c-.119 33.748-2.131 134.02-2.131 134.02h13.637s14.057-96.9 19.17-118.59c5.109-21.695 18.398-80.181 18.398-80.181l-45.495-.405z" fill="url(#s)" transform="translate(-8 64.94)"/><path d="M37.225 47.649L13.984 57.67s4.595 18.802 4.851 26.275c.254 7.473 2.937 66.503 2.937 66.503s7.136 11.048 41.467 6.649c13.24-1.696 19.75-8.144 19.75-8.144s-3.713-65.007-4.734-72.48c-1.02-7.473-3.578-22.417-3.578-22.417L63.479 50.61l-4.57 6.813-21.683-9.774z" fill="url(#t)" transform="translate(-8 64.94)"/><path fill="url(#u)" d="M37.805 44.196l20.647 13.823-5.678 6.523-16.005-16.297z" transform="translate(-8 64.94)"/><path d="M83.011 17.603c-1.079 3.6-4.996 5.862-8.63 5.762-2.262-.064-3.662-1.18-5.653-1.908-1.417-.522-1.191-.448-2.647.347-.889.486-1.782.933-2.775 1.167-2.174.512-4.167-.758-6.14-.494-1.96.264-.842 1.662-1.99 3.119-.867 1.103-2.318 1.655-3.102 2.822-.934 1.398-.657 3.234-.636 4.915.011.803-.174 1.785-.935 2.036-.33.111-.695.043-1.032-.049-4.286-1.175-6.213-5.9-3.72-9.645-3.991-2.282-5.897-7.642-4.243-11.932 1.656-4.289 6.67-6.98 11.162-5.993.974-3.73 4.444-6.672 8.285-7.023 3.843-.354 7.79 1.908 9.427 5.4-.138-.3 2.699-.382 2.916-.382 1.157-.006 2.33.145 3.402.601 2.02.86 3.72 2.397 4.92 4.222 1.08 1.651 1.785 3.63 1.647 5.622-.034.488-.122.961-.256 1.413" fill="url(#o)" transform="translate(-8 64.94)"/><path fill="url(#u)" d="M58.864 57.422l5.633 4.521-1.061-11.333-2.11-2.961z" transform="translate(-8 64.94)"/><path d="M107.75 161.885c6.869-1.949 12.782-4.12 13.68-4.49.895-.37 4.43-5.823 4.361-5.82-.07.002-.48-1.297-.48-1.297l-.883.167 1.13-2.253-.307-1.566-.767.017.501-2.468c.382-1.421.214-2.132-.502-2.132-1.075 0-4.044 2.473-6.516 3.926-2.475 1.452-5.133 2.296-5.133 2.296s1.184-2.273 1.184-3.872c0-1.6 1.212-2.757 1.212-2.757s-.247-.706-.67-.601c-.38.094-1.323.584-2.83 1.47 0 0-5.118 7.407-5.823 7.9-.704.495-5.026 13.428 1.843 11.479z" fill="#F0B9A3"/><g><path fill="#BFC7D5" d="M67.36 170.257l14.23-2.254 6.346-52.012-10.818 1.713z"/><path fill="#D2DCEB" d="M71.445 169.61l55.532-8.796 6.348-52.012-55.533 8.796z"/><path fill="#D2DCEB" d="M63.684 173.487l63.702-10.09-.588-3.71-63.702 10.089z"/><path fill="#A6AEBA" d="M31.833 178.532l31.85-5.045-.587-3.711-31.851 5.044z"/><path d="M98.387 142.32c-1.004 4.065.778 8 3.98 8.788 3.205.791 6.615-1.863 7.62-5.926 1.003-4.064-.78-7.999-3.982-8.788-3.204-.79-6.614 1.863-7.617 5.926" fill="#A6AEBA" opacity=".422"/></g><path d="M5.6 154.549s8.746 34.73 10.8 36.463c2.053 1.732 38.669-8.768 45.537-10.715 6.87-1.949 11.951-1.95 13.68-4.49 1.728-2.543 4.43-5.823 4.361-5.82-.046.002.427-.785.3-1.17-.063-.191 0-.681-1.106-.297l-.557.337 1.13-2.253c.204-.55.282-.948.233-1.197-.048-.25-.228-.372-.54-.37l-.767.018.501-2.468-.502-2.132s-.344-.958-1.62.005c-2.292 1.731-2.14 2.785-4.896 3.92-2.822 1.164-5.132 2.297-5.132 2.297s-.255-1.236 1.183-3.872c1.439-2.636.903-2.636.822-2.746-.39-.375-.913-.425-1.57-.151-.607.253-1.12.589-1.54 1.009 0 0-5.117 7.407-5.823 7.9-.703.495-3.597 5.131-11.507 5.657-14.157.94-21.758.6-21.758.6.523.082-4.855-25.441-4.855-25.441L5.6 154.548z" fill="#FEC4AD"/><path transform="rotate(17 -200.87 84.07)" d="M6.103 72.898c1.76 8.35 14.019 26.573 14.019 26.573l15.033-11.235s-5.887-11.738-9.172-17.888c-3.636-6.808-7.026-15.076-13.458-12.664-6.21 2.33-7.834 8.527-6.422 15.214" fill="url(#q)"/><path d="M62.952 75.686c1.604 1.448 4.263 4.36 4.05 6.063-.213 1.702-.568 6.741-1.42 9.56-.85 2.817-2.502 10.21-3.712 13.454-1.209 3.243-2.603 7.697-3.602 8.116-1 .418-9.782-1.125-11.434-2.336-1.653-1.21-10.41-10.812-8.546-17.91 0 0-2.297.297-3.709-6.721-.368-1.83 7.094-7.034 8.256-8.85 2.819-4.411 13.104-.938 16.045-.712 2.938.226 4.072-.664 4.072-.664" fill="#FEC4AD"/><path d="M78.149 13.121c-.36 3.746-3.777 6.729-7.374 7.332-2.242.376-3.833-.448-5.937-.78-1.497-.237-1.258-.207-2.54.857-.778.649-1.571 1.26-2.504 1.683-2.038.922-4.25.062-6.14.704-1.878.64-.507 1.797-1.352 3.448-.641 1.252-1.963 2.078-2.504 3.377-.652 1.553-.021 3.302.327 4.951.17.785.176 1.786-.526 2.183-.304.17-.674.175-1.024.151-4.45-.326-7.264-4.593-5.536-8.755-4.373-1.47-7.29-6.366-6.495-10.9.796-4.534 5.206-8.152 9.821-8.052.235-3.853 3.078-7.416 6.793-8.508 3.715-1.09 8.04.367 10.332 3.48-.197-.267 2.581-.896 2.793-.939 1.14-.23 2.323-.31 3.467-.068 2.158.452 4.128 1.634 5.661 3.195 1.386 1.41 2.464 3.22 2.716 5.204.064.486.067.966.022 1.438" fill="url(#o)" transform="translate(-8 64.94)"/><g><path transform="matrix(-1 0 0 1 88.84 404.69)" d="M.675 19.253c.388.532.954 1.022 1.708 1.43 2.198 1.194 6.35 1.211 8.906 1.347 3.132.164 6.297.036 9.382-.461 2.44-.393 4.838-.98 7.153-1.748.326-.11 2.561-.661 2.657-1 0 .003-.554 1.905 3.89 1.429 4.438-.475 8.881 1.67 9.714-5.718a16.59 16.59 0 00.104-1.977C44.155 5.922 40.475 0 40.475 0c-3.052 1.43-12.767 0-12.767 0s-2.777 2.86-5.95 7.148c-3.169 4.29-12.684 3.017-19.071 6.351C.134 14.832-.74 17.327.676 19.253" fill="url(#o)"/><path d="M86.768 423.906c-.375.54-.923 1.036-1.652 1.448-2.128 1.21-6.147 1.228-8.621 1.366-3.032.166-6.095.036-9.081-.468a42.825 42.825 0 01-6.924-1.77c-.315-.112-2.479-.67-2.572-1.014 0 .004.537 1.93-3.764 1.448-4.297-.481-8.597 1.691-9.403-5.793a17.674 17.674 0 01-.1-2.003c3.775 1.3 21.332 7.257 26.954 7.474 5.381.206 11.93.5 15.162-.688" fill="#731100"/></g><g><path transform="matrix(-1 0 0 1 50.173 404.69)" d="M39.844 0s4.372 7.594 3.553 15.441c-.82 7.848-5.192 5.57-9.564 6.075-4.37.507-3.826-1.517-3.826-1.517-.097.36-2.295.944-2.618 1.06a42.511 42.511 0 01-7.04 1.858c-3.039.53-6.152.665-9.235.49-2.515-.144-6.604-.162-8.77-1.43-3.423-2.009-2.903-5.825.304-7.634C8.933 10.8 18.3 12.15 21.42 7.593 24.542 3.039 27.274 0 27.274 0s9.565 1.518 12.57 0" fill="url(#o)"/><path d="M49.483 425.081c-.381.578-.938 1.11-1.68 1.552-2.163 1.295-6.247 1.315-8.762 1.463-3.08.178-6.194.038-9.23-.501a41.723 41.723 0 01-7.037-1.897c-.32-.12-2.52-.718-2.613-1.086 0 .003.544 2.067-3.826 1.551-4.367-.516-8.738 1.812-9.557-6.207a20.012 20.012 0 01-.103-2.146c3.838 1.393 21.683 7.775 27.397 8.008 5.468.221 12.125.535 15.41-.737" fill="#731100"/></g><g><path d="M15.732 38.816L15.057 6.23l-.07-3.395-.121-.016.082 3.558.746 32.591c-1.43.072-2.665.195-3.428.282l-.852-37.108c.755.19 1.467.334 2.14.439-.456-.104-.93-.234-1.427-.392 0 0 .097-1.653 4.58-2.092A17.359 17.359 0 0119.13.013l.102-.012c2.116.11 2.758.676 2.865.789.051-.048.076-.075.076-.075l1.368 37.44-.029.01.03.734c-1.346.288-4.522.935-6.193.984-.505.016-1.066.045-1.63.08l-.025-1.145.038-.002zm9.215 49.864l.345.007.001.024 1.815 47.591c-1.374-.323-4.682-1.066-6.422-1.137a47.922 47.922 0 01-1.593-.095l-.004.092.105.008.067 1.132a44.835 44.835 0 01-3.39-.346c-.112-.016-.19-.1-.175-.182l.154-.785c.01-.05.054-.09.114-.106.351-8.042.054-18.12-.392-26.909-1.215.795-3.843 1.849-8.438.71 0 0 4.118-2.069 8.349-1.56l-2.147-2.5v1.142H.714v-2.009l5.441-.587h5.594c-.116-.2-.27-.495-.425-.887l-6.33-7.371 6.068 6.589c-.58-2.06-.79-5.715 1.963-10.87 0 0 1.6 6.6-.767 12.168l.342.371h.736v.799l2.15 2.334-.005-.076c-.394-1.152-.72-2.95-.313-5.368a603.27 603.27 0 00-.9-12.37c.585.094 1.695.264 2.887.407l-.034-.407.056.007-.056-.72c.994.118 2.088.188 3.11.114a39.81 39.81 0 014.682-.03l.033.82zm-7.895-.912c.02.195.042.437.069.721a87.023 87.023 0 01-3.153-.384l-.238-.034c-.11-.015-.184-.084-.175-.158l.085-.728c.008-.064.074-.11.159-.12l-1.543-40.217-.129-5.904c.719-.07 1.998-.184 3.269-.268l.132 6.056 1.558 40.66.035.384a29.043 29.043 0 01-.069-.008zm2.254 48.537l-.045-.716c.605.043 1.212.08 1.755.102 1.643.062 4.768.715 6.066 1l.026.644a4.859 4.859 0 00-.063.395l-.175-.047c-.242 2.63-.087 9.444.162 16.253l.394-13.351c.152.032.326.07.52.109a34.59 34.59 0 01-.674-.187c-.112-.031-.183-.144-.16-.247l.224-.976c.021-.093.114-.145.215-.12.047.01.104.025.168.04l.112.027c2.243-16.117 2.389-41.084 2.392-46.385l-.573-.155-.238-.067c-.108-.03-.178-.126-.161-.22l.157-.922c.018-.105.135-.16.255-.128.005 0 .01 0 .016.002.492.17 1.705.568 3.136.88v1.104c.233.047.472.094.713.14v.124c.965.186 1.912.333 2.6.364 1.499.066 3.49.274 4.534.39l-.001.025-1.231 26.12c.288-.832.66-1.748 1.132-2.754 0 0 .458 5.782-.591 8.685.078-.015.357-.064.763-.095.938-.72 1.822-1.415 2.33-1.817a3.24 3.24 0 01-.194-.13c-.502.625-1.008 1.076-1.484 1.206 0 0-.483-3.422 4.983-7.85 0 0-1.677 4.323-3.439 6.568.104-.018.268-.045.481-.07l.094-.075.01.013-.068.058c1.222-.14 3.976-.226 6.489 1.331 0 0-4.683.282-6.845-1.034-.474.396-1.292 1.074-2.173 1.788 1.201-.068 3.268.053 4.737 1.412 0 0-3.283.014-5.234-1.011l-.01.008c-.377.303-.755.604-1.114.884a1.728 1.728 0 01-.127.12l-.01-.013-.074.058-.652 13.835.088.027-.035.672c-.034.114-.068.25-.102.406-.986-.363-3.583-1.253-5.914-1.48a41.458 41.458 0 01-1.796-.217l.03-.944-.03-.004.008-.278c-.485-.079-.958-.16-1.385-.235.431.096.902.197 1.377.292l-.031 1.31.03.005-.954 32.334-.033 1.18c-1.89.267-3.292.864-3.292.864l.151-5.148c-1.818-.92-3.845-.774-5.457-.377l-.063-1.187-1.765-32.538.045.003zm4.372-81.38c.327 10.936 1.078 28.047 1.29 32.794a41.497 41.497 0 00-4.61.03c-1.006.066-2.083.003-3.06-.107l-.033-.385-1.448-40.772-.123-6.072c.545-.038 1.088-.07 1.575-.087 1.617-.054 4.688-.762 5.99-1.077l.06 1.727c.215-.56.462-1.136.748-1.727 0 0 .664 6.052-.506 11.185l.027 1.218c.15-.217.299-.429.44-.635.269-.376.52-.731.754-1.06l.196-.269c.082-1.364.8-7.683 7.124-11.866 0 0-2.321 10.081-7.134 12.132l.002-.097-.105.157c-.22.335-.458.7-.712 1.084-.152.24-.312.487-.473.741 2.416-2.187 5.938-3.645 8.54-4.5l.158-2.37c.723-.009 2.012-.02 3.29.003l-.096 1.434.096-.02-.103.135-.3 4.496-2.036 40.654v.386a33.27 33.27 0 01-3.25-.789c-.006-.002-.012-.001-.018-.002l1.869-37.32c-2.075.527-5.193 1.131-8.152.98zm-.05-1.716c1.797-.847 4.625-1.6 8.275-.723l.081-1.62.066-.98c-4.075 2.782-7.95 2.184-8.454 2.091.01.398.02.809.032 1.232zm12.17-8.302l-.13-.002.078-1.03c.556.015 1.144.038 1.743.076 2.294.146 4.967-.243 6.026-.42l-.041.72.041-.006-.352 7.542c-.606 6.42-1.685 34.658-1.922 40.985a41.956 41.956 0 00-4.64-.381c-1.018-.021-2.097-.181-3.072-.38l-.001-.386 1.902-40.819.367-5.899zm7.877-1.899c-1.189.225-3.868.654-6.181.485a40.615 40.615 0 00-1.826-.092l2.165-32.829.238-3.599a16.226 16.226 0 01-.263-.042l.045-.635s.046-.272.53-.568c-.822.361-.891.752-.891.752l-.047.656a20.163 20.163 0 01-2.178-.483c.911.292 1.758.498 2.541.636l-.243 3.637-2.18 32.59a50.654 50.654 0 00-3.284.015l2.481-37.08a24.524 24.524 0 01-.34-.109s.233-1.351 5.09-1.347c.659 0 1.242.02 1.76.054a17.55 17.55 0 011.085-.054c2.295.278 2.765.877 2.765.877s-1.526 1.262-4.766 1.264c3.728.12 5.48-1.427 5.48-1.427l-1.839 37.128.04-.013c.094-.03.185.046.192.162l.057.972c.005.098-.052.19-.134.21l-.335.077.039-1.237zm-4.048 84.17c.224-.167.452-.34.68-.513a3.856 3.856 0 01-.342-.216 4.32 4.32 0 01-.338.73zm-6.954 14.356c2.305.25 4.874 1.226 5.849 1.624-1.07 5.483-1.85 33.82-1.85 33.82-1.96-2.024-4.643-2.154-6.71-1.84l.031-1.191.903-32.65c.562.089 1.162.17 1.777.237zm9.26-48.658c.089.022.151.122.138.223l-.123.96c-.011.091-.082.152-.163.137a37.529 37.529 0 00-.395-.065l.036-1.36c.217.042.392.08.506.105zm-9.118.384v-1.203c.993.211 2.09.382 3.126.406 1.918.044 3.7.26 4.72.407l-.047 1.328c-1.053-.125-3.064-.348-4.577-.42-.836-.04-2.052-.262-3.222-.518zm-.526-49.662a34.745 34.745 0 013.38-.044l-.073 1.4a77.85 77.85 0 00-2.889-.002l-.344.006a.18.18 0 01-.188-.163l-.073-.992c-.009-.104.077-.198.187-.205zM6.155 103.17c-3.083 0-5.442.586-5.442.586v-.586h5.442zm12.665 33.454l1.803 32.334.065 1.179a13.315 13.315 0 00-3.046 1.133l-1.948-34.967c.67.094 1.8.232 3.126.321zm8.442-.322l.312.117c.08.032.132.129.12.224l-.117.942c-.013.113-.108.174-.2.13-.04-.02-.09-.041-.143-.067.014-.195.03-.367.048-.511l-.02-.835zm-1.045-48.483c.09.009.159.106.152.211L26.3 89.04c-.007.096-.073.168-.155.163-.093-.003-.23-.01-.397-.015l-.042-1.412c.219.017.395.032.51.044zM12.302 39.573a42.928 42.928 0 013.369-.324l.023 1.146c-1.12.075-2.249.182-2.883.245l-.341.034c-.1.011-.186-.04-.198-.116l-.143-.801c-.016-.085.063-.168.173-.184zm11.526-1.738c.092-.043.187.02.2.133l.11.94c.011.096-.04.192-.121.22-.081.031-.194.072-.33.12l-.032-1.336c.065-.028.125-.054.173-.077z" fill="url(#v)" transform="translate(559.84 184.11)"/><path d="M598.563 326.12c.124.064.229.116.304.156.078.04.124.143.107.235l-.168.911c-.02.109-.118.157-.207.102a7.905 7.905 0 00-.14-.084c.026-.19.052-.357.078-.497l.026-.823z" fill="#C8DA96"/><path d="M47.548 173.28l-3.175 18.732a3.369 3.369 0 01-3.321 2.809H15.279a3.37 3.37 0 01-3.323-2.809l-3.225-19.041-.2-.002-1.348-8.336c-.35-2.126 1.24-4.067 3.333-4.067h35.328c2.09 0 3.68 1.94 3.331 4.067l-1.553 8.648h-.073z" fill="url(#e)" transform="translate(559.84 184.11)"/></g></g></svg>