<svg xmlns="http://www.w3.org/2000/svg" xmlns:xlink="http://www.w3.org/1999/xlink" width="828.077" height="687.6" viewBox="0 0 828.077 687.6"><defs><linearGradient id="linear-gradient" x1="0.5" x2="0.5" y2="1" gradientUnits="objectBoundingBox"><stop offset="0" stop-color="#ff9b44"></stop><stop offset="1" stop-color="#fc6075"></stop></linearGradient><linearGradient id="linear-gradient-3" x1="-32.212" y1="-12.394" x2="-31.126" y2="-12.743" gradientUnits="objectBoundingBox"><stop offset="0" stop-color="#f47920"></stop><stop offset="0.99" stop-color="#dc4398"></stop></linearGradient><linearGradient id="linear-gradient-4" x1="-31.978" y1="-12.781" x2="-30.897" y2="-13.132" xlink:href="#linear-gradient-3"></linearGradient></defs><g id="Group_5692" data-name="Group 5692" transform="translate(-951.486 -276.939)"><path id="Path_12226" data-name="Path 12226" d="M905.936,599.162c-40.643,0-632.7.145-633.039-.915l-.058-.134a.718.718,0,0,1-.058-.2c-.227-.53-91.222-149.376,50.242-252.994,55.351-40.543-3.464-67.307,40.551-112.442,50.584-51.867,105.788,5.511,162.036-18.009,9.938-4.151,19.911-10.834,29.894-21.088a111.012,111.012,0,0,1,18.371-15.163q1.516-1,3.064-1.96a122.639,122.639,0,0,1,12.257-6.614q4.248-1.991,8.657-3.684h0a142.183,142.183,0,0,1,14.347-4.644,163.17,163.17,0,0,1,21.4-4.174q4.773-.617,9.623-.976c62.849-4.7,133.579,21.724,170.079,60.341,7.349,7.776,40.765,48.013,14.424,103.317-16.631,34.917,53.042,68.266,77.8,108.14C968.473,529.344,906.507,597.841,905.936,599.162Z" transform="translate(729.37 365.37)" fill="#ebf9fa"></path><g id="Group_5034" data-name="Group 5034" transform="translate(347 450)" opacity="0.19" style="mix-blend-mode: luminosity;isolation: isolate"><rect id="Rectangle_102" data-name="Rectangle 102" width="15.822" height="60.673" transform="translate(1240.827 182.555)" fill="#718f54"></rect><rect id="Rectangle_103" data-name="Rectangle 103" width="4.236" height="47.642" transform="translate(1246.619 189.07)" fill="#82a361"></rect><rect id="Rectangle_104" data-name="Rectangle 104" width="15.822" height="61.78" transform="translate(1256.648 181.448)" fill="#90b7f0"></rect><rect id="Rectangle_105" data-name="Rectangle 105" width="7.911" height="61.78" transform="translate(1264.56 181.448)" fill="#acd1fc"></rect><rect id="Rectangle_106" data-name="Rectangle 106" width="15.822" height="60.673" transform="translate(1383.224 183.272) rotate(-12)" fill="#90b7f0"></rect><rect id="Rectangle_107" data-name="Rectangle 107" width="15.822" height="63.585" transform="translate(1272.47 179.643)" fill="#ffdf56"></rect><rect id="Rectangle_108" data-name="Rectangle 108" width="15.822" height="57.167" transform="translate(1288.293 186.062)" fill="#f7675c"></rect><rect id="Rectangle_109" data-name="Rectangle 109" width="4.965" height="57.167" transform="translate(1288.293 186.062)" fill="#e55a53"></rect><rect id="Rectangle_110" data-name="Rectangle 110" width="15.822" height="60.673" transform="translate(1304.114 182.555)" fill="#718f54"></rect><rect id="Rectangle_111" data-name="Rectangle 111" width="5.697" height="60.673" transform="translate(1314.241 182.555)" fill="#82a361"></rect><rect id="Rectangle_112" data-name="Rectangle 112" width="15.822" height="58.37" transform="translate(1319.937 184.858)" fill="#7284bc"></rect><rect id="Rectangle_113" data-name="Rectangle 113" width="15.822" height="60.673" transform="translate(1335.759 182.555)" fill="#ffdf56"></rect><rect id="Rectangle_114" data-name="Rectangle 114" width="6.363" height="60.673" transform="translate(1335.759 182.555)" fill="#edcc40"></rect><rect id="Rectangle_115" data-name="Rectangle 115" width="15.822" height="67.196" transform="translate(1351.581 176.032)" fill="#f7675c"></rect><rect id="Rectangle_116" data-name="Rectangle 116" width="5.223" height="67.196" transform="translate(1362.18 176.032)" fill="#ff8680"></rect><rect id="Rectangle_117" data-name="Rectangle 117" width="15.822" height="60.673" transform="translate(1367.403 182.555)" fill="#7284bc"></rect><rect id="Rectangle_118" data-name="Rectangle 118" width="7.028" height="51.253" transform="translate(1371.8 187.265)" fill="#90b7f0"></rect><ellipse id="Ellipse_13" data-name="Ellipse 13" cx="2.126" cy="2.126" rx="2.126" ry="2.126" transform="translate(1278.255 193.242)" fill="#fff8f3"></ellipse><ellipse id="Ellipse_14" data-name="Ellipse 14" cx="2.126" cy="2.126" rx="2.126" ry="2.126" transform="translate(1278.255 202.267)" fill="#fff8f3"></ellipse><path id="Path_41" data-name="Path 41" d="M187.686,97.258a2.127,2.127,0,1,1-2.127-2.127A2.126,2.126,0,0,1,187.686,97.258Z" transform="translate(1094.822 116.161)" fill="#fff8f3"></path><rect id="Rectangle_141" data-name="Rectangle 141" width="4.814" height="11.151" transform="translate(1324.671 195.369)" fill="#90b7f0"></rect><rect id="Rectangle_142" data-name="Rectangle 142" width="4.814" height="11.151" transform="translate(1324.671 209.969)" fill="#90b7f0"></rect><rect id="Rectangle_143" data-name="Rectangle 143" width="4.814" height="11.151" transform="translate(1324.671 224.57)" fill="#90b7f0"></rect><path id="Path_42" data-name="Path 42" d="M276.62,70.911l13.137,59.236,7.8-1.663L284.914,69.143Z" transform="translate(1113.786 110.873)" fill="#a2cbfc"></path><rect id="Rectangle_144" data-name="Rectangle 144" width="2.407" height="44.53" transform="translate(1238.42 198.698)" fill="#7284bc"></rect><rect id="Rectangle_145" data-name="Rectangle 145" width="16.648" height="2.208" transform="translate(1221.771 241.019)" fill="#7284bc"></rect><rect id="Rectangle_159" data-name="Rectangle 159" width="228.364" height="13.64" transform="translate(1204.199 243.228)" fill="#e4e4e4"></rect></g><g id="Group_60" data-name="Group 60" transform="translate(352 265)" opacity="0.19" style="mix-blend-mode: luminosity;isolation: isolate"><g id="Group_9" data-name="Group 9" transform="translate(622.333 86.271)"><rect id="Rectangle_27" data-name="Rectangle 27" width="263.667" height="168.315" fill="#ce8d55"></rect><rect id="Rectangle_28" data-name="Rectangle 28" width="242.36" height="148.396" transform="translate(10.653 9.959)" fill="#ffdf56"></rect></g><g id="Group_15" data-name="Group 15" transform="translate(659.139 114.818)"><rect id="Rectangle_29" data-name="Rectangle 29" width="26.736" height="35.406" fill="#fff8f3"></rect><path id="Path_3" data-name="Path 3" d="M662.956,113.339a2.407,2.407,0,1,1-2.408-2.408A2.407,2.407,0,0,1,662.956,113.339Z" transform="translate(-647.263 -106.639)" fill="#f7675c"></path><g id="Group_10" data-name="Group 10" transform="translate(4.179 12.731)"><rect id="Rectangle_30" data-name="Rectangle 30" width="18.25" height="1.332" fill="#90b7f0"></rect></g><g id="Group_11" data-name="Group 11" transform="translate(4.16 17.022)"><rect id="Rectangle_31" data-name="Rectangle 31" width="18.25" height="1.332" fill="#90b7f0"></rect></g><g id="Group_12" data-name="Group 12" transform="translate(4.142 21.314)"><rect id="Rectangle_32" data-name="Rectangle 32" width="18.249" height="1.332" fill="#90b7f0"></rect></g><g id="Group_13" data-name="Group 13" transform="translate(4.122 25.605)"><rect id="Rectangle_33" data-name="Rectangle 33" width="18.249" height="1.332" fill="#90b7f0"></rect></g><g id="Group_14" data-name="Group 14" transform="translate(4.103 29.896)"><rect id="Rectangle_34" data-name="Rectangle 34" width="18.25" height="1.332" fill="#90b7f0"></rect></g></g><g id="Group_21" data-name="Group 21" transform="translate(786.074 162.82)"><rect id="Rectangle_35" data-name="Rectangle 35" width="24.803" height="32.847" fill="#fff8f3"></rect><circle id="Ellipse_1" data-name="Ellipse 1" cx="2.233" cy="2.233" r="2.233" transform="translate(10.092 3.981)" fill="#f7675c"></circle><g id="Group_16" data-name="Group 16" transform="translate(3.878 11.763)"><rect id="Rectangle_36" data-name="Rectangle 36" width="16.93" height="1.332" fill="#90b7f0"></rect></g><g id="Group_17" data-name="Group 17" transform="translate(3.86 15.744)"><rect id="Rectangle_37" data-name="Rectangle 37" width="16.93" height="1.332" fill="#90b7f0"></rect></g><g id="Group_18" data-name="Group 18" transform="translate(3.842 19.725)"><rect id="Rectangle_38" data-name="Rectangle 38" width="16.932" height="1.332" fill="#90b7f0"></rect></g><g id="Group_19" data-name="Group 19" transform="translate(3.825 23.706)"><rect id="Rectangle_39" data-name="Rectangle 39" width="16.93" height="1.332" fill="#90b7f0"></rect></g><g id="Group_20" data-name="Group 20" transform="translate(3.806 27.687)"><rect id="Rectangle_40" data-name="Rectangle 40" width="16.93" height="1.332" fill="#90b7f0"></rect></g></g><g id="Group_28" data-name="Group 28" transform="translate(671.618 169.672)"><rect id="Rectangle_41" data-name="Rectangle 41" width="33.708" height="47.315" fill="#fff8f3"></rect><circle id="Ellipse_2" data-name="Ellipse 2" cx="2.233" cy="2.233" r="2.233" transform="translate(14.621 3.801)" fill="#7284bc"></circle><g id="Group_22" data-name="Group 22" transform="translate(5.3 10.694)"><rect id="Rectangle_42" data-name="Rectangle 42" width="22.638" height="1.332" fill="#816e89"></rect></g><g id="Group_23" data-name="Group 23" transform="translate(5.3 16.465)"><rect id="Rectangle_43" data-name="Rectangle 43" width="22.638" height="1.332" fill="#816e89"></rect></g><g id="Group_24" data-name="Group 24" transform="translate(5.3 22.235)"><rect id="Rectangle_44" data-name="Rectangle 44" width="22.638" height="1.332" fill="#816e89"></rect></g><g id="Group_25" data-name="Group 25" transform="translate(5.3 28.006)"><rect id="Rectangle_45" data-name="Rectangle 45" width="22.638" height="1.332" fill="#816e89"></rect></g><g id="Group_26" data-name="Group 26" transform="translate(5.3 33.777)"><rect id="Rectangle_46" data-name="Rectangle 46" width="22.638" height="1.332" fill="#816e89"></rect></g><g id="Group_27" data-name="Group 27" transform="translate(5.3 39.547)"><rect id="Rectangle_47" data-name="Rectangle 47" width="22.638" height="1.332" fill="#816e89"></rect></g></g><g id="Group_35" data-name="Group 35" transform="translate(718.982 172.141)"><rect id="Rectangle_48" data-name="Rectangle 48" width="47.052" height="47.052" fill="#90b7f0"></rect><circle id="Ellipse_3" data-name="Ellipse 3" cx="2.233" cy="2.233" r="2.233" transform="translate(19.517 3.093)" fill="#fff8f3"></circle><g id="Group_29" data-name="Group 29" transform="translate(7.754 12.519)"><rect id="Rectangle_49" data-name="Rectangle 49" width="31.308" height="1.332" fill="#7284bc"></rect></g><g id="Group_30" data-name="Group 30" transform="translate(7.754 18.144)"><rect id="Rectangle_50" data-name="Rectangle 50" width="31.308" height="1.332" fill="#7284bc"></rect></g><g id="Group_31" data-name="Group 31" transform="translate(7.754 23.769)"><rect id="Rectangle_51" data-name="Rectangle 51" width="31.308" height="1.332" fill="#7284bc"></rect></g><g id="Group_32" data-name="Group 32" transform="translate(7.754 29.394)"><rect id="Rectangle_52" data-name="Rectangle 52" width="31.308" height="1.332" fill="#7284bc"></rect></g><g id="Group_33" data-name="Group 33" transform="translate(7.754 35.019)"><rect id="Rectangle_53" data-name="Rectangle 53" width="31.308" height="1.332" fill="#7284bc"></rect></g><g id="Group_34" data-name="Group 34" transform="translate(7.754 40.644)"><rect id="Rectangle_54" data-name="Rectangle 54" width="31.308" height="1.332" fill="#7284bc"></rect></g></g><g id="Group_42" data-name="Group 42" transform="translate(822.722 109.464)"><rect id="Rectangle_55" data-name="Rectangle 55" width="28.901" height="47.884" fill="#f7675c"></rect><path id="Path_4" data-name="Path 4" d="M786.456,108.264a2.233,2.233,0,1,1-2.233-2.233A2.233,2.233,0,0,1,786.456,108.264Z" transform="translate(-769.772 -102.91)" fill="#fff8f3"></path><g id="Group_36" data-name="Group 36" transform="translate(6.461 11.389)"><rect id="Rectangle_56" data-name="Rectangle 56" width="16.867" height="1.332" fill="#fff8f3"></rect></g><g id="Group_37" data-name="Group 37" transform="translate(6.461 17.062)"><rect id="Rectangle_57" data-name="Rectangle 57" width="16.867" height="1.332" fill="#fff8f3"></rect></g><g id="Group_38" data-name="Group 38" transform="translate(6.461 22.735)"><rect id="Rectangle_58" data-name="Rectangle 58" width="16.867" height="1.332" fill="#fff8f3"></rect></g><g id="Group_39" data-name="Group 39" transform="translate(6.461 28.409)"><rect id="Rectangle_59" data-name="Rectangle 59" width="16.867" height="1.332" fill="#fff8f3"></rect></g><g id="Group_40" data-name="Group 40" transform="translate(6.461 34.082)"><rect id="Rectangle_60" data-name="Rectangle 60" width="16.867" height="1.332" fill="#fff8f3"></rect></g><g id="Group_41" data-name="Group 41" transform="translate(6.461 39.756)"><rect id="Rectangle_61" data-name="Rectangle 61" width="16.867" height="1.332" fill="#fff8f3"></rect></g></g><g id="Group_45" data-name="Group 45" transform="translate(716.074 110.857)"><rect id="Rectangle_62" data-name="Rectangle 62" width="23.526" height="32.668" fill="#f7675c"></rect><circle id="Ellipse_4" data-name="Ellipse 4" cx="2.233" cy="2.233" r="2.233" transform="translate(9.53 4.301)" fill="#90b7f0"></circle><g id="Group_43" data-name="Group 43" transform="translate(3.445 12.526)"><rect id="Rectangle_63" data-name="Rectangle 63" width="7.032" height="7.032" fill="#90b7f0"></rect><rect id="Rectangle_64" data-name="Rectangle 64" width="7.032" height="7.032" transform="translate(9.604)" fill="#fff8f3"></rect></g><g id="Group_44" data-name="Group 44" transform="translate(3.445 22.001)"><rect id="Rectangle_65" data-name="Rectangle 65" width="7.032" height="7.032" fill="#fff8f3"></rect><rect id="Rectangle_66" data-name="Rectangle 66" width="7.032" height="7.032" transform="translate(9.604)" fill="#90b7f0"></rect></g></g><g id="Group_49" data-name="Group 49" transform="translate(778.663 205.183)"><rect id="Rectangle_67" data-name="Rectangle 67" width="23.048" height="31.96" fill="#7284bc"></rect><path id="Path_5" data-name="Path 5" d="M751.173,180.792a2.234,2.234,0,1,1-2.233-2.234A2.233,2.233,0,0,1,751.173,180.792Z" transform="translate(-737.415 -174.576)" fill="#90b7f0"></path><g id="Group_46" data-name="Group 46" transform="translate(3.411 11.541)"><rect id="Rectangle_68" data-name="Rectangle 68" width="4.439" height="4.439" fill="#90b7f0"></rect><rect id="Rectangle_69" data-name="Rectangle 69" width="4.439" height="4.439" transform="translate(5.894)" fill="#fff8f3"></rect><rect id="Rectangle_70" data-name="Rectangle 70" width="4.439" height="4.439" transform="translate(11.788)" fill="#fff8f3"></rect></g><g id="Group_47" data-name="Group 47" transform="translate(3.411 17.624)"><rect id="Rectangle_71" data-name="Rectangle 71" width="4.439" height="4.439" fill="#fff8f3"></rect><rect id="Rectangle_72" data-name="Rectangle 72" width="4.439" height="4.439" transform="translate(5.894)" fill="#f7675c"></rect><rect id="Rectangle_73" data-name="Rectangle 73" width="4.439" height="4.439" transform="translate(11.788)" fill="#fff8f3"></rect></g><g id="Group_48" data-name="Group 48" transform="translate(3.411 23.706)"><rect id="Rectangle_74" data-name="Rectangle 74" width="4.439" height="4.439" fill="#fff8f3"></rect><rect id="Rectangle_75" data-name="Rectangle 75" width="4.439" height="4.439" transform="translate(5.894)" fill="#fff8f3"></rect><rect id="Rectangle_76" data-name="Rectangle 76" width="4.439" height="4.439" transform="translate(11.788)" fill="#90b7f0"></rect></g></g><g id="Group_54" data-name="Group 54" transform="translate(827.459 181.477)"><rect id="Rectangle_77" data-name="Rectangle 77" width="20.315" height="45.276" fill="#fff8f3"></rect><path id="Path_6" data-name="Path 6" d="M786.789,162.087a2.233,2.233,0,1,1-2.233-2.233A2.233,2.233,0,0,1,786.789,162.087Z" transform="translate(-774.399 -157.073)" fill="#f7675c"></path><rect id="Rectangle_78" data-name="Rectangle 78" width="3.551" height="12.159" transform="translate(2.833 11.271)" fill="#7284bc"></rect><rect id="Rectangle_79" data-name="Rectangle 79" width="3.551" height="12.159" transform="translate(8.382 11.271)" fill="#90b7f0"></rect><rect id="Rectangle_80" data-name="Rectangle 80" width="3.551" height="12.159" transform="translate(13.93 11.271)" fill="#f7675c"></rect><g id="Group_50" data-name="Group 50" transform="translate(2.833 26.987)"><rect id="Rectangle_81" data-name="Rectangle 81" width="14.648" height="1.332" fill="#90b7f0"></rect></g><g id="Group_51" data-name="Group 51" transform="translate(2.833 30.968)"><rect id="Rectangle_82" data-name="Rectangle 82" width="14.648" height="1.332" fill="#90b7f0"></rect></g><g id="Group_52" data-name="Group 52" transform="translate(2.833 34.949)"><rect id="Rectangle_83" data-name="Rectangle 83" width="14.648" height="1.332" fill="#90b7f0"></rect></g><g id="Group_53" data-name="Group 53" transform="translate(2.833 38.93)"><rect id="Rectangle_84" data-name="Rectangle 84" width="14.648" height="1.332" fill="#90b7f0"></rect></g></g><g id="Group_59" data-name="Group 59" transform="translate(766.722 113.576)"><rect id="Rectangle_85" data-name="Rectangle 85" width="21.483" height="33.68" fill="#7284bc"></rect><path id="Path_7" data-name="Path 7" d="M741.617,110.686a2.233,2.233,0,1,1-2.233-2.233A2.233,2.233,0,0,1,741.617,110.686Z" transform="translate(-728.643 -106.219)" fill="#fff8f3"></path><g id="Group_55" data-name="Group 55" transform="translate(3.78 12.137)"><rect id="Rectangle_86" data-name="Rectangle 86" width="12.855" height="1.332" fill="#90b7f0"></rect></g><g id="Group_56" data-name="Group 56" transform="translate(3.78 17.464)"><rect id="Rectangle_87" data-name="Rectangle 87" width="12.855" height="1.332" fill="#90b7f0"></rect></g><g id="Group_57" data-name="Group 57" transform="translate(3.78 22.791)"><rect id="Rectangle_88" data-name="Rectangle 88" width="12.855" height="1.332" fill="#90b7f0"></rect></g><g id="Group_58" data-name="Group 58" transform="translate(3.78 28.117)"><rect id="Rectangle_89" data-name="Rectangle 89" width="12.855" height="1.332" fill="#90b7f0"></rect></g></g></g><g id="Work_time-pana" data-name="Work time-pana" transform="translate(972.436 241.337)"><g id="freepik--Floor--inject-53" transform="translate(1.572 704.44)"><path id="Path_6084" data-name="Path 6084" d="M783.363,454.188c0,.241-166.564.448-371.979.448s-372.014-.173-372.014-.448,166.529-.448,372.014-.448S783.363,453.981,783.363,454.188Z" transform="translate(-39.37 -453.74)" fill="#263238"></path></g><g id="freepik--Hourglass--inject-53" transform="translate(170.682 90.522)"><path id="Path_6085" data-name="Path 6085" d="M169.624,110.247c-27.677,43.525-25.867,103.88,4.38,145.663,20.159,27.867,50.388,46.56,74.392,71.15s42.249,60.89,29.574,92.861c-12.9,32.54-50.681,45.767-78.962,66.391A149.233,149.233,0,0,0,163,690.177H456.881S508.511,591.8,442.137,516.8s-102.018-76.2-99.569-125.384,36.869-65.132,56.544-83.584,115.537-61.442,58.993-197.6Z" transform="translate(-137.302 -88.674)" fill="#fafafa"></path><path id="Path_6086" data-name="Path 6086" d="M169.758,110.305h77.307l211.175-.155h.224v.207A270.722,270.722,0,0,1,469.5,142a184.046,184.046,0,0,1,6.242,34.489A136.636,136.636,0,0,1,473.881,213,117.383,117.383,0,0,1,460.6,248.485a127.187,127.187,0,0,1-11.071,16.055,146.677,146.677,0,0,1-13.537,14.485,196.145,196.145,0,0,1-15.365,13.02c-5.346,4.139-10.933,8.036-16.382,12.174-2.725,2.052-5.173,4.363-7.829,6.674s-5.294,4.466-8.019,6.639c-5.432,4.346-10.916,8.622-16.089,13.433a86.05,86.05,0,0,0-24.142,34.627,84.492,84.492,0,0,0-4.553,21.245c-.155,1.724-.4,3.621-.466,5.449a48.526,48.526,0,0,0,0,5.484,61.2,61.2,0,0,0,1.1,10.933,49.887,49.887,0,0,0,8.726,20.21,110.947,110.947,0,0,0,15.227,16.5c11.157,10.191,23,19.935,34.334,30.454s22.418,21.487,33.109,33.092a196.226,196.226,0,0,1,15.279,18.176,126.612,126.612,0,0,1,12.33,20.538,135.092,135.092,0,0,1,12.657,46.56,170.874,170.874,0,0,1-2.863,48.974,201.2,201.2,0,0,1-6.311,24.039,176.782,176.782,0,0,1-9.312,23.194l-.121.241H162.9l-.121-.19a151.492,151.492,0,0,1-24.608-69.374,146.267,146.267,0,0,1,10.174-70.012,152.44,152.44,0,0,1,38.834-55.492A176.86,176.86,0,0,1,213.7,476.266c9.174-5.691,18.434-10.967,27.177-16.727a124.921,124.921,0,0,0,23.935-19.452,65.634,65.634,0,0,0,14.8-25.66,63.975,63.975,0,0,0,1.173-28.643,93.756,93.756,0,0,0-9.088-26.332,128.5,128.5,0,0,0-14.8-22.418,177.112,177.112,0,0,0-17.9-18.676c-12.433-11.45-25.177-21.469-36.627-31.764-5.742-5.173-11.174-10.347-16.192-15.641a147.864,147.864,0,0,1-13.416-16.537,126.711,126.711,0,0,1-16.813-34.851,130.732,130.732,0,0,1-5.725-33.023c-.241-2.552-.138-5.07-.138-7.536s0-4.863.224-7.191.345-4.6.517-6.9.638-4.346.931-6.432a122.747,122.747,0,0,1,11.519-36.524,46.183,46.183,0,0,1,2.656-5.173l2.121-3.6c1.121-1.914,1.724-2.88,1.724-2.88l-1.724,2.932L166,116.789a51.978,51.978,0,0,0-2.621,5.173A123.349,123.349,0,0,0,152,158.538c-.293,2.069-.638,4.208-.9,6.4s-.345,4.484-.517,6.812-.172,4.725-.19,7.174a73.556,73.556,0,0,0,.155,7.519,129.66,129.66,0,0,0,5.777,32.9,125.883,125.883,0,0,0,16.8,34.713,145.037,145.037,0,0,0,13.4,16.451c5,5.311,10.433,10.484,16.175,15.52,11.45,10.347,24.142,20.262,36.662,31.73a178.226,178.226,0,0,1,18.038,18.814,129.763,129.763,0,0,1,14.882,22.573,94.118,94.118,0,0,1,9.174,26.5,64.614,64.614,0,0,1-1.173,28.953,66.046,66.046,0,0,1-14.934,25.953,126.541,126.541,0,0,1-24.039,19.59c-8.777,5.777-18.038,11.054-27.194,16.744a177.242,177.242,0,0,0-26.419,19.279,151.854,151.854,0,0,0-38.61,55.182A145.421,145.421,0,0,0,138.995,621a150.819,150.819,0,0,0,24.487,68.978l-.345-.19H457.016l-.4.241a174.167,174.167,0,0,0,9.277-23.142,200.3,200.3,0,0,0,6.277-23.935,169.819,169.819,0,0,0,2.845-48.733,133.675,133.675,0,0,0-12.571-46.3,126.774,126.774,0,0,0-12.226-20.4,201.145,201.145,0,0,0-15.209-18.107q-15.951-17.365-33.058-33.04c-11.312-10.5-23.125-20.228-34.316-30.471a112.983,112.983,0,0,1-15.365-16.624,50.889,50.889,0,0,1-8.95-20.469,64.964,64.964,0,0,1-1.121-11.088c-.086-1.845,0-3.69,0-5.535s.31-3.673.448-5.5a85.671,85.671,0,0,1,4.656-21.366,86.655,86.655,0,0,1,24.366-34.92c5.173-4.794,10.709-9.139,16.141-13.468,2.725-2.173,5.4-4.363,8-6.6s5.173-4.656,7.863-6.725c5.484-4.139,11.054-8.036,16.382-12.157a198.6,198.6,0,0,0,15.33-12.95,149.12,149.12,0,0,0,13.468-14.4,130.888,130.888,0,0,0,11.019-15.968,116.592,116.592,0,0,0,13.209-35.248,135.78,135.78,0,0,0,1.88-36.213,184.312,184.312,0,0,0-6.191-34.489,273.714,273.714,0,0,0-10.9-31.747l.293.19-211.054-.155H174.794Z" transform="translate(-137.437 -88.732)" fill="#263238"></path><path id="Path_6087" data-name="Path 6087" d="M434.841,167.265c43.283,7.122-24.953,83.791-63.6,114.037-22.418,17.5-46.387,36.506-57.01,62.856-12.071,29.9-3.121,63.494-8.95,93.568a4.173,4.173,0,0,1-8.277-.879c.276-19.745-.241-39.472-3.449-58.907-4.639-27.591-15.227-54.82-34.489-75.013-15.779-16.5-36.455-27.453-53.268-42.87-24.556-22.5-49.785-51.526-52.251-84.739,0,0,47.146-37.938,73.323-33.2,30.592,5.6,60.7,52.8,108.088,47.4C367.932,185.751,384.642,159.022,434.841,167.265Z" transform="translate(-125.763 -65.867)" fill="url(#linear-gradient)"></path><path id="Path_6088" data-name="Path 6088" d="M443.711,415.863c-1.086-10.829-3.983-23.073-13.589-28.177-5.811-3.1-12.9-2.759-19.279-1.086s-12.364,4.587-18.676,6.467a61.165,61.165,0,0,1-38.231-1.224c-11.743-4.311-21.814-12.071-32.764-18.245s-23.659-10.692-35.8-7.674c-20.935,5.173-31.833,30.419-52.527,36.506-9.208,2.69-19.089,1.173-28.436-.931s-18.745-4.846-28.315-4.484c-7.519.276-15.33,2.88-20.59,8.019h0l-.138.155a20.381,20.381,0,0,0-2.38,2.794c-6.415,8.622-7.45,20.055-5.466,30.505,2.207,11.709,7.674,22.521,13.537,32.885,6.9,12.209,14.761,24.349,26.177,32.488,14.106,10.053,31.816,3.121,49.078,4.484,40.231,3.173,83.515,5.329,123.763,2.225,21.262-1.724,41.18.655,58.045-12.4,11.864-9.174,19.59-23,23.314-37.524S445.211,430.78,443.711,415.863Z" transform="translate(-130.788 95.865)" fill="url(#linear-gradient)"></path><g id="Group_4478" data-name="Group 4478" transform="translate(241.51 492.088)" opacity="0.24"><path id="Path_6089" data-name="Path 6089" d="M277.523,382.46c-2.259,3.449-3.242,8.139-1.052,11.657s5.173,6.743,6.1,10.795c1.5,6.346-2.328,12.554-5.173,18.434a58.717,58.717,0,0,0-5.708,34.023,46.284,46.284,0,0,0,16.882,29.712c4.087,3.156,9.4,5.6,14.33,4.052,4.639-1.448,7.622-6.156,8.622-10.933s.155-9.691-.448-14.5a225.283,225.283,0,0,1,1.724-67.391c.655-3.708,1.276-7.95-1.069-10.9a12.622,12.622,0,0,0-6.191-3.449c-8.967-2.983-18.641.328-27.936-1.431" transform="translate(-271.184 -382.46)"></path></g><path id="Path_6090" data-name="Path 6090" d="M139.832,463.1s-.811-13.485,16.779-21H465.717s16.124,8.174,18.107,20.693Z" transform="translate(-135.705 151.746)" fill="#263238"></path><path id="Path_6091" data-name="Path 6091" d="M450.169,120.941l-.5.224L159.014,119.3s-1.035-.655-2.569-1.88a11.019,11.019,0,0,1,6.9-19.693l282.118,2.276C457.066,100.11,460.722,115.975,450.169,120.941Z" transform="translate(-126.727 -97.73)" fill="#263238"></path><g id="Group_4479" data-name="Group 4479" transform="translate(84.245 130.427)" opacity="0.24"><path id="Path_6092" data-name="Path 6092" d="M378.927,177.03c.586,1.121-1.6,3.449-5.76,7.243s-10.347,8.777-18.038,15.037A236.764,236.764,0,0,1,325.815,220a117.626,117.626,0,0,1-20.072,9.226,95.056,95.056,0,0,1-11.536,3.19,78.7,78.7,0,0,1-12.468,1.621,66.564,66.564,0,0,1-25.056-3.449,90.289,90.289,0,0,1-20.141-10.347c-5.794-3.828-10.778-7.622-15.52-11.261s-8.967-7.139-12.8-10.45c-15.261-13.226-23.3-22.952-21.745-24.832s12.416,4.242,29.315,14.589l13.8,8.45c4.949,3,10.243,6.329,15.658,9.4a87.67,87.67,0,0,0,16.986,7.674,54.543,54.543,0,0,0,18.693,2.207c13.244-.69,26.091-5.346,37.213-10.726s21.193-11.657,29.919-16.555a150.734,150.734,0,0,1,21.59-10.519C375.116,176.306,378.427,175.944,378.927,177.03Z" transform="translate(-186.29 -173.364)"></path></g><path id="Path_6093" data-name="Path 6093" d="M238.185,334.409a5,5,0,1,1-.241.1" transform="translate(-66.735 73.473)" fill="#ff725e"></path><path id="Path_6094" data-name="Path 6094" d="M193.764,258.575a7.468,7.468,0,0,1-1.035-1.035l-2.811-3.069c-1.19-1.362-2.759-2.949-4.363-4.966l-5.484-6.9c-1.88-2.656-4-5.518-6.139-8.622l-3.156-5.018c-.535-.862-1.1-1.724-1.621-2.638l-1.518-2.794a116.571,116.571,0,0,1-10.709-25.78,108.64,108.64,0,0,1-4.07-27.591c0-2.156.121-4.242.155-6.294a21.6,21.6,0,0,1,.138-3c.138-.983.207-1.949.31-2.9.224-1.9.362-3.742.621-5.5s.621-3.449.914-5.018c.483-3.225,1.345-6.036,1.949-8.622.328-1.242.586-2.414.914-3.449l.948-2.88,1.328-3.949a7.351,7.351,0,0,1,.517-1.362,7.844,7.844,0,0,1-.345,1.414c-.293,1-.673,2.328-1.173,4l-.862,2.88c-.293,1.052-.535,2.224-.845,3.449a75.212,75.212,0,0,0-1.724,8.622c-.276,1.586-.552,3.259-.845,5s-.362,3.57-.569,5.466A28.108,28.108,0,0,1,154,160.9c-.1.983,0,1.983-.1,2.983,0,2.035-.138,4.1-.121,6.242a109.225,109.225,0,0,0,4.018,27.436,118.679,118.679,0,0,0,10.571,25.625c.5.931,1,1.862,1.483,2.794s1.086,1.724,1.6,2.621l3.1,5.018c2.1,3.173,4.19,6.036,6.018,8.622l5.38,6.9c1.552,2.052,3.087,3.656,4.225,5.07l2.69,3.19A11.723,11.723,0,0,1,193.764,258.575Z" transform="translate(-126.263 -76.387)" fill="#263238"></path><path id="Path_6095" data-name="Path 6095" d="M167.09,435.685a3.448,3.448,0,0,1,.31-.569l1.035-1.621c.466-.724,1.035-1.586,1.724-2.621l1.086-1.724c.431-.569.931-1.138,1.431-1.724l3.449-4.139c1.328-1.431,2.845-2.914,4.449-4.535a116.7,116.7,0,0,1,11.83-9.967c9.157-6.9,20.969-13.8,33.765-21.883a193.118,193.118,0,0,0,19.365-13.64A90.345,90.345,0,0,0,262.9,354.913a86.86,86.86,0,0,0,14.054-46.267,109.448,109.448,0,0,0-6.622-39.317,146.752,146.752,0,0,0-11.416-24.487c-1.6-2.776-2.914-4.88-3.811-6.311l-1.017-1.621c-.224-.362-.328-.569-.328-.569a2.55,2.55,0,0,1,.4.517l1.1,1.586c.948,1.38,2.311,3.449,3.949,6.225a139.958,139.958,0,0,1,11.726,24.453,109.349,109.349,0,0,1,6.9,39.541,93.136,93.136,0,0,1-.948,11.623A84.933,84.933,0,0,1,274.35,332.2,80.737,80.737,0,0,1,263.5,355.43a90.927,90.927,0,0,1-17.555,18.538,195.616,195.616,0,0,1-19.469,13.658c-12.847,8.019-24.677,14.847-33.834,21.693a121.452,121.452,0,0,0-11.864,9.812c-1.6,1.6-3.138,3.052-4.484,4.466l-3.449,4.053c-.517.621-1.017,1.19-1.449,1.724l-1.121,1.638-1.724,2.569-1.1,1.569A4.021,4.021,0,0,1,167.09,435.685Z" transform="translate(-115.954 2.685)" fill="#263238"></path><path id="Path_6096" data-name="Path 6096" d="M163.955,369.61a5.452,5.452,0,0,1-.379.81l-1.242,2.19c-.552.931-1.207,2.1-1.88,3.449s-1.535,2.932-2.259,4.742c-.379.9-.793,1.828-1.207,2.794s-.759,2.035-1.173,3.1c-.828,2.138-1.483,4.484-2.242,6.9a93.7,93.7,0,0,0-3.052,33.247c.293,2.552.5,5,.948,7.243.19,1.121.345,2.225.569,3.259s.466,2.035.69,2.983c.379,1.914.948,3.587,1.362,5.07s.828,2.759,1.207,3.794l.811,2.38a2.949,2.949,0,0,1,.224.845,3.278,3.278,0,0,1-.4-.776c-.259-.638-.569-1.4-.966-2.328a37.187,37.187,0,0,1-1.362-3.759c-.466-1.483-1.069-3.156-1.5-5.07-.241-.948-.483-1.949-.741-2.983s-.414-2.156-.638-3.276c-.483-2.276-.724-4.725-1.035-7.294a90.258,90.258,0,0,1,3.069-33.454c.776-2.483,1.466-4.846,2.345-6.984.431-1.069.776-2.121,1.224-3.1l1.276-2.811c.759-1.724,1.724-3.328,2.4-4.708a35.749,35.749,0,0,1,2.018-3.449l1.38-2.121C163.748,369.835,163.92,369.593,163.955,369.61Z" transform="translate(-128.856 99.231)" fill="#263238"></path><path id="Path_6097" data-name="Path 6097" d="M348.547,393.651l-.345.242-1.069.673-4.19,2.518-3.035,1.724c-1.138.638-2.4,1.224-3.742,1.9-2.725,1.311-5.725,2.983-9.278,4.328l-5.518,2.259c-1.914.759-4,1.362-6.1,2.087-4.19,1.535-8.846,2.638-13.692,3.9A160.527,160.527,0,0,1,236.717,415c-4.932-1-9.622-1.862-13.9-3.173-2.138-.621-4.242-1.1-6.208-1.724l-5.622-2.052c-3.6-1.155-6.708-2.656-9.484-3.828-1.38-.6-2.673-1.138-3.828-1.724l-3.139-1.638-4.311-2.293-1.1-.621-.362-.224a.909.909,0,0,1,.414.155l1.138.535,4.38,2.138,3.156,1.552c1.173.552,2.483,1.052,3.863,1.638,2.776,1.1,5.88,2.569,9.5,3.673l5.553,2.018c1.966.655,4.07,1.121,6.208,1.724,4.259,1.276,8.933,2.087,13.8,3.069A163.924,163.924,0,0,0,301.3,412.5c4.828-1.242,9.467-2.293,13.658-3.794,2.1-.707,4.173-1.276,6.087-2.035l5.518-2.19c3.552-1.311,6.57-2.932,9.295-4.19,1.345-.655,2.621-1.224,3.759-1.724l3.07-1.724,4.259-2.38,1.121-.586C348.409,393.686,348.547,393.634,348.547,393.651Z" transform="translate(-100.256 116.646)" fill="#263238"></path><path id="Path_6098" data-name="Path 6098" d="M362.164,182a1.828,1.828,0,0,1-.362.328l-1.138.931c-1.052.845-2.518,2.035-4.4,3.449-3.828,3.035-9.381,7.432-16.4,12.675a237.115,237.115,0,0,1-25.642,17.106,115.553,115.553,0,0,1-16.52,7.6,75.306,75.306,0,0,1-19.072,4.242,72.427,72.427,0,0,1-36.627-7.622,124.269,124.269,0,0,1-14.158-8.415c-4.208-2.966-8.053-5.846-11.45-8.622-6.9-5.484-12.175-10.122-15.9-13.3l-4.259-3.69-1.086-.966-.362-.362s.155,0,.414.276l1.155.914,4.363,3.552c3.794,3.1,9.209,7.657,16.072,13.071,3.449,2.707,7.26,5.553,11.485,8.484a125.882,125.882,0,0,0,14.089,8.277,72.168,72.168,0,0,0,36.213,7.467,74.774,74.774,0,0,0,18.848-4.173,115.661,115.661,0,0,0,16.417-7.5,247.976,247.976,0,0,0,25.677-16.744c7.036-5.173,12.64-9.484,16.555-12.433l4.5-3.449,1.19-.862A1.552,1.552,0,0,1,362.164,182Z" transform="translate(-95.887 -36.681)" fill="#263238"></path><g id="Group_4480" data-name="Group 4480" transform="translate(117.272 491.907)" opacity="0.24"><path id="Path_6099" data-name="Path 6099" d="M201.66,404.445c8.174-6.311,19.659-4.794,29.764-2.656s20.279,5.57,30.505,4.139c7.708-1.086,14.778-4.863,22.418-6.518s16.831-.431,21.055,6.1a163.82,163.82,0,0,1-103.691-1.069" transform="translate(-201.66 -398.745)"></path></g></g><g id="freepik--Character--inject-53" transform="translate(403.849 336.666)"><path id="Path_6100" data-name="Path 6100" d="M430.1,427.628l-37.075-41.576-.379,50.543,11.174,32.42L292.733,488.276l-4.708-87.653-8-67.253a18.279,18.279,0,0,1,11.45-19.159l30.574-12.071,43.111,7.9,17.331,6.587a47.577,47.577,0,0,1,18.865,13.123L453.5,389.379" transform="translate(-267.401 -195.791)" fill="#ff725e"></path><path id="Path_6101" data-name="Path 6101" d="M344,355.888a54.273,54.273,0,0,0,6.26-.448A25.4,25.4,0,0,0,371.143,336.2a57.644,57.644,0,0,0,.948-6.225,5.657,5.657,0,0,1,.155,1.724,21.027,21.027,0,0,1-.483,4.656,24.9,24.9,0,0,1-21.4,19.745,22,22,0,0,1-4.673.1A5.362,5.362,0,0,1,344,355.888Z" transform="translate(-220.961 -175.63)" fill="#fff"></path><path id="Path_6102" data-name="Path 6102" d="M346.243,411.713c.259,0,.328-17.52.155-39.11s-.535-39.093-.793-39.093-.328,17.5-.155,39.11S345.984,411.713,346.243,411.713Z" transform="translate(-219.979 -173.065)" fill="#263238"></path><path id="Path_6103" data-name="Path 6103" d="M394.844,442.244l-67.115-27.022a15.348,15.348,0,0,1-9.571-13.054l-4.915-64.356s.586-27.384-16.52-28.712l-9.674,3.828c-12.571,6.674-15.675,24.987-13.968,39.11,2.431,20.072,3.449,48.491,6.156,65.908,2.242,14.261,10.347,26.8,24.349,30.471l82.67,17.9Z" transform="translate(-272.65 -190.749)" fill="#ff725e"></path><path id="Path_6104" data-name="Path 6104" d="M296.751,331.44a8.334,8.334,0,0,1,.207,1.466c.1,1.052.259,2.466.431,4.242.345,3.777.828,9.088,1.414,15.606s1.242,14.468,2,23.159c.172,2.19.362,4.415.552,6.691a52.012,52.012,0,0,0,.862,6.9,11.4,11.4,0,0,0,3.346,6.018,22.413,22.413,0,0,0,6.191,3.863c18.5,8,35.558,14.623,47.939,19.262L374.4,424.06l4,1.466a9.647,9.647,0,0,1,1.362.569,8.269,8.269,0,0,1-1.431-.4l-4.052-1.311c-3.449-1.173-8.622-2.914-14.8-5.173-12.468-4.483-29.54-11-48.112-18.969a23.466,23.466,0,0,1-6.432-4.035,12.294,12.294,0,0,1-3.587-6.484,50.281,50.281,0,0,1-.845-7c-.19-2.294-.362-4.518-.535-6.708-.673-8.622-1.293-16.555-1.724-23.177s-.862-11.847-1.138-15.623c-.121-1.724-.207-3.207-.259-4.259a8.785,8.785,0,0,1-.1-1.517Z" transform="translate(-255.192 -174.565)" fill="#263238"></path><path id="Path_6105" data-name="Path 6105" d="M274.478,351.73a4.305,4.305,0,0,1,.121.862l.224,2.483c.207,2.293.466,5.38.793,9.139s.845,8.433,1.518,13.5a130.587,130.587,0,0,0,3.018,16.3,24.538,24.538,0,0,0,3.276,7.777,47.443,47.443,0,0,0,5.018,6.156A43.11,43.11,0,0,0,299.189,416a40.526,40.526,0,0,0,11.8,3.863,3.454,3.454,0,0,1-.88,0,19.372,19.372,0,0,1-2.483-.328,32.614,32.614,0,0,1-8.726-2.949,42.057,42.057,0,0,1-11.037-8.036,45.721,45.721,0,0,1-5.173-6.26,25.042,25.042,0,0,1-3.449-8.019,122.006,122.006,0,0,1-2.983-16.434c-.621-5.173-1.035-9.691-1.31-13.554s-.431-7-.517-9.174v-2.5A2.778,2.778,0,0,1,274.478,351.73Z" transform="translate(-271.374 -159.866)" fill="#263238"></path><path id="Path_6106" data-name="Path 6106" d="M291.09,384.5a9.933,9.933,0,0,1,1.224-3.569,23.143,23.143,0,0,1,13.623-11.64,9.744,9.744,0,0,1,3.725-.638q-1.693.706-3.449,1.241a26.382,26.382,0,0,0-7.6,4.535,26.712,26.712,0,0,0-5.674,6.794C291.728,383.206,291.228,384.551,291.09,384.5Z" transform="translate(-259.291 -147.61)" fill="#263238"></path><path id="Path_6107" data-name="Path 6107" d="M298.75,377.4a1.588,1.588,0,0,1,.414.19l1.207.638a43.764,43.764,0,0,0,4.794,2.018,37.938,37.938,0,0,0,18.814,1.621,37.144,37.144,0,0,0,23.383-14.537,30.883,30.883,0,0,0,6.122-15.21,20.7,20.7,0,0,0-.9-8.622,17.589,17.589,0,0,0-4.829-7.4,14.812,14.812,0,0,0-7.881-3.828,9.4,9.4,0,0,0-7.9,2.225,5.173,5.173,0,0,0-1.552,3.57,6.242,6.242,0,0,0,1.31,3.69,10.071,10.071,0,0,0,6.9,3.57,27.639,27.639,0,0,0,30.126-19.383,30.017,30.017,0,0,0,1.276-8.088,30.851,30.851,0,0,0-.379-5.173c-.1-.535-.19-.983-.241-1.328a2.426,2.426,0,0,1,0-.466,21.814,21.814,0,0,1,1.035,6.9,28.974,28.974,0,0,1-1.138,8.226,28.384,28.384,0,0,1-30.747,20.055,10.846,10.846,0,0,1-7.381-3.863A7.054,7.054,0,0,1,329.7,338a5.967,5.967,0,0,1,1.724-4.19,10.347,10.347,0,0,1,8.622-2.483,15.52,15.52,0,0,1,8.364,4.053,18.176,18.176,0,0,1,5.07,7.777,21.556,21.556,0,0,1,.931,8.967,31.573,31.573,0,0,1-6.329,15.52A37.058,37.058,0,0,1,305.1,380.4a26.7,26.7,0,0,1-6.346-3Z" transform="translate(-253.742 -189.452)" fill="#fff"></path><path id="Path_6108" data-name="Path 6108" d="M273.25,343.7a5.5,5.5,0,0,1,1.1-1.379,24.779,24.779,0,0,1,3.621-3.156,30.454,30.454,0,0,1,14.848-5.26,28.7,28.7,0,0,1,8.76.362,26.659,26.659,0,0,1,6.743,2.38,31.045,31.045,0,0,1,4.1,2.483,5.793,5.793,0,0,1,1.345,1.138c-.1.138-2.1-1.38-5.725-3.052a28.109,28.109,0,0,0-15.123-2.414,31.831,31.831,0,0,0-14.589,4.88C275.009,341.907,273.371,343.821,273.25,343.7Z" transform="translate(-272.215 -172.909)" fill="#fff"></path><path id="Path_6109" data-name="Path 6109" d="M279.48,318.434a26.535,26.535,0,0,0,5.432,3.949,19.346,19.346,0,0,0,6.9,2.035,18.382,18.382,0,0,0,8.622-1.207,18.105,18.105,0,0,0,6.9-5.173,19.831,19.831,0,0,0,3.449-6.329,27.6,27.6,0,0,0,1.052-6.639,6.036,6.036,0,0,1,.224,1.828,16.8,16.8,0,0,1-.672,5,19.282,19.282,0,0,1-3.449,6.656,17.624,17.624,0,0,1-16.382,6.76,19.141,19.141,0,0,1-7.122-2.276,16.6,16.6,0,0,1-4-3.069,4.929,4.929,0,0,1-.948-1.535Z" transform="translate(-267.702 -193.669)" fill="#fff"></path><path id="Path_6110" data-name="Path 6110" d="M313.4,384.917a6.4,6.4,0,0,1,.138-1.276,13.7,13.7,0,0,1,1.19-3.449,19.107,19.107,0,0,1,10.036-8.726,29.4,29.4,0,0,1,19.745-.707c3.552,1.052,7.622,2.362,10.347,5.829a6.191,6.191,0,0,1,.759,6.311,10,10,0,0,1-4.777,4.5,15.348,15.348,0,0,1-6.363,1.586,9.329,9.329,0,0,1-6.1-1.9,7.794,7.794,0,0,1-2.725-5.535,13.916,13.916,0,0,1,.914-5.811,26.108,26.108,0,0,1,13.8-14,27.246,27.246,0,0,1,13.209-2.276,18.779,18.779,0,0,1,4.828,1.017c0,.121-1.724-.448-4.863-.673a27.59,27.59,0,0,0-20.486,7.536,24.143,24.143,0,0,0-5.777,8.622,13.053,13.053,0,0,0-.845,5.466,6.9,6.9,0,0,0,2.449,4.915,8.381,8.381,0,0,0,5.518,1.724,14.243,14.243,0,0,0,5.967-1.483,9.209,9.209,0,0,0,4.38-4.087,5.363,5.363,0,0,0-.655-5.432,12.431,12.431,0,0,0-4.5-3.552,32.238,32.238,0,0,0-5.294-1.983,29,29,0,0,0-19.279.5,19.073,19.073,0,0,0-9.967,8.295,18.435,18.435,0,0,0-1.638,4.587Z" transform="translate(-243.129 -154.323)" fill="#fff"></path><path id="Path_6111" data-name="Path 6111" d="M287.48,401.324c0-.172,2.552-.379,6.432-1.724a32.161,32.161,0,0,0,20.59-22.832c.983-4,.948-6.6,1.121-6.587a5.963,5.963,0,0,1,.086,1.811,26.166,26.166,0,0,1-.586,4.915,30.937,30.937,0,0,1-21,23.228,26.532,26.532,0,0,1-4.829,1.086,6.294,6.294,0,0,1-1.811.1Z" transform="translate(-261.906 -146.5)" fill="#fff"></path><path id="Path_6112" data-name="Path 6112" d="M274.86,361.075a3.448,3.448,0,0,1,.81-.328c.552-.172,1.345-.414,2.4-.69a29.622,29.622,0,0,1,9.157-.931,19.244,19.244,0,0,1,6.208,1.535,14.4,14.4,0,0,1,5.794,4.553,11.9,11.9,0,0,1,2.259,7.829,9.623,9.623,0,0,1-1.328,4.208,6.656,6.656,0,0,1-3.449,2.932,4.622,4.622,0,0,1-4.535-.9,6.053,6.053,0,0,1-1.569-4.173,17.968,17.968,0,0,1,1.586-7.984,17.5,17.5,0,0,1,18.969-10.191,14.067,14.067,0,0,1,2.431.6c.535.207.811.328.793.362a27.69,27.69,0,0,0-3.276-.621,18.142,18.142,0,0,0-8.846,1.138,16.951,16.951,0,0,0-9.26,9.036,17.417,17.417,0,0,0-1.466,7.6,5.173,5.173,0,0,0,1.311,3.587,3.742,3.742,0,0,0,3.639.69,5.862,5.862,0,0,0,3.035-2.552,8.9,8.9,0,0,0,1.207-3.811,11.193,11.193,0,0,0-2.052-7.277,13.5,13.5,0,0,0-5.432-4.346,18.637,18.637,0,0,0-5.967-1.586,31.178,31.178,0,0,0-9,.638C276.05,360.833,274.894,361.144,274.86,361.075Z" transform="translate(-271.049 -156.277)" fill="#fff"></path><g id="Group_4481" data-name="Group 4481" transform="translate(43.749 176.016)" opacity="0.3"><path id="Path_6113" data-name="Path 6113" d="M357.168,410.345c-7.174-4.052-14.192-7.174-21.693-10.571S320.61,391.98,315.7,385.358c-9.26-12.485-8.208-30.505-17.676-42.818q.931,12.416,1.845,24.849c.569,7.588-.586,15.106,4.294,20.262,4.121,4.346,12.157,7.674,17.848,9.553,11.433,3.777,23.746,9.381,35.161,13.14" transform="translate(-298.02 -342.54)"></path></g><path id="Path_6114" data-name="Path 6114" d="M405.462,436.71s56.165,15.52,58.424,16.348c3.449,1.19,2.811,13.589-2.449,13.382-2.5-.086-43.111,1.518-48.284,1.207s-20.693-6.432-20.693-6.432Z" transform="translate(-185.855 -98.303)" fill="#ff725e"></path><path id="Path_6115" data-name="Path 6115" d="M413.531,453.849a49.478,49.478,0,0,1,2.483-6.036,50.337,50.337,0,0,1,3.966-5.173,12.416,12.416,0,0,0-6.449,11.192Z" transform="translate(-170.592 -94.007)" fill="#263238"></path><path id="Path_6116" data-name="Path 6116" d="M410.13,452.1c.276,0,.845-2.6,2.345-5.535s3.259-4.984,3.069-5.173a14.054,14.054,0,0,0-5.415,10.726Z" transform="translate(-173.054 -94.913)" fill="#263238"></path><path id="Path_6117" data-name="Path 6117" d="M407.122,451.452a37.457,37.457,0,0,1,1.311-5.932,39.431,39.431,0,0,1,3.052-5.259A10.536,10.536,0,0,0,407.122,451.452Z" transform="translate(-175.443 -95.731)" fill="#263238"></path><path id="Path_6118" data-name="Path 6118" d="M409.384,448.019a10.021,10.021,0,0,0,.6-4.173,20.691,20.691,0,0,0-.569-4.587,18.259,18.259,0,0,0-.845-2.6,2.966,2.966,0,0,0-.9-1.38,1.518,1.518,0,0,0-1.931.1,2.431,2.431,0,0,0-.741,1.587,8.608,8.608,0,0,0,0,1.483,11.581,11.581,0,0,0,.345,2.742,16.73,16.73,0,0,0,1.725,4.294,11.551,11.551,0,0,0,2.518,3.449c.138,0-.811-1.4-1.931-3.69a18.35,18.35,0,0,1-1.466-4.173,12.35,12.35,0,0,1-.276-2.569c0-.862,0-1.932.517-2.345a.552.552,0,0,1,.742,0,2.536,2.536,0,0,1,.621.983,22.267,22.267,0,0,1,.845,2.483,21.918,21.918,0,0,1,.742,4.38C409.487,446.415,409.228,448,409.384,448.019Z" transform="translate(-176.791 -99.558)" fill="#263238"></path><path id="Path_6119" data-name="Path 6119" d="M412.2,442.465a7.88,7.88,0,0,0-3.621-.586,16.646,16.646,0,0,0-3.983.483,9.667,9.667,0,0,0-2.311.845,2.38,2.38,0,0,0-1.259,2.569,2.846,2.846,0,0,0,2.018,2.018,5.169,5.169,0,0,0,2.518,0,9.416,9.416,0,0,0,3.656-1.724,9.765,9.765,0,0,0,2.6-2.569,27.586,27.586,0,0,0-2.983,2.018,9.9,9.9,0,0,1-3.449,1.5,4.277,4.277,0,0,1-2.087,0,1.9,1.9,0,0,1-1.362-1.328,1.466,1.466,0,0,1,.828-1.569,8.31,8.31,0,0,1,2.035-.793,18.072,18.072,0,0,1,3.794-.655C410.788,442.4,412.168,442.621,412.2,442.465Z" transform="translate(-179.679 -94.574)" fill="#263238"></path><path id="Path_6120" data-name="Path 6120" d="M418.679,453.467a33.2,33.2,0,0,1,1.121-5.07,30.664,30.664,0,0,1,2.742-4.4A8.088,8.088,0,0,0,418.679,453.467Z" transform="translate(-167.118 -93.022)" fill="#263238"></path><path id="Path_6121" data-name="Path 6121" d="M395.81,451.007a10.073,10.073,0,0,0,2.173,1.035,52.108,52.108,0,0,0,6.242,1.931,89.843,89.843,0,0,0,21.452,2.035c8.415-.1,16-.483,21.5-.707l6.5-.345a14.194,14.194,0,0,0,2.38-.241,11.386,11.386,0,0,0-2.4-.121h-6.5l-21.487.414a100.547,100.547,0,0,1-21.3-1.724C399,452.2,395.879,450.818,395.81,451.007Z" transform="translate(-183.428 -87.958)" fill="#263238"></path><path id="Path_6122" data-name="Path 6122" d="M394.85,453.7c0,.121,1.6-.776,4.208-1.914a19.451,19.451,0,0,1,10.623-1.725,16.9,16.9,0,0,1,9.191,5.449,33.054,33.054,0,0,0,3.225,3.311,17.248,17.248,0,0,0-2.742-3.759,22.43,22.43,0,0,0-3.725-3.449,13.351,13.351,0,0,0-5.811-2.449,18.608,18.608,0,0,0-11.054,2.087A14.361,14.361,0,0,0,394.85,453.7Z" transform="translate(-184.123 -89.377)" fill="#263238"></path><path id="Path_6123" data-name="Path 6123" d="M388.962,427.72s-53.147,34.8-55.044,36.213c-2.863,2.156.414,12.451,5.38,10.674,2.345-.845,46.939-13.261,51.733-15.123s17.71-12.313,17.71-12.313Z" transform="translate(-229.037 -104.816)" fill="#ff725e"></path><path id="Path_6124" data-name="Path 6124" d="M360.253,447.338a12.433,12.433,0,0,0-9.553-8.708,48.884,48.884,0,0,1,5.363,3.725A52.163,52.163,0,0,1,360.253,447.338Z" transform="translate(-216.107 -96.912)" fill="#263238"></path><path id="Path_6125" data-name="Path 6125" d="M362.531,444.8a14.089,14.089,0,0,0-8.4-8.622c-.138.241,2.19,1.724,4.484,4S362.289,444.94,362.531,444.8Z" transform="translate(-213.625 -98.687)" fill="#263238"></path><path id="Path_6126" data-name="Path 6126" d="M364.924,443.3a10.47,10.47,0,0,0-7.484-9.295,40.915,40.915,0,0,1,4.5,4.087A37.8,37.8,0,0,1,364.924,443.3Z" transform="translate(-211.225 -100.259)" fill="#263238"></path><path id="Path_6127" data-name="Path 6127" d="M361.176,441.156c.138,0-.586-1.5-1.19-3.983a21.655,21.655,0,0,1-.638-4.4,19.381,19.381,0,0,1,0-2.621,2.156,2.156,0,0,1,.293-1.121.534.534,0,0,1,.724-.173c.6.241.914,1.276,1.207,2.1a13.32,13.32,0,0,1,.517,2.518,18.35,18.35,0,0,1-.138,4.432c-.362,2.518-.862,4.052-.724,4.1a11.177,11.177,0,0,0,1.38-4,16.448,16.448,0,0,0,.345-4.6,13,13,0,0,0-.5-2.725,11.447,11.447,0,0,0-.517-1.4A2.483,2.483,0,0,0,360.728,428a1.5,1.5,0,0,0-1.862.5,3.069,3.069,0,0,0-.431,1.586,19.346,19.346,0,0,0,.828,7.277A10.14,10.14,0,0,0,361.176,441.156Z" transform="translate(-210.546 -104.715)" fill="#263238"></path><path id="Path_6128" data-name="Path 6128" d="M359.89,436.219c0,.138,1.311-.483,3.449-1.017a19.2,19.2,0,0,1,3.811-.517,8.414,8.414,0,0,1,2.19.138,1.5,1.5,0,0,1,1.276,1.242,1.932,1.932,0,0,1-.914,1.725,4.366,4.366,0,0,1-1.966.655,9.537,9.537,0,0,1-3.742-.38,25.167,25.167,0,0,0-3.449-1.017,9.827,9.827,0,0,0,3.276,1.724,9.447,9.447,0,0,0,4.018.6,5,5,0,0,0,2.4-.759,2.794,2.794,0,0,0,1.328-2.518,2.38,2.38,0,0,0-1.983-2.069,9.231,9.231,0,0,0-2.449-.1,16.953,16.953,0,0,0-3.949.742,7.984,7.984,0,0,0-3.293,1.552Z" transform="translate(-209.45 -100.347)" fill="#263238"></path><path id="Path_6129" data-name="Path 6129" d="M342.872,459.313c0,.086.9-.534,1.311-2.052a7.968,7.968,0,0,0-1-5.777,22.181,22.181,0,0,0-1.724-2.656,10.34,10.34,0,0,0-1.811-1.931,3.136,3.136,0,0,0-1.724-.707c-.448,0-.673.086-.673.138a3.893,3.893,0,0,1,1.931,1.086,11.414,11.414,0,0,1,1.535,1.931,30.362,30.362,0,0,1,1.725,2.587,8.208,8.208,0,0,1,1.173,5.173A19.263,19.263,0,0,1,342.872,459.313Z" transform="translate(-225.851 -91.435)" fill="#263238"></path><path id="Path_6130" data-name="Path 6130" d="M354.333,448.819a6.5,6.5,0,0,0-1.88-5.087,6.4,6.4,0,0,0-4.673-2.742,30.281,30.281,0,0,1,3.949,3.345A30.775,30.775,0,0,1,354.333,448.819Z" transform="translate(-218.223 -95.203)" fill="#263238"></path><path id="Path_6131" data-name="Path 6131" d="M401.892,440.07a16.278,16.278,0,0,0-2.345,1.587,67.652,67.652,0,0,1-6.553,4.018,85.75,85.75,0,0,1-10.347,4.639c-4.035,1.5-8.622,2.914-13.313,4.294-9.571,2.759-18.227,5.277-24.47,7.156l-7.432,2.328a16.254,16.254,0,0,0-2.673.966,18.007,18.007,0,0,0,2.776-.6L345,462.367c6.294-1.724,14.968-4.139,24.539-6.9,4.777-1.4,9.312-2.845,13.347-4.4a79.012,79.012,0,0,0,10.433-4.863,52.577,52.577,0,0,0,6.449-4.311,16.881,16.881,0,0,0,2.121-1.828Z" transform="translate(-227.655 -95.869)" fill="#263238"></path><path id="Path_6132" data-name="Path 6132" d="M385.066,441.118a15.311,15.311,0,0,0-4.5-1.207,18.692,18.692,0,0,0-11.174,1.379,13.191,13.191,0,0,0-4.725,4.173,22.415,22.415,0,0,0-2.5,4.449,16.746,16.746,0,0,0-1.466,4.415,34.832,34.832,0,0,0,2.069-4.139,16.883,16.883,0,0,1,7.1-8,19.5,19.5,0,0,1,10.657-1.535C383.29,440.877,385.032,441.256,385.066,441.118Z" transform="translate(-208.863 -96.21)" fill="#263238"></path><path id="Path_6133" data-name="Path 6133" d="M492.966,379.707s15.951,5.691,16,23.573c.138,34.23-69.185,71.978-69.185,71.978l-92.258-61.114L341.75,411.8S466.341,365.033,492.966,379.707Z" transform="translate(-222.591 -141.663)" fill="#263238"></path><path id="Path_6134" data-name="Path 6134" d="M372.2,436.548a17.059,17.059,0,0,0,2.414-1.621c1.5-1.1,3.656-2.725,6.294-4.777,5.294-4.07,12.468-9.864,20.21-16.5s14.537-12.864,19.365-17.469c2.414-2.293,4.346-4.19,5.673-5.518a16.267,16.267,0,0,0,1.966-2.121A16.849,16.849,0,0,0,425.9,390.4l-5.863,5.294c-4.949,4.466-11.812,10.623-19.538,17.244s-14.83,12.485-19.986,16.693l-6.122,5a18.258,18.258,0,0,0-2.19,1.914Z" transform="translate(-200.532 -133.199)" fill="#455a64"></path><path id="Path_6135" data-name="Path 6135" d="M421.4,385.983a22.919,22.919,0,0,0-16.8,4.949c.155.259,3.449-1.9,8.174-3.242S421.4,386.277,421.4,385.983Z" transform="translate(-177.06 -135.144)" fill="#455a64"></path><path id="Path_6136" data-name="Path 6136" d="M413.236,382.8a14.106,14.106,0,0,0-8.346,10.347c.276,0,1.276-2.776,3.6-5.622S413.392,383.041,413.236,382.8Z" transform="translate(-176.85 -137.358)" fill="#455a64"></path><path id="Path_6137" data-name="Path 6137" d="M434.544,445.719c0-.1-1.1-.328-2.38.724a8.484,8.484,0,0,0-2.656,5.346,10.5,10.5,0,0,0,.828,5.915c.655,1.4,1.38,2.052,1.466,1.983a16.62,16.62,0,0,0-.845-2.242,11.916,11.916,0,0,1-.517-5.518,9.242,9.242,0,0,1,2.173-5C433.6,445.909,434.562,445.874,434.544,445.719Z" transform="translate(-159.1 -91.844)" fill="#263238"></path><path id="Path_6138" data-name="Path 6138" d="M491.458,346.06l-32.851,83.29-141.456,2.311L314.53,424l49.578-1.793,23.832-73.892Z" transform="translate(-242.31 -163.974)" fill="#455a64"></path><path id="Path_6139" data-name="Path 6139" d="M379.956,367.282a6.311,6.311,0,0,1,6.811.741,5.466,5.466,0,0,1,1.328,6.018,5.949,5.949,0,0,1-5.173,3.57,5.38,5.38,0,0,1-5.415-3.57,6.087,6.087,0,0,1,2.38-6.76" transform="translate(-196.872 -149.086)" fill="#ebebeb"></path><path id="Path_6140" data-name="Path 6140" d="M488.835,476.17S358.5,390.672,353.191,388.9s-18.245-10.226-31.126-6.674-24.47,15.123-30.247,32.023c-3.311,9.657-4.863,26.125-5.6,38.489a57.166,57.166,0,0,0,13.364,40.7,36.368,36.368,0,0,0,16.244,11.537c1.362.431,2.776.793,4.225,1.1,24.642,5.346,50.009-5.725,63.8-26.8l3.035-4.622s85.274,31.316,86.6,30.885Z" transform="translate(-262.916 -138.401)" fill="#263238"></path><path id="Path_6141" data-name="Path 6141" d="M310.16,450.241a7.283,7.283,0,0,0,.707.31l2.138.845,8.26,3.19,30.712,11.571c13.037,4.863,28.66,10.657,46.2,17.037s36.955,13.365,57.717,20.383l.362.138.19-.362L466.636,483.9l5.173-9.915.19-.379-.362-.224-99.414-63.115-29.867-18.831-8.1-5.07-2.121-1.293c-.483-.293-.742-.414-.742-.414l.69.5,2.069,1.362,8.019,5.173,29.8,19.124,99.259,63.356-.173-.621c-1.638,3.156-3.449,6.518-5.173,9.916L455.7,502.922l.569-.224c-20.693-7-40.179-13.968-57.734-20.3l-46.267-16.831-30.885-11.347-8.312-3.035-2.173-.759Z" transform="translate(-245.476 -136.01)" fill="#455a64"></path><path id="Path_6142" data-name="Path 6142" d="M327.985,251.111c2.225-6.018,7.139-8.622,13.364-10.122a19.969,19.969,0,0,1,17.882,4.6c3.156,2.88,5.467,6.9,9.364,8.622,6.432,2.914,14.658-1.345,20.693,2.225a9.105,9.105,0,0,1-5.863,16.865c4.19,1.966,4.966,8.277,2.087,11.9s-8.208,4.6-12.675,3.345a25.591,25.591,0,0,1-11.3-7.777c-3.139-3.449-5.9-7.156-9.312-10.347a19.813,19.813,0,0,0-12.278-5.829c-6.26-.241-12.071,3.983-15.33,9.312s-4.518,11.657-5.432,17.865-1.6,12.519-4,18.314c-.276.69-.69,1.431-1.4,1.586-1.052.224-1.811-.931-2.225-1.914a91.861,91.861,0,0,1-7.346-35.006c-.086-6.9.707-13.5,5.035-18.969s14.313-8.864,18.676-4.759" transform="translate(-249.782 -240.468)" fill="#263238"></path><path id="Path_6143" data-name="Path 6143" d="M313.589,275.464,304,345.1a20.917,20.917,0,0,0,18.969,23.677h0a20.935,20.935,0,0,0,22.556-18.02c.707-5.173,1.311-9.605,1.431-10.14,0,0,17.951.776,21.642-16.589,1.725-8.4,4.052-25.987,5.932-41.921a33.075,33.075,0,0,0-26.384-36.213l-1.724-.328C328.057,242.941,315.641,257.081,313.589,275.464Z" transform="translate(-250.078 -237.006)" fill="#ffbe9d"></path><path id="Path_6144" data-name="Path 6144" d="M337.81,305.054A41.387,41.387,0,0,1,316.41,294s2.862,13.589,20.538,15.52Z" transform="translate(-240.948 -201.688)" fill="#eb996e"></path><g id="Group_4688" data-name="Group 4688" transform="translate(82.626 34.533)"><path id="Path_6145" data-name="Path 6145" d="M342.582,273.974a2.518,2.518,0,0,1-2.9,2.018,2.4,2.4,0,0,1-2.1-2.742,2.518,2.518,0,0,1,2.9-2.035,2.414,2.414,0,0,1,2.1,2.759Z" transform="translate(-308.257 -252.753)" fill="#263238"></path><path id="Path_6146" data-name="Path 6146" d="M345.765,272.718c-.379.276-1.983-1.5-4.656-2.035s-4.915.431-5.173,0,.328-.69,1.311-1.138a6.76,6.76,0,0,1,4.173-.431,6.6,6.6,0,0,1,3.621,2.018C345.782,271.959,345.937,272.615,345.765,272.718Z" transform="translate(-309.473 -254.36)" fill="#263238"></path><path id="Path_6147" data-name="Path 6147" d="M327.267,271.451a2.518,2.518,0,0,1-2.9,2.035,2.449,2.449,0,0,1-2.121-2.759,2.569,2.569,0,0,1,2.9-2.035,2.432,2.432,0,0,1,2.121,2.759Z" transform="translate(-319.36 -254.576)" fill="#263238"></path><path id="Path_6148" data-name="Path 6148" d="M330.455,269.973c-.38.259-1.983-1.518-4.656-2.052s-4.915.431-5.173,0,.328-.69,1.311-1.138a6.965,6.965,0,0,1,7.812,1.587C330.472,269.3,330.627,269.852,330.455,269.973Z" transform="translate(-320.565 -256.357)" fill="#263238"></path><path id="Path_6149" data-name="Path 6149" d="M329.63,290.469a17.334,17.334,0,0,1,4.5.086c.707,0,1.38,0,1.586-.4a3.447,3.447,0,0,0,0-2.1c-.31-1.724-.638-3.656-.983-5.622-1.328-7.967-2.138-14.451-1.828-14.5s1.725,6.363,2.983,14.33c.31,1.966.621,3.828.9,5.622a3.966,3.966,0,0,1-.19,2.759,1.724,1.724,0,0,1-1.311.759,4.248,4.248,0,0,1-1.19,0,18.314,18.314,0,0,1-4.466-.931Z" transform="translate(-313.997 -255.107)" fill="#263238"></path><path id="Path_6150" data-name="Path 6150" d="M325.192,281.182c.448,0-.138,2.966,1.931,5.518s5.173,2.863,5.173,3.276-.793.414-2.1.19a7.432,7.432,0,0,1-4.363-2.552,6.466,6.466,0,0,1-1.431-4.6C324.537,281.768,325,281.113,325.192,281.182Z" transform="translate(-317.802 -245.511)" fill="#263238"></path><path id="Path_6151" data-name="Path 6151" d="M333.14,263.746c-.4.69-3-.19-6.225-.448s-5.915.1-6.208-.638c-.121-.345.466-.931,1.621-1.431a10.518,10.518,0,0,1,4.828-.69,10.346,10.346,0,0,1,4.656,1.518C332.864,262.746,333.295,263.436,333.14,263.746Z" transform="translate(-320.473 -260.494)" fill="#263238"></path><path id="Path_6152" data-name="Path 6152" d="M345.715,268.154c-.586.517-2.293-.483-4.518-.966s-4.173-.4-4.466-1.121c-.138-.345.276-.9,1.224-1.311a6.4,6.4,0,0,1,3.88-.259,6.226,6.226,0,0,1,3.363,1.949C345.836,267.223,345.991,267.9,345.715,268.154Z" transform="translate(-308.872 -257.729)" fill="#263238"></path></g><path id="Path_6153" data-name="Path 6153" d="M314.472,271.057c-.276-.19-11.261-5.932-13.261,6.053s10.45,11.519,10.519,11.174S314.472,271.057,314.472,271.057Z" transform="translate(-252.116 -219.424)" fill="#ffbe9d"></path><path id="Path_6154" data-name="Path 6154" d="M307.561,281.576a3.127,3.127,0,0,1-.6.224,2.156,2.156,0,0,1-1.569-.224,5.173,5.173,0,0,1-1.621-5.035,6.9,6.9,0,0,1,1.086-2.9,2.466,2.466,0,0,1,1.776-1.4,1.087,1.087,0,0,1,1.138.793,1.006,1.006,0,0,1,0,.6c0,.017.293-.155.276-.655a1.362,1.362,0,0,0-.345-.828,1.517,1.517,0,0,0-1.1-.5,2.966,2.966,0,0,0-2.483,1.483,7.277,7.277,0,0,0-1.293,3.225c-.328,2.431.535,4.9,2.19,5.674a2.259,2.259,0,0,0,1.966,0C307.492,281.869,307.6,281.61,307.561,281.576Z" transform="translate(-250.844 -217.872)" fill="#eb996e"></path><path id="Path_6155" data-name="Path 6155" d="M375.843,280.364a25.659,25.659,0,0,1-21.331-9.484c-3.449-4.449-5.742-10.26-10.726-12.951a14.468,14.468,0,0,0-11.123-.69,28.09,28.09,0,0,0-9.691,5.9c1.586,9.519-2.639,18.969-6.76,27.591a4.811,4.811,0,0,1-1.949,2.466c-1.621.811-3.552-.466-4.535-2A15.038,15.038,0,0,1,308,282.8a50.2,50.2,0,0,1,3.966-19.279,34.023,34.023,0,0,1,12.537-15,32.23,32.23,0,0,1,23.815-3.949A39.662,39.662,0,0,1,369.2,257.1a23.3,23.3,0,0,1,5.639,9.881" transform="translate(-247.079 -238.061)" fill="#263238"></path></g></g><g id="Group_5035" data-name="Group 5035" transform="translate(383 441.009)"><rect id="Rectangle_119" data-name="Rectangle 119" width="20.616" height="62.573" rx="1.096" transform="translate(659.066 331.991)" fill="#fbf6f6"></rect><g id="Group_81" data-name="Group 81"><path id="Path_32" data-name="Path 32" d="M675.795,344.414a6.421,6.421,0,1,1-6.421-6.421A6.421,6.421,0,0,1,675.795,344.414Z" fill="#dbd6d2"></path><g id="Group_80" data-name="Group 80"><rect id="Rectangle_120" data-name="Rectangle 120" width="1.5" height="3.833" transform="translate(666.041 342.498)" fill="#8e8b88"></rect><rect id="Rectangle_121" data-name="Rectangle 121" width="1.5" height="3.833" transform="translate(671.207 342.498)" fill="#8e8b88"></rect></g></g><g id="Group_83" data-name="Group 83"><path id="Path_33" data-name="Path 33" d="M675.795,363.278a6.421,6.421,0,1,1-6.421-6.421A6.421,6.421,0,0,1,675.795,363.278Z" fill="#dbd6d2"></path><g id="Group_82" data-name="Group 82"><rect id="Rectangle_122" data-name="Rectangle 122" width="1.5" height="3.833" transform="translate(666.041 361.361)" fill="#8e8b88"></rect><rect id="Rectangle_123" data-name="Rectangle 123" width="1.5" height="3.833" transform="translate(671.207 361.361)" fill="#8e8b88"></rect></g></g><g id="Group_85" data-name="Group 85"><path id="Path_34" data-name="Path 34" d="M675.795,382.142a6.421,6.421,0,1,1-6.421-6.422A6.421,6.421,0,0,1,675.795,382.142Z" fill="#dbd6d2"></path><g id="Group_84" data-name="Group 84"><rect id="Rectangle_124" data-name="Rectangle 124" width="1.5" height="3.833" transform="translate(666.041 380.225)" fill="#8e8b88"></rect><rect id="Rectangle_125" data-name="Rectangle 125" width="1.5" height="3.833" transform="translate(671.207 380.225)" fill="#8e8b88"></rect></g></g></g><g id="Group_110" data-name="Group 110" transform="translate(583 458)" opacity="0.19" style="mix-blend-mode: luminosity;isolation: isolate"><rect id="Rectangle_146" data-name="Rectangle 146" width="117.48" height="58.5" transform="translate(368.486 156.638)" fill="#ffdf56"></rect><rect id="Rectangle_147" data-name="Rectangle 147" width="6.167" height="15.031" transform="translate(392.819 147.107)" fill="#f7675c"></rect><rect id="Rectangle_148" data-name="Rectangle 148" width="6.167" height="15.031" transform="translate(460.819 147.107)" fill="#f7675c"></rect><rect id="Rectangle_149" data-name="Rectangle 149" width="15.5" height="15.5" transform="translate(383.486 170.305)" fill="#fff8f3"></rect><rect id="Rectangle_150" data-name="Rectangle 150" width="15.5" height="15.5" transform="translate(383.486 189.305)" fill="#edcc40"></rect><rect id="Rectangle_151" data-name="Rectangle 151" width="15.5" height="15.5" transform="translate(403.486 170.305)" fill="#edcc40"></rect><rect id="Rectangle_152" data-name="Rectangle 152" width="15.5" height="15.5" transform="translate(403.486 189.305)" fill="#fff8f3"></rect><g id="Group_109" data-name="Group 109"><g id="Group_103" data-name="Group 103"><rect id="Rectangle_153" data-name="Rectangle 153" width="49.263" height="2" transform="translate(425.224 170.305)" fill="#edcc40"></rect></g><g id="Group_104" data-name="Group 104"><rect id="Rectangle_154" data-name="Rectangle 154" width="49.263" height="2" transform="translate(425.224 176.472)" fill="#edcc40"></rect></g><g id="Group_105" data-name="Group 105"><rect id="Rectangle_155" data-name="Rectangle 155" width="49.263" height="2" transform="translate(425.224 182.638)" fill="#edcc40"></rect></g><g id="Group_106" data-name="Group 106"><rect id="Rectangle_156" data-name="Rectangle 156" width="49.263" height="2" transform="translate(425.224 188.805)" fill="#edcc40"></rect></g><g id="Group_107" data-name="Group 107"><rect id="Rectangle_157" data-name="Rectangle 157" width="49.263" height="2" transform="translate(425.224 194.972)" fill="#edcc40"></rect></g><g id="Group_108" data-name="Group 108"><rect id="Rectangle_158" data-name="Rectangle 158" width="49.263" height="2" transform="translate(425.224 201.138)" fill="#edcc40"></rect></g></g></g><rect id="Rectangle_1373" data-name="Rectangle 1373" width="115.994" height="168.136" transform="translate(1565.494 391.261)" fill="#e0e0e0"></rect><rect id="Rectangle_1374" data-name="Rectangle 1374" width="115.994" height="168.136" transform="translate(1559.686 391.261)" fill="#f5f5f5"></rect><rect id="Rectangle_1375" data-name="Rectangle 1375" width="87.177" height="131.712" transform="translate(1574.094 409.473)" fill="#fff"></rect><path id="Path_11078" data-name="Path 11078" d="M148.072,202.428V192.69c0-6.31,0-15.513-.08-27.13,0-23.224-.091-56.117-.148-94.843l.3.285H60.974l.319-.319c0,49.682,0,95.5-.068,131.711l-.251-.251,63.453.137,17.529.057h.057l-17.472.068-63.612.125h-.251v-.251c0-36.208,0-82.006-.068-131.712V70.25h87.781v.285c-.057,38.805-.1,71.756-.137,95.036,0,11.595-.068,20.764-.08,27.062v9.009A3.139,3.139,0,0,1,148.072,202.428Z" transform="translate(1513.198 338.756)" fill="#e0e0e0"></path><rect id="Rectangle_1376" data-name="Rectangle 1376" width="29.192" height="82.872" transform="translate(1604.914 436.217)" fill="#e0e0e0"></rect><g id="Group_4390" data-name="Group 4390" transform="translate(1261.683 276.939)"><g id="Layer_11" data-name="Layer 11" transform="translate(63.368 45.886)"><path id="Path_1" data-name="Path 1" d="M196.935,151.527l.941.441a2.036,2.036,0,0,1,.881.968c.648-.162.486-.486.162-.972-.162-.324-.486-.486-.648-.648a9.573,9.573,0,0,0-2.268-.972,1.558,1.558,0,0,1-1.3-1.458c-.162-1.134-.324-2.43-.486-3.565-.162-1.944-.648-4.05-.648-5.994,0-.162,0-.324-.162-.324-.486-.162-.648.324-.81.486V141.6c0,.162.486,3.4.486,3.565.162.486.486,4.212.648,4.861a14.358,14.358,0,0,0-1.458,1.458c0,.162-.486.648-.324.81.324,0,.324-.324.486-.486a4.589,4.589,0,0,1,.7-.521,3.022,3.022,0,0,1,.575-.314,1.22,1.22,0,0,1,.979.022,3.655,3.655,0,0,1,.833.58c.175.15.346.305.515.462.113.1.237.2.341.309a1.757,1.757,0,0,1,.231.4,1.612,1.612,0,0,0,.686.684,2.414,2.414,0,0,0-.648-1.458c-.049-.074-.163-.113-.156-.225s.113-.151.2-.167Z" transform="translate(-191.919 -138.97)" fill="#474748"></path></g><g id="Layer_10" data-name="Layer 10" transform="translate(55.774 45.886)"><path id="Path_2" data-name="Path 2" d="M173.935,151.527l.941.441a2.036,2.036,0,0,1,.881.968c.648-.162.486-.486.162-.972-.162-.324-.486-.486-.648-.648a9.574,9.574,0,0,0-2.268-.972,1.558,1.558,0,0,1-1.3-1.458c-.162-1.134-.324-2.43-.486-3.565-.162-1.944-.648-4.05-.648-5.994,0-.162,0-.324-.162-.324-.486-.162-.648.324-.81.486V141.6c0,.162.486,3.4.486,3.565.162.486.486,4.212.648,4.861a14.359,14.359,0,0,0-1.458,1.458c0,.162-.486.648-.324.81.324,0,.324-.324.486-.486a4.6,4.6,0,0,1,.7-.521,3.023,3.023,0,0,1,.575-.314,1.22,1.22,0,0,1,.979.022,3.653,3.653,0,0,1,.833.58c.175.15.346.305.515.462.113.1.237.2.341.309a1.76,1.76,0,0,1,.231.4,1.611,1.611,0,0,0,.686.684,2.414,2.414,0,0,0-.648-1.458c-.049-.074-.163-.113-.155-.225s.113-.151.2-.167Z" transform="translate(-168.919 -138.97)" fill="#474748"></path></g><g id="wing" transform="translate(34.269 9.021)"><g id="Layer_9" data-name="Layer 9"><g id="Group_1" data-name="Group 1"><path id="Path_3-2" data-name="Path 3" d="M109.8,44.758c-1.145-2.149-2.7-4.042-3.8-6.415a21.257,21.257,0,0,1-2.214-8.163c-.063-2.25,1-3.295,3.1-2.689a4.306,4.306,0,0,1,1.2.4,8.512,8.512,0,0,0,2.711.985,16.383,16.383,0,0,0,3.158,1.09c1.064.483,2.231.52,2.968,1.4.119.5.684,1.1,0,1.528a1.428,1.428,0,0,0-.554,1.871,6.655,6.655,0,0,0,.8,1.6,1.155,1.155,0,0,1,.1,1.082c-.878.737-.588,1.51-.074,2.336a13.928,13.928,0,0,0,1.506,2.116,2.059,2.059,0,0,1,.376.911c-.279,1.7.577,3.075,1.57,4.366a1.554,1.554,0,0,1,.443,1.633,1.633,1.633,0,0,0,.357,1.495c.547,1.186,1.729,2.168,2.414,3.269-.431.841-1,.238-1.443.134a29.582,29.582,0,0,1-8.353-4.536,13.713,13.713,0,0,1-2-2Z" transform="translate(-103.787 -27.321)" fill="#e85396"></path><path id="Path_4-2" data-name="Path 4" d="M163.674,53.707a8.853,8.853,0,0,1-6.065,8.349,14.8,14.8,0,0,1-9.171-.021c-.309-.19-.67-.156-.7-.517a23.148,23.148,0,0,1-2.894-3.734,1.191,1.191,0,0,1-.134-1.443c.379-.617-.015-.945-.271-1.357-1.079-1.428-2.295-2.77-1.741-4.641a.493.493,0,0,0-.342-.55,13.176,13.176,0,0,1-2.02-2.942c-.342-.55-.409-1.272,0-1.528.963-.6.346-.978.141-1.614a5.753,5.753,0,0,1-.58-1.547c-.067-.721-.22-1.581.777-1.819.5-.119.55-.342.294-.755-.171-.275-.257-.413-.2-.636,4.53,1.763,8.974,3.387,13.608,4.7s8.2,3.677,8.978,8.917A1.073,1.073,0,0,1,163.674,53.707Z" transform="translate(-127.941 -35.112)" fill="url(#linear-gradient-3)"></path></g></g></g><g id="Layer_5" data-name="Layer 5" transform="translate(0 0.513)"><g id="Group_2" data-name="Group 2"><path id="Path_5-2" data-name="Path 5" d="M12.635,35.69A39.659,39.659,0,0,1,2.428,27.913,8.393,8.393,0,0,1,.159,24.349c-.486-1.458.162-2.268,1.62-2.106a6.787,6.787,0,0,1,2.43.648,3.666,3.666,0,0,1,2.43,1.62c2.43,2.268,5.023,4.537,7.615,6.643a92.381,92.381,0,0,0,13.474,8.915c.324.162.991.5.991.991-.324.324-.207.626-.045,1.112s1.035.714,1.035,1.2A114.772,114.772,0,0,1,12.635,35.69Z" transform="translate(0 -15.398)" fill="#e85396"></path><path id="Path_6-2" data-name="Path 6" d="M39.355,22.819A149.933,149.933,0,0,1,20.885,7.751a1.308,1.308,0,0,1-.648-1.458,6.793,6.793,0,0,1-.648-2.43c-.162-1.782.972-2.754,2.754-2.106.486.162.972.486,1.458.648a11.782,11.782,0,0,1,3.24,3.078c3.079,3.564,5.995,6.967,9.235,10.369s6.481,6.967,10.531,9.559c-.162.81-.81.648-1.458.648A21.514,21.514,0,0,1,39.355,22.819Z" transform="translate(-13.111 -1.555)" fill="#e85396"></path><path id="Path_7-2" data-name="Path 7" d="M35.981,35c-2.43-1.458-4.861-2.917-7.129-4.375a101.435,101.435,0,0,1-10.693-7.939c-2.268-1.944-4.212-4.212-6.643-5.671.648-.162.162-.486,0-.648a9.906,9.906,0,0,1-.81-1.944c-.162-.81.162-.972.972-.972a2.879,2.879,0,0,1,1.62.648c.324.162.486.648.972.324A8.9,8.9,0,0,0,15.4,15.881c3.24,2.754,6.319,5.671,9.721,8.263a86.285,86.285,0,0,0,9.883,7.291c1.458.972,3.078,1.944,4.537,2.754C38.249,34.675,37.115,34.514,35.981,35Z" transform="translate(-7.144 -9.523)" fill="#e98c23"></path></g></g><g id="Layer_4" data-name="Layer 4" transform="translate(28.223 0)"><g id="Group_3" data-name="Group 3"><path id="Path_8" data-name="Path 8" d="M86.3,29.476c-.66-1.321-1.3-2.5-.33-3.632.972-.648,2.385-.5,3.357-.988a2.614,2.614,0,0,0,1.458-.486c.324,0,.486.324.81.162a23.916,23.916,0,0,0,4.375-1.62,24.468,24.468,0,0,0,4.7-2.106,70.3,70.3,0,0,0,13.609-10.369c2.754-2.592,5.671-5.347,9.235-7.129a31.3,31.3,0,0,1,11.5-3.24c4.212-.324,7.939.486,11.017,3.4,2.754,2.592,4.374,5.833,5.833,9.235-.324.324-.972.486-1.3.972a7.412,7.412,0,0,1-2.754,2.268,5.882,5.882,0,0,1-2.106-3.079,9.786,9.786,0,0,0-3.888-4.212C137.451,6.386,133.4,7.2,129.512,9.788a6.234,6.234,0,0,0-2.754,3.889,4.482,4.482,0,0,0-.162,1.458c0,2.916.162,5.995-.81,8.749-.324.486-.81.162-1.134,0a9.3,9.3,0,0,0-4.7-.324,16.82,16.82,0,0,0-6.643,3.726c-3.24,2.917-6.8,5.185-10.207,7.777-.324.162-.486.972-.81.972-.972.648-1.782,1.3-2.754,1.944-.81.486-1.134,1.458-1.944,1.782,0-.162-.724-.05-2.706-1.04,0,0-4.369-2.407-5.613-3.962A33.52,33.52,0,0,1,86.3,29.476Z" transform="translate(-85.477 0)" fill="#ea8c23"></path><path id="Path_9" data-name="Path 9" d="M280.893,39.526c.486.324.972.486,1.458.81.486.162.486.486.162.81h0a19.305,19.305,0,0,1-5.671,3.078,2.762,2.762,0,0,1-1.134.162c-1.134-.648-2.106-1.458-1.944-2.916.162-.162.324-.486.486-.486a4.469,4.469,0,0,0,2.268-1.944,1.308,1.308,0,0,1,1.458-.648Z" transform="translate(-211.583 -25.687)" fill="#552618"></path><path id="Path_10" data-name="Path 10" d="M142.34,56.12a9.612,9.612,0,0,1,2.682-.557c1.512-.14,3.025-.244,4.541-.326a.98.98,0,0,0,.461-.1c.565-.343.609-2.489.668-3.1.114-1.171.03-2.315.03-3.485,0-.324-.037-.55.321-.492a43.458,43.458,0,0,0,3.244,3.085,11.318,11.318,0,0,0,6.643,2.268c2.268.162,4.375.324,6.643.324a10.166,10.166,0,0,1,3.078.486c1.3.324,1.74.83,1.577,2.156-.059.482-.442.76-.442,1.084a27.291,27.291,0,0,1-7.453,13.934,28.368,28.368,0,0,1-10.265,6.774,38.785,38.785,0,0,1-4.965,1.165,28.292,28.292,0,0,1-7.582.156,38.8,38.8,0,0,1-8.134-2.1c-14.717-4.261-13.346-5.426-8.363-8.781,2.707-1.822,5.271-3.848,7.907-5.772,1.691-1.234,3.39-2.455,5.078-3.692C139.42,58.109,140.684,56.768,142.34,56.12Z" transform="translate(-109.656 -32.184)" fill="#fdcfa2"></path><path id="Path_11" data-name="Path 11" d="M210.088,27.586a5.585,5.585,0,0,1,2.268-3.4,12.873,12.873,0,0,1,8.911-2.917,9.054,9.054,0,0,1,6.643,3.24c1.458,1.62,1.944,3.889,3.4,5.347a4.831,4.831,0,0,0,1.944,2.754c.162.324-.162.324-.162.486v.162a1.618,1.618,0,0,0-.648.81,15.41,15.41,0,0,0-1.134,3.889c.162-.972-.324-1.458-1.3-1.62-2.916-.81-5.833-.162-8.749-.486a18.482,18.482,0,0,1-5.012-1.054c-1.134-.486-.847-.5-1.981-.991a10.04,10.04,0,0,1-1.981-1.321,13.165,13.165,0,0,0-1.321-.991,2.43,2.43,0,0,1-.99-1.321v-.991Z" transform="translate(-168.873 -14.233)" fill="#ebe1c8"></path></g></g><g id="Layer_3" data-name="Layer 3" transform="translate(77.604 9.788)"><g id="Group_4" data-name="Group 4"><path id="Path_12" data-name="Path 12" d="M235.035,33.856a4.238,4.238,0,0,1,3.889-4.212h.162a4.051,4.051,0,0,1,4.212,4.051,3.957,3.957,0,0,1-4.05,4.212A3.87,3.87,0,0,1,235.035,33.856Z" transform="translate(-235.035 -29.644)" fill="#fdfdfd"></path><path id="Path_13" data-name="Path 13" d="M243.03,36.693c.81-.81.162-1.62-.162-2.268a2.836,2.836,0,0,1,3.564,2.268,2.867,2.867,0,0,1-2.592,3.078c-1.62.162-2.916-1.134-2.916-3.24C241.572,37.017,242.22,37.342,243.03,36.693Z" transform="translate(-238.98 -32.805)" fill="#252122"></path></g></g><g id="Layer_8" data-name="Layer 8" transform="translate(34.15 9.884)"><g id="Group_5" data-name="Group 5"><path id="Path_14" data-name="Path 14" d="M109.629,47.319c-1.173-2.135-2.755-4.008-3.879-6.366a21.258,21.258,0,0,1-2.317-8.134c-.092-2.249.962-3.307,3.063-2.728a4.308,4.308,0,0,1,1.206.383,8.511,8.511,0,0,0,2.724.951,16.368,16.368,0,0,0,3.171,1.049c1.069.47,2.238.492,2.985,1.36.125.5.7,1.092.016,1.528a1.428,1.428,0,0,0-.53,1.877,6.654,6.654,0,0,0,.823,1.589,1.154,1.154,0,0,1,.114,1.081c-.868.748-.568,1.518-.045,2.336a13.936,13.936,0,0,0,1.533,2.1,2.057,2.057,0,0,1,.387.906c-.257,1.7.615,3.068,1.625,4.346a1.554,1.554,0,0,1,.463,1.627c-.235.535.114,1.081.376,1.49.562,1.179,1.757,2.146,2.455,3.238-.421.846-.994.251-1.441.153a29.585,29.585,0,0,1-8.41-4.43,13.716,13.716,0,0,1-2.03-1.971Z" transform="translate(-103.428 -29.934)" fill="#e85396"></path><path id="Path_15" data-name="Path 15" d="M163.594,56.053a5.46,5.46,0,0,1-.224,1.628,8.685,8.685,0,0,1-1.237,2.884,9.351,9.351,0,0,1-4.485,3.473,14.8,14.8,0,0,1-9.17.095c-.311-.186-1.1-.131-1.139-.491a20.742,20.742,0,0,1-2.511-3.714,1.191,1.191,0,0,1-.153-1.441c.371-.622-.027-.945-.289-1.354-1.1-1.414-2.33-2.741-1.8-4.619a.493.493,0,0,0-.349-.546,13.176,13.176,0,0,1-2.057-2.916c-.349-.546-.425-1.267-.016-1.528.956-.611.333-.982.121-1.616a5.747,5.747,0,0,1-.6-1.54c-.076-.72-.24-1.578.754-1.828.5-.125.546-.349.284-.759-.175-.273-.262-.409-.213-.633,4.552,1.705,9.016,3.273,13.666,4.531A15.472,15.472,0,0,1,159.7,48.22a9.4,9.4,0,0,1,3.275,4.921A22.963,22.963,0,0,1,163.594,56.053Z" transform="translate(-127.675 -37.447)" fill="url(#linear-gradient-4)"></path><path id="Path_16" data-name="Path 16" d="M131.631,80.032a28.021,28.021,0,0,0,4.617,3.009c.224.049.622.371.436.682s-.448-.1-.671-.148l-2.8-1.671a12.525,12.525,0,0,1-3.449-2.987C130.708,78.891,131.008,79.66,131.631,80.032Z" transform="translate(-121.068 -62.744)" fill="#66c7e2"></path><path id="Path_17" data-name="Path 17" d="M125.786,44.5a.3.3,0,0,1,.262.409c-.186.311-.36.038-.584-.011a16.92,16.92,0,0,1-5.042-4.276A40.514,40.514,0,0,0,125.786,44.5Z" transform="translate(-114.811 -37.096)" fill="#62c5e0"></path><path id="Path_18" data-name="Path 18" d="M131.879,63.132a15.366,15.366,0,0,1-4.868-4C128.468,60.505,130.2,61.707,131.879,63.132Z" transform="translate(-119.224 -49.489)" fill="#6bcbe6"></path><path id="Path_19" data-name="Path 19" d="M167.267,72.814c.1-.447.284-.758-.2-1.217-.835-1-1.893-2.058-1.734-3.314.071-1.392-.589-2.123-1.063-3.166-.349-.546-.824-1.589-.365-2.075.868-.748.432-1.43,0-2.112.437.683,1.37,1.24.365,2.075a.872.872,0,0,0-.11,1.031c.436.682.6,1.54,1.309,2.047.4.322.884.781.289,1.354-.136.087-.011.584-.06.808a5.951,5.951,0,0,0,1.434,2.544c.486.459.971.917.327,1.714C167.354,72.95,167.218,73.037,167.267,72.814Z" transform="translate(-143.808 -50.695)" fill="#5dbddd"></path><path id="Path_20" data-name="Path 20" d="M183.318,73.529l-.136.087c.382-1.206-.141-2.025-.752-2.981a1.972,1.972,0,0,1-.365-2.074c.235-.535.284-.759-.251-.994l-.262-.41c-.087-.136-.262-.409.011-.584.251.993,1.867,1.114.85,2.533l-.049.224a4.247,4.247,0,0,0,1.036,2.222c.8.644.786,1.228-.083,1.976Z" transform="translate(-155.666 -54.476)" fill="#5cbcdb"></path></g></g></g></g></svg>