<svg width="530" height="430" viewBox="0 0 530 430" fill="none" xmlns="http://www.w3.org/2000/svg">
<rect width="530" height="430" fill="white"/>
<path d="M233.385 184.27V185.44H236.342L239.181 182.867V180.878L240.009 179.943L239.181 178.305H236.342L235.159 179.943L233.385 180.878L234.213 182.867L233.385 184.27Z" fill="#0275d8"/>
<path d="M214.936 150.235L212.807 152.457L214.936 153.393L213.871 154.914L215.764 157.955H219.431L223.453 156.902L227.238 154.212L226.41 151.054L223.453 150.235L220.614 151.054L217.183 152.457L216.592 151.638L214.936 150.235Z" fill="#0275d8"/>
<path d="M313.943 278.664L320.804 273.518L322.934 277.027L320.804 278.664L317.729 290.361H313.943L312.051 286.852L313.943 283.577V278.664Z" fill="#0275d8"/>
<path d="M424.665 303.811L419.342 302.642L418.159 297.729L416.385 292.817L416.976 287.904L418.159 285.682L426.44 282.173L429.988 279.599L434.247 275.856L436.258 275.155L437.086 277.143H439.333L441.699 272.581L443.237 273.517L444.538 272.581L451.044 273.517L448.797 276.558L452.937 278.897L455.894 278.313L459.561 273.517L464.056 278.313L464.766 281.237L474.821 291.413V297.261L471.508 302.642L470.207 308.022H467.487L465.357 309.543L462.518 308.958H457.787L452.937 304.864L451.044 302.057L448.797 302.642L442.527 299.016L436.258 299.601L431.053 302.057L424.665 303.811Z" fill="#0275d8"/>
<path d="M397.339 255.853L390.123 251.876L396.511 260.064L401.716 264.508H404.318V262.403L400.651 258.192L397.339 255.853Z" fill="#0275d8"/>
<path d="M412.953 256.441H410.232V259.131L412.953 262.64H415.91L419.459 263.342L423.481 256.441L421.943 254.219L423.481 253.166V251.412L420.76 250.71L417.566 251.996L412.953 256.441Z" fill="#0275d8"/>
<path d="M405.853 265.801L403.724 266.62L408.928 268.14L413.069 269.076H418.273L415.553 268.14L416.499 267.205H414.252L405.853 265.801Z" fill="#0275d8"/>
<path d="M445.836 258.666L442.523 259.485L444.18 260.655V263.228H446.545L449.857 264.047L453.643 266.503L452.933 268.257H455.654L458.138 269.895L460.504 268.257H463.461L466.891 270.831L469.612 269.895L464.407 265.099L460.504 263.228L453.643 260.655L448.201 261.707L445.836 258.666Z" fill="#0275d8"/>
<path d="M502.265 313.869L495.168 319.951L495.759 321.939H499.072L503.448 317.612L505.459 313.167L503.448 312.231L502.265 313.869Z" fill="#0275d8"/>
<path d="M506.642 304.752L504.749 302.997V304.167L505.695 305.57L506.642 308.027L505.695 310.249L506.642 311.536L507.706 313.875L510.782 309.547V308.027L507.706 306.74L506.642 304.752Z" fill="#0275d8"/>
<path d="M457.431 184.041L459.205 180.181L461.216 190.474L460.033 191.527L459.205 195.737V197.375L461.216 198.779L464.055 199.714L461.216 201.703H457.431L456.721 202.872L457.431 204.627L458.259 208.838L454.71 212.815L447.849 214.803L445.838 216.09L442.999 213.984L445.838 212.113H448.795L450.451 210.241H451.871L454.71 206.966L456.129 203.925L455.301 201.703L457.431 199.714L458.259 196.79V192.696L457.431 184.041Z" fill="#0275d8"/>
<path d="M133.906 253.868L132.249 248.254H123.969L117.581 242.406L109.774 240.3L103.386 238.429L93.6866 235.154L91.5574 229.773L78.3087 218.311L85.1696 229.773L71.4479 215.036L65.7699 205.912L64.1138 192.344L61.0382 186.73L56.07 179.478L47.0799 171.524L39.9824 168.951H25.5509L24.368 165.208L21.2924 168.951V171.524L8.0438 178.308L16.3242 171.524L8.0438 170.354V167.079L3.07557 165.208L4.0219 160.763L9.93646 157.956V155.383H4.0219L0 151.874L4.0219 149.534H8.0438L1.65608 142.75L8.0438 138.072L16.3242 133.861L22.4753 137.136L36.4337 138.072L48.9725 140.177H62.4577L74.2868 142.75L77.3624 144.622L85.1696 146.493L88.2452 148.131L91.5574 144.622H101.967L103.386 139.007L106.699 146.493L109.774 142.75L104.806 135.966L108.355 131.521L112.613 135.966L113.796 141.581L117.581 142.75L118.764 146.493L122.313 142.75L123.969 138.072L116.398 135.966L114.979 131.521L117.581 124.503H123.969H126.572L129.884 130.352L135.088 128.714L138.164 133.861L146.681 137.136V142.75L152.359 144.622L157.564 149.534L153.778 153.979L152.359 150.704L147.864 151.874L152.359 159.126L147.864 157.956L149.283 162.167L140.53 155.383H132.249L138.164 151.874L140.53 144.622L132.249 139.007H126.572L125.152 149.534L118.764 155.383L112.613 159.126L108.355 168.951L112.613 173.863L116.398 174.799L126.572 178.308L128.701 185.56L132.249 186.73V179.478L135.088 174.799L132.249 170.354L133.906 162.167H139.347L145.262 165.208L146.681 171.524L150.703 170.354L152.359 167.079L157.564 175.969L162.059 179.478L165.371 183.455V188.835L168.21 190.005L169.393 192.344L166.554 193.514L162.059 191.174L164.188 185.56H162.059L157.564 188.835H149.283L145.262 193.514L152.359 191.174V193.514L156.144 196.789L152.359 199.362V196.789L143.605 200.298V203.573L139.347 204.742L135.088 211.76L128.701 218.311L129.884 226.966L123.969 220.65L114.979 221.82L104.806 224.159L103.386 231.645L106.699 235.154H112.613L114.979 231.645H120.184L116.398 238.429L125.152 240.3L123.969 244.043L129.884 247.084L135.088 248.254L142.186 244.043L149.283 245.915H156.144L164.188 251.529L171.995 253.868L174.125 258.781L182.405 262.758H191.868L197.31 268.84L191.868 274.454L190.212 281.239L185.717 287.087L178.383 288.724L175.307 294.573L168.21 302.526H162.059L164.188 307.439L152.359 313.287L153.778 316.328L147.864 321.241L149.283 322.879L146.681 333.64L150.703 338.786H145.262L139.347 333.64L138.164 322.879L139.347 313.287L142.186 300.655L143.605 281.239L135.088 274.454L128.701 264.863L129.884 262.758L128.701 260.652L133.906 253.868Z" fill="#0275d8"/>
<path d="M277.276 139.24L290.998 135.731L293.955 137.018L291.944 138.187V139.24H295.966L298.687 141.93H302.354L308.387 146.609V149.182L304.72 150.469L297.504 149.182L299.278 152.106L300.343 155.498L303.063 156.668L302.354 154.095L304.72 155.498H307.204L308.387 151.638L313.118 150.469V143.334L316.785 144.971L315.839 147.895H317.968L327.55 141.93V144.971L333.937 143.334H338.432V139.24L348.487 143.334L349.907 141.93L347.304 139.708L347.896 133.743L351.326 127.777H355.348V135.731L356.294 141.93V146.024L352.273 149.182H355.348L358.424 147.194V143.334H360.553L363.983 146.609L362.446 141.93L358.424 140.878L357.004 133.041L359.37 128.362L360.553 133.743L363.037 134.678L361.854 132.339L363.037 129.649L366.349 130.467L369.78 133.041V137.018L371.791 139.708V133.041L368.124 128.362L368.952 125.438L377.469 123.099L375.339 120.291L377.469 117.601L387.287 112.806L391.309 113.975L394.976 111.051H397.223L401.363 105.671H404.557V108.01L407.278 109.647H413.192L416.978 112.806L416.031 117.601L408.106 123.917L406.213 124.385L405.267 126.14L408.816 126.725L412.364 123.099L415.44 123.917L416.031 125.438L417.569 124.385H423.72L424.903 126.725H429.872L431.409 123.917L433.657 124.853H437.915L439.808 126.725L438.743 132.339L442.647 135.38L445.604 132.339L452.347 133.041H454.831V129.649L457.079 127.777L469.381 130.351L470.091 133.041L473.403 134.795L483.457 135.38L485.587 139.825H487.716L497.297 139.357L499.072 141.813H500.491L499.9 138.421H507.116L519.063 144.386L523.085 149.533V148.012H525.924L529 150.703V152.574H526.634L525.214 156.434L520.009 153.51L516.934 152.574V150.703L515.396 151.521L513.977 154.797L509.245 155.381L513.03 158.189L511.966 160.645L507.116 162.867L501.793 166.727H495.641L491.738 168.131L488.662 170.704L489.254 172.692V175.032L487.716 176.318V179.009L480.737 185.793L478.844 180.412L479.672 172.692L490.555 165.791L491.738 163.452L490.555 161.581L489.254 163.452L485.587 165.09L484.759 163.452H481.683L476.478 168.131L477.07 170.119H472.575L470.682 168.131L468.316 169.183H458.38L448.562 179.009L451.282 180.997H456.014L457.079 185.793L456.014 190.705L447.379 200.647L442.647 201.232L437.915 206.964L438.743 209.654V213.046L435.55 214.099L434.958 209.069L432.711 208.601V205.794L428.334 206.964V204.741L425.376 205.209L423.72 207.665L425.376 209.069L428.334 210.473L425.968 214.099L428.334 217.958V222.637L424.903 226.614L420.053 230.357H416.978L413.902 231.527H410.472H408.106L406.213 233.632V235.62L409.762 240.182V243.457L406.213 246.966H403.611L402.546 246.03L397.578 242.872L395.567 244.861V246.966L399.234 250.475L401.955 253.399V256.089L398.17 254.92L396.277 251.06L393.674 248.721V243.457L392.137 237.843L390.126 238.545H387.405V235.62L384.684 232.696L383.856 230.357L381.609 229.538V231.527H378.297L367.887 240.182L366.822 243.457L363.037 248.721L356.886 238.545L355.348 231.527L353.692 232.696H351.799L351.326 230.357L346.121 226.614H335.948L332.163 224.392H326.485L321.872 220.181H319.269L319.861 222.637L324.119 228.251H328.733L331.217 226.614L335.948 231.527L332.873 235.62L313.118 242.872L310.989 238.545L306.494 232.696L302.354 226.614L299.278 222.637L297.504 223.807L306.494 238.545L310.989 242.17L313.118 244.861H324.119L319.269 253.399L315.247 256.089L305.902 264.979L307.795 270.476V275.506L301.052 283.343L299.87 288.372L296.794 290.712V293.87L285.911 302.408L275.856 302.993L265.683 280.302L268.049 273.751L266.748 264.979L262.016 259.482L261.425 253.399H257.285L254.091 251.06H251.489L246.993 252.113L236.229 253.399L226.884 246.03L223.099 242.17L223.69 239.246L223.099 232.696L229.013 223.807L233.627 218.426L237.412 214.683L240.606 212.695L245.101 213.514L252.317 210.473L261.425 209.888L264.382 211.408L263.791 214.683L266.748 216.555L275.856 220.181L279.05 217.14H281.771L285.911 219.011H291.944H299.278L301.052 214.683V211.408L298.687 212.11L294.783 211.408H290.406L288.277 209.069L287.686 206.964L289.105 204.741H286.503L282.954 205.209L281.771 206.964L282.954 208.601L281.771 210.473L280.825 209.069L278.459 207.665L277.276 204.741L275.856 202.519L268.759 197.255L266.748 196.671V198.542L274.437 205.209L273.254 205.794V206.964L272.308 207.665L270.652 205.794L262.844 199.244H259.532L257.876 200.413H254.091L248.768 205.794L248.058 209.069L240.606 211.408L238.003 209.888H235.401L234.573 207.665V200.998L237.412 199.829H245.811L246.993 196.671L242.853 191.29H245.101L245.811 189.419L249.714 188.6L255.984 183.453L259.532 181.348H261.425L260.834 179.009V175.617L262.844 172.926L264.382 175.617L262.844 177.839V179.009L264.974 180.178L268.049 181.348L274.437 179.009H280.115V172.926L282.954 174.798V169.183H292.654L289.105 164.973L282.954 166.844L280.115 162.399L284.847 153.042L281.771 151.638L278.459 157.253L274.437 160.294L273.254 164.973L275.856 169.183L273.254 170.587V174.798L268.049 177.839L263.791 169.183L261.425 171.523H257.876L255.984 162.399L263.791 157.253L270.652 146.024L277.276 139.24Z" fill="#0275d8"/>
<path d="M181.695 64.6162L202.751 59.7036L209.138 60.8733V63.2126H200.621L195.653 66.9555L202.751 64.6162H211.031V66.9555L216.236 69.7627L213.633 72.336H204.643L200.621 77.2486L211.031 74.9093L209.138 78.8861L216.236 73.7396L213.633 83.3308L220.021 78.8861L225.463 76.0789L230.194 77.2486L228.538 81.2254L221.441 85.2023L223.333 88.0095L220.021 96.899L217.892 104.151L221.441 106.958V111.403L216.236 109.063L217.892 113.04L220.021 118.655L217.892 124.971H213.633L209.138 126.608L212.451 129.416L216.236 132.925V136.901L207.482 131.989V136.901L213.633 138.305L200.621 145.557L197.073 150.236L186.9 153.979L188.083 157.722L183.824 161.464V168.015L176.963 165.441L168.683 147.428L171.995 139.943L169.866 136.901H171.995L169.866 132.925H166.08L167.263 126.608L160.876 114.21L155.198 111.403L147.39 113.04L142.659 109.063L146.208 106.958L150.229 105.321L142.659 104.151L140.293 100.876L150.229 95.7293L152.595 90.5828L148.573 88.0095L156.381 81.2254L157.563 76.0789L167.263 69.7627L169.866 73.7396H171.995L173.178 69.7627L179.802 73.7396L183.824 72.336L181.695 64.6162Z" fill="#0275d8"/>
<path d="M249.832 187.078L241.552 188.13L242.616 186.259L241.552 185.089V182.984L244.036 182.282L243.326 180.06L241.552 179.124L238.949 172.691L243.326 170.585L242.616 172.691L244.864 173.977L244.036 176.2L248.294 180.06L247.584 182.282L249.832 184.037V187.078Z" fill="#0275d8"/>
<path d="M303.82 266.29C318.512 263.012 355.98 262.774 368.627 289.202" stroke="#93B1D9" stroke-width="2" stroke-dasharray="4 4"/>
<path d="M269.272 107.426C254.589 110.715 223.441 153.454 255.428 183.432" stroke="#93B1D9" stroke-width="2" stroke-dasharray="4 4"/>
<ellipse cx="373.317" cy="341.544" rx="56.9142" ry="56.2768" fill="#0275d8"/>
<ellipse cx="302.593" cy="79.245" rx="48.2858" ry="47.745" fill="#0275d8"/>
<path d="M365.025 108.647C364.282 108.497 361.179 105.5 358.872 106.477L353.304 106.684L354.135 103.976L359.278 104.52C361.108 104.425 361.921 104.589 362.706 105.215C363.49 105.84 366.619 108.97 365.025 108.647Z" fill="#819989"/>
<path d="M281.816 73.3575C283.737 74.2296 283.14 75.6558 283.126 76.1393L286.162 77.5823C287.72 76.1461 288.18 73.4845 288.347 72.6308C287.509 71.282 282.188 68.9436 279.589 67.8174C278.269 68.2412 279.209 70.5654 279.376 71.0356C280.448 72.7087 280.832 72.9103 281.816 73.3575Z" fill="#829CBF"/>
<path d="M255.078 80.1057C256.905 79.0546 257.741 80.358 258.133 80.6473L261.073 79.0232C260.782 76.9364 258.845 75.0331 258.235 74.4067C256.638 74.3076 251.642 77.2649 249.214 78.7192C248.805 80.0301 251.268 80.6077 251.753 80.7434C253.754 80.8393 254.142 80.6446 255.078 80.1057Z" fill="#7992B3"/>
<path d="M275.902 95.9386C278.273 98.3532 289.691 98.8371 294.176 97.9305C306.022 95.5357 311.515 97.0458 311.795 103.077C312.076 109.107 295.667 108.539 290.232 108.786C283.512 109.092 274.855 108.752 271.179 104.925C267.503 101.098 262.862 90.1585 256.561 79.6151L260.681 76.3706C265.524 81.4027 271.179 88.9604 275.902 95.9386Z" fill="#317546"/>
<path d="M288.374 75.6643C288.303 76.558 284.371 92.5776 280.122 97.3581C291.162 97.3581 295.74 89.9143 303.943 91.0856C309.103 91.8223 311.575 98.3502 311.767 102.468C312.154 110.79 295.947 109.053 289.651 109.053C276.107 109.053 273.629 105.556 271.528 102.468C268.627 98.2038 279.087 83.6417 282.645 74.6496L288.374 75.6643Z" fill="#3C8F55"/>
<path d="M335.909 102.115C338.608 107.254 337.437 106.142 354.116 107.928C355.289 106.929 356.155 103.88 354.885 103.656C348.274 101.918 343.483 100.935 342.629 100.445C341.654 99.8862 338.784 93.4845 336.217 87.6291C333.556 85.3342 331.247 85.9001 330.904 88.7363C330.443 92.5524 334.041 98.5592 335.909 102.115Z" fill="#94B2D9"/>
<path d="M335.491 88.2623C334.572 90.5873 334.807 91.4659 335.039 91.6146C332.461 92.4666 328.277 89.7292 326.508 88.254C326.942 88.0225 329.391 84.9595 330.561 83.4569C331.358 82.4649 332.001 81.1752 332.222 80.6544C330.736 78.7633 330.051 75.918 329.895 74.7318C329.729 73.1197 330.936 71.0242 331.559 70.1779C332.909 68.5736 336.304 67.8053 337.832 67.6217C340.015 67.337 342.605 69.3829 343.627 70.4414C344.996 71.6059 345.648 73.8011 345.803 74.7531C345.991 75.1111 345.434 76.4333 345.132 77.0497C344.877 77.6223 344.895 78.1786 344.936 78.3852C344.917 78.6032 345.35 79.577 345.569 80.0366C346.092 80.4099 345.781 80.8913 345.561 81.0853C345.345 81.4611 344.683 81.6761 344.378 81.7366C344.288 84.5379 342.7 85.5265 341.917 85.6706C341.064 86.335 338.766 85.4219 337.724 84.8823C336.68 85.9311 335.8 87.5726 335.491 88.2623Z" fill="#96B29F"/>
<path d="M331.103 82.3902C322.004 86.7123 303.214 91.0899 303.214 91.0899C299.589 100.333 303.864 108.792 303.864 108.792C305.867 108.792 310.659 108.792 315.024 108.343C321.856 107.641 328.775 104.52 328.775 104.52C332.834 102.159 335.138 97.4779 335.639 94.9006C336.019 92.946 336.534 89.7062 336.176 87.3471C334.087 87.3471 333.013 85.4588 331.103 82.3902Z" fill="#C1D6F6"/>
<path d="M361.113 107.037C360.358 107.106 356.509 105.129 354.588 106.727L349.321 108.523L349.321 105.693L354.402 104.738C356.126 104.121 356.952 104.045 357.886 104.418C358.821 104.791 362.734 106.889 361.113 107.037Z" fill="#96B29F"/>
<path d="M330.618 103.154C333.317 108.293 332.146 107.181 348.825 108.967C349.998 107.968 350.864 104.919 349.594 104.696C342.982 102.957 338.192 101.975 337.338 101.484C336.363 100.925 334.763 95.6307 332.195 89.7754C329.535 87.4804 325.956 86.9392 325.613 89.7754C325.152 93.5915 328.75 99.5983 330.618 103.154Z" fill="#A4C5F1"/>
<rect width="31.666" height="1.73311" rx="0.0800006" transform="matrix(-0.999949 -0.0101093 -0.0103395 0.999947 381.953 107.839)" fill="#7A7474"/>
<path d="M365.124 97.4286L363.056 106.838C362.763 108.169 363.777 109.429 365.139 109.429H379.823C380.844 109.429 381.722 108.705 381.917 107.702L383.742 98.2927C383.997 96.9761 382.988 95.7532 381.647 95.7532H367.207C366.206 95.7532 365.339 96.4502 365.124 97.4286Z" fill="#7A7474"/>
<path d="M83.5137 269.077C99.6237 259.568 137.492 249.061 160.087 283.096" stroke="#93B1D9" stroke-width="2" stroke-dasharray="4 4"/>
<path d="M165.133 280.074C165.652 280.074 166.095 279.893 166.462 279.53C166.828 279.168 167.011 278.73 167.011 278.216C167.011 277.702 166.828 277.264 166.462 276.902C166.095 276.54 165.652 276.359 165.133 276.359C164.613 276.359 164.17 276.54 163.804 276.902C163.437 277.264 163.254 277.702 163.254 278.216C163.254 278.73 163.437 279.168 163.804 279.53C164.17 279.893 164.613 280.074 165.133 280.074ZM165.133 272.997C166.597 272.997 167.843 273.505 168.871 274.521C169.898 275.537 170.412 276.769 170.412 278.217C170.412 278.941 170.229 279.77 169.863 280.705C169.496 281.639 169.053 282.515 168.534 283.333C168.014 284.15 167.5 284.915 166.992 285.627C166.484 286.34 166.053 286.906 165.699 287.327L165.132 287.922C164.99 287.759 164.801 287.543 164.565 287.274C164.329 287.006 163.903 286.468 163.289 285.663C162.675 284.857 162.137 284.074 161.676 283.315C161.216 282.555 160.796 281.697 160.419 280.74C160.041 279.782 159.852 278.942 159.852 278.217C159.852 276.769 160.365 275.537 161.393 274.521C162.421 273.505 163.667 272.997 165.131 272.997H165.133Z" fill="#229C47"/>
<g clip-path="url(#clip0)">
<path d="M302.347 258.815C302.867 258.815 303.31 258.633 303.676 258.271C304.043 257.909 304.226 257.471 304.226 256.957C304.226 256.443 304.043 256.005 303.676 255.643C303.31 255.281 302.867 255.1 302.347 255.1C301.828 255.1 301.385 255.281 301.018 255.643C300.652 256.005 300.469 256.443 300.469 256.957C300.469 257.471 300.652 257.909 301.018 258.271C301.385 258.633 301.828 258.815 302.347 258.815ZM302.347 251.737C303.812 251.737 305.058 252.245 306.086 253.262C307.113 254.278 307.627 255.51 307.627 256.958C307.627 257.682 307.444 258.511 307.077 259.445C306.711 260.38 306.268 261.256 305.748 262.074C305.229 262.891 304.715 263.656 304.207 264.368C303.699 265.08 303.268 265.647 302.914 266.067L302.347 266.663C302.205 266.5 302.016 266.284 301.78 266.015C301.543 265.746 301.118 265.209 300.504 264.403C299.889 263.598 299.352 262.815 298.891 262.056C298.431 261.296 298.011 260.438 297.633 259.481C297.255 258.523 297.066 257.682 297.066 256.958C297.066 255.51 297.58 254.278 298.608 253.262C299.635 252.245 300.881 251.737 302.346 251.737H302.347Z" fill="#229C47"/>
</g>
<g clip-path="url(#clip1)">
<path d="M257.461 181.489C257.98 181.489 258.423 181.307 258.79 180.945C259.156 180.583 259.339 180.145 259.339 179.631C259.339 179.117 259.156 178.679 258.79 178.317C258.423 177.955 257.98 177.774 257.461 177.774C256.941 177.774 256.498 177.955 256.132 178.317C255.765 178.679 255.582 179.117 255.582 179.631C255.582 180.145 255.765 180.583 256.132 180.945C256.498 181.307 256.941 181.489 257.461 181.489ZM257.461 174.411C258.925 174.411 260.171 174.919 261.199 175.936C262.226 176.952 262.74 178.184 262.74 179.632C262.74 180.356 262.557 181.185 262.191 182.119C261.824 183.054 261.381 183.93 260.862 184.748C260.342 185.565 259.828 186.33 259.32 187.042C258.812 187.754 258.381 188.321 258.027 188.741L257.46 189.337C257.318 189.174 257.129 188.958 256.893 188.689C256.657 188.42 256.231 187.883 255.617 187.077C255.003 186.272 254.465 185.489 254.005 184.73C253.544 183.97 253.125 183.112 252.747 182.155C252.369 181.197 252.18 180.356 252.18 179.632C252.18 178.184 252.693 176.952 253.721 175.936C254.749 174.919 255.995 174.411 257.459 174.411H257.461Z" fill="#229C47"/>
</g>
<path d="M329.608 74.528C329.403 77.3758 330.973 79.8278 332.112 81.0934L336.381 78.7769C336.221 78.9593 337.129 78.0723 337.024 78.0689C336.388 78.4127 335.726 77.286 335.323 76.6781C334.463 75.3788 335.153 74.6063 335.603 74.449C336.902 73.995 337.447 75.6033 337.693 76.3745C338.119 77.1796 338.933 76.6897 338.999 75.5562L339.13 73.2892L339.45 75.0434C342.031 75.3094 344.876 75.1926 345.843 75.0434C346.209 73.7424 345.541 72.3517 345.306 71.9761C344.329 70.4174 343.217 69.3246 342.651 68.8787C341.282 67.6383 339.18 67.1706 338.444 67.0184C336.011 66.2884 333.206 68.1467 332.112 69.1001C330.428 70.3727 329.741 73.249 329.608 74.528Z" fill="#D28153"/>
<ellipse rx="2.23451" ry="2.21257" transform="matrix(0.969169 0.246399 -0.25166 0.967816 330.615 67.491)" fill="#D28153"/>
<ellipse rx="2.39228" ry="2.71927" transform="matrix(0.969168 0.2464 -0.251659 0.967816 332.606 68.0755)" fill="#D28153"/>
<ellipse rx="1.91895" ry="1.90011" transform="matrix(0.969169 0.246398 -0.25166 0.967816 330.585 64.7578)" fill="#D28153"/>
<ellipse rx="1.91895" ry="1.90011" transform="matrix(0.969169 0.246398 -0.25166 0.967816 333.67 64.625)" fill="#D28153"/>
<ellipse rx="1.91893" ry="1.90011" transform="matrix(0.969168 0.246401 -0.251657 0.967816 335.52 66.4026)" fill="#D28153"/>
<path d="M356.293 331.43L361.869 347.951L399.351 341.136C407.54 334.95 422.3 334.068 427.75 328.5C427.75 328.5 423.375 297.5 385.75 286.875L356.293 331.43Z" fill="url(#paint0_linear)"/>
<path d="M342.947 384.883L348.15 377.997L352.857 380.871L345.233 387.719L342.947 384.883Z" fill="#1C823B"/>
<path d="M343.258 389.356L336.355 379.49C338.421 376.935 342.455 380.491 344.214 382.587L346.067 386.698C345.511 388.196 343.987 389.077 343.258 389.356Z" fill="#7A7474"/>
<path fill-rule="evenodd" clip-rule="evenodd" d="M394.928 362.142L403.979 389.411H401.603L392.617 362.457C392.617 362.457 393.245 362.389 393.854 362.315C394.463 362.241 394.928 362.142 394.928 362.142Z" fill="#89592D"/>
<path fill-rule="evenodd" clip-rule="evenodd" d="M379.121 361.705L370.035 389.412H372.391L381.397 361.926C381.397 361.926 380.768 361.865 380.221 361.812C379.673 361.758 379.121 361.705 379.121 361.705Z" fill="#89592D"/>
<rect x="370.938" y="360.87" width="32.9693" height="10.2714" rx="5.13568" fill="#E7A33C"/>
<path d="M366.13 354.2C374.298 349.199 389.542 347.575 394.994 348.992C400.085 349.883 401.567 350.804 402.113 352.832C399.968 360.171 396.242 359.945 390.929 361.751C386.745 361.962 381.679 362.041 370.606 362.146C369.55 366.536 363.777 372.984 361.802 374.479C355.679 379.688 354.675 380.528 354.675 380.528C354.675 380.528 352.283 383.143 350.375 384.862L344.686 381.507C353.072 370.958 360.156 357.895 366.13 354.2Z" fill="#93B1D9"/>
<path d="M380.411 383.904L373.645 378.446L377.285 373.565L383.724 381.542L380.411 383.904Z" fill="#229C47"/>
<path d="M389.139 339.955L388.48 345.761C383.962 346.222 381.409 346.211 376.447 347.197C376.068 347.464 375.241 348.026 374.876 348.273C374.367 348.714 373.111 348.849 372.546 348.862C372.639 348.828 372.579 348.815 371.591 349.031C370.604 349.248 370.532 348.986 370.619 348.827C370.718 348.593 371.084 348.103 371.754 348.017C372.425 347.93 372.394 347.608 372.295 347.458C372.273 347.398 372.116 347.266 371.66 347.229C371.203 347.191 370.488 347.251 370.188 347.285C369.319 347.299 369.298 346.727 369.396 346.44C369.511 346.071 369.876 345.182 370.411 344.574C370.946 343.965 372.21 343.764 372.776 343.74C373.481 343.543 376.688 343.624 378.203 343.69L389.139 339.955Z" fill="#819989"/>
<path d="M359.885 350.575C364.293 348.491 372.079 347.187 384.048 347.187C391.168 347.187 392.717 347.601 397.819 348.716C400.479 349.297 404.241 351.877 404.241 351.877C405.427 355.321 402.197 360.813 396.676 361.389C372.552 363.902 375.799 360.377 367.45 358.365C370.904 360.907 375.812 371.131 378.078 373.84L373.311 379.677C367.996 374.049 364.266 370.819 360.89 366.525C355.904 360.185 356.621 352.117 359.885 350.575Z" fill="#A4C5F1"/>
<path d="M382.306 303.611C384.786 300.857 386.807 301.195 387.507 301.708C391.657 301.194 390.012 313.634 389.347 315.672C388.815 317.303 387.371 317.827 386.716 317.885C386.18 317.978 385.198 318.058 385.556 317.636C385.915 317.214 385.665 316.492 385.495 316.184C385.306 315.783 384.77 314.962 384.143 314.884C383.516 314.805 382.905 314.439 382.678 314.266C382.457 314.069 381.9 313.563 381.445 313.114C380.99 312.665 380.603 311.456 380.467 310.908C380.205 310.286 380.74 309.398 381.041 309.031C381.184 308.858 381.492 308.383 381.579 307.873C381.665 307.363 381.49 306.58 381.392 306.253C381.352 306.047 381.296 305.502 381.393 304.971C381.489 304.44 382.042 303.843 382.306 303.611Z" fill="#89592D"/>
<path d="M389.557 316.058C390.988 315.748 392.531 314.603 393.439 313.939C394.033 313.634 395.358 310.686 395.946 309.249C396.334 307.848 395.254 305.422 394.666 304.385C394.005 303.309 392.218 302.713 391.408 302.549C390.091 302.485 388.18 302.967 387.389 303.216C385.921 303.636 385.093 304.438 384.862 304.786C384.525 304.941 384.26 305.753 384.17 306.14L383.432 306.974C383.37 307.323 383.402 308.159 383.767 308.875C384.315 309.833 384.103 309.901 384.097 310.305C384.092 310.71 383.963 310.891 383.991 311.352C384.011 311.685 384.26 312.51 384.683 313.341C385.227 314.412 385.672 315.246 385.893 315.722C386.244 316.413 387.243 316.619 387.671 316.556C388.602 316.42 389.098 316.158 389.557 316.058Z" fill="#96B29F"/>
<path d="M385.086 305.781C384.586 306.835 383.009 307.444 382.57 307.484C382.349 307.525 382.554 307.151 382.414 307.029C382.286 306.661 382.2 305.676 382.882 304.685C383.563 303.694 385.051 303.749 385.617 303.891C385.7 304.13 385.586 304.727 385.086 305.781Z" fill="#89592D"/>
<path d="M395.353 317.253L396.587 317.477L393.57 323.036L388.219 320.299L389.015 319.873C389.358 319.66 389.444 318.676 389.392 318.447L388.201 315.26L394.503 313.094L393.858 314.613L395.353 317.253Z" fill="#96B29F"/>
<path d="M387.586 300.534C385.488 301.518 385.006 303.697 385.157 304.531L385.703 306.297C385.896 306.638 386.326 307.485 387.043 308.135C387.76 308.785 388.919 308.808 389.409 308.738C390.095 308.797 390.56 309.013 390.706 309.114C390.911 309.2 391.289 309.566 391.155 310.342C391.021 311.117 391.157 311.739 391.242 311.953C391.298 312.158 391.592 312.644 392.322 312.949C393.052 313.254 393.39 313.544 393.467 313.651C394 314.43 393.793 315.561 393.622 316.029C394.217 315.626 394.749 315.798 394.94 315.934C395.047 315.979 395.499 316.108 396.455 316.269C397.41 316.43 398.124 315.69 398.362 315.301C398.41 315.205 398.623 314.865 399.084 314.263C399.544 313.662 400.309 313.738 400.634 313.851C400.705 313.922 400.972 314.036 401.474 313.93C401.976 313.824 402.433 313.186 402.598 312.881C403.092 312.159 403.026 311.391 402.931 311.097C402.723 310.581 402.147 309.536 401.512 309.49C400.877 309.444 400.443 309.069 400.306 308.888C400.119 308.641 399.759 307.952 399.814 307.174C399.87 306.396 399.664 305.882 399.554 305.723C399.43 305.594 399.088 305.337 398.716 305.334C398.344 305.331 397.922 305.102 397.758 304.988C397.59 304.914 397.197 304.583 396.973 303.845C396.75 303.107 396.25 302.415 396.028 302.161C395.74 301.9 394.973 301.337 394.22 301.18C393.467 301.023 392.358 301.075 391.898 301.121C391.66 301.138 391.105 301.075 390.795 300.694C390.485 300.312 389.98 300.103 389.766 300.046C388.762 299.965 387.895 300.338 387.586 300.534Z" fill="#89592D"/>
<path d="M392.966 327.23L398.134 317.779C397.259 317.779 395.662 316.997 395.21 316.997C392.351 319.55 390.475 320.003 389.322 319.22L387.773 320.99V329.403L392.966 327.23Z" fill="#D0E1C3"/>
<path d="M398.923 317.999L396.524 317.438C395.762 319.298 392.12 320.822 391.189 321.613C390.003 323.645 390.157 324.263 389.665 325.847L389.363 319.262C388.38 319.539 387.547 320.794 386.842 321.754C386.429 322.315 385.72 324.129 385.572 325.525C385.423 326.92 385.572 329.934 385.572 331.605C385.572 334.541 385.61 336.248 384.64 339.904C384.167 341.686 383.823 344.585 384.132 345.38C384.841 347.204 383.726 347.089 383.567 347.807L402.114 358.929C403.732 358.148 405.359 353.836 405.359 351.59C405.359 349.884 404.568 346.678 405.669 344.702C406.738 342.785 405.663 337.847 405.669 337.194C405.675 336.541 404.964 334.45 404.964 331.097C404.964 330.024 404.298 326.342 404.173 325.525C404.078 324.932 403.609 322.459 402.48 320.879C401.471 319.466 400.984 318.912 398.923 317.999Z" fill="#D0E1C3"/>
<rect width="19.2087" height="2.10336" rx="1.05168" transform="matrix(-0.995256 0.0972903 0.100193 0.994968 379.854 345.472)" fill="#7A7474"/>
<path fill-rule="evenodd" clip-rule="evenodd" d="M361.943 349.047C362.488 348.862 362.782 348.27 362.598 347.724L357.129 331.463C356.946 330.917 356.355 330.625 355.809 330.809C355.264 330.994 354.97 331.586 355.154 332.132L360.623 348.393C360.806 348.939 361.397 349.232 361.943 349.047Z" fill="#7A7474"/>
<path d="M391.005 347.723L388.296 342.545C383.916 343.745 381.539 344.677 376.556 345.547C376.106 345.435 375.132 345.209 374.701 345.11C374.068 344.883 372.848 345.21 372.317 345.401C372.416 345.399 372.364 345.434 371.365 345.588C370.365 345.742 370.393 346.013 370.532 346.129C370.708 346.311 371.226 346.636 371.883 346.475C372.54 346.314 372.627 346.625 372.588 346.801C372.59 346.866 372.491 347.045 372.079 347.244C371.667 347.444 370.978 347.646 370.686 347.723C369.87 348.024 370.057 348.564 370.252 348.797C370.493 349.099 371.153 349.797 371.872 350.171C372.59 350.546 373.842 350.277 374.379 350.095C375.108 350.025 378.069 348.792 379.458 348.184L391.005 347.723Z" fill="#96B29F"/>
<path d="M384.938 382.018L375.09 390.228C372.194 388.266 375.604 383.666 377.67 381.612L381.865 379.275C383.505 379.732 384.577 381.269 384.938 382.018Z" fill="#948D8D"/>
<circle r="46.48" transform="matrix(-1 0 0 1 57.437 308.048)" fill="#0275d8"/>
<path d="M93.8462 328.834L86.6181 327.277L85.76 332.403L94.2136 332.403L93.8462 328.834Z" fill="#CF9236"/>
<path d="M91.9951 332.433L93.3558 327.941L97.7282 324.002C98.3239 323.408 99.0979 323.416 99.4105 323.495L101.417 323.829L95.829 334.45C93.9193 333.776 92.4773 332.825 91.9951 332.433Z" fill="#586F8C"/>
<path d="M61.2195 322.669C53.2981 324.139 40.8059 331.368 38.1946 335.323C35.5127 338.745 36.9095 342.933 37.7094 344.508C41.6304 350.293 49.6265 347.002 52.7304 343.609C55.4657 341.386 61.0901 333.853 63.3505 330.264C66.4808 332.414 73.261 333.09 75.3377 332.913C82.0978 332.725 83.198 332.685 83.198 332.685C83.198 332.685 86.1651 332.974 88.3252 332.975L89.9948 327.676C78.8145 325.799 67.0339 321.618 61.2195 322.669Z" fill="#ACBFDB"/>
<path d="M72.4445 347.486L70.9619 339.718L65.338 341.1L69.0647 348.882L72.4445 347.486Z" fill="#E7A33C"/>
<path d="M68.5152 348.777L72.5043 346.124L78.5052 345.863C79.3601 345.782 79.9641 346.291 80.1592 346.556L81.5222 348.122L70.2236 352.855C69.1583 351.084 68.6408 349.399 68.5152 348.777Z" fill="#6883A6"/>
<path d="M45.8915 312.348L42.2154 320.064L38.6488 317.249L43.9228 310.324C44.133 310.031 44.138 309.663 44.1142 309.515C43.9442 309.149 43.117 308.359 43.447 307.527C43.8655 306.471 44.5089 306.309 44.7495 306.552C44.9111 306.701 44.547 307.886 44.7495 308.186C44.952 308.486 45.4387 308.776 45.6568 308.883C46.0605 309.164 46.4695 308.915 46.6235 308.755C46.7081 308.608 47.1993 308.43 47.4343 308.359C47.9738 308.36 48.6487 307.531 48.9187 307.116C48.9013 308.521 48.0865 309.298 47.6813 309.51C47.267 311.011 46.3155 312.028 45.8915 312.348Z" fill="#8CA694"/>
<path d="M25.0521 316.505C22.3441 314.912 21.7745 314.627 19.7124 314.112C18.3023 315.973 17.5926 317.932 17.8956 319.222C18.1987 320.512 19.9997 323.225 21.6803 324.261C23.7287 325.522 30.0623 327.206 33.2803 327.667C34.732 327.875 37.8976 328.094 39.6498 325.569C41.402 323.044 43.814 317.652 44.801 315.271C43.7666 314.981 41.8568 313.223 41.0312 312.38L35.097 319.221C33.9109 318.399 28.4079 318.479 25.0521 316.505Z" fill="#3C8F55"/>
<path d="M16.5449 311.7L17.6731 313.069L22.5197 316.094L25.7991 312.03L24.9597 312.01C24.5849 311.98 24.0987 311.276 24.0454 311.085L23.6869 308.251L16.5449 307.72L17.6731 308.875L16.5449 311.7Z" fill="#96B29F"/>
<path d="M30.9142 319.993C31.9438 322.884 36.8562 325.827 38.0474 327.208C39.9846 328.513 43.4116 331.134 43.9151 334.715C44.6977 340.283 35.7016 346.384 35.0871 348.765C32.4633 347.361 29.3585 345.131 27.7681 343.701C19.759 336.502 17.6641 332.539 15.5927 328.12L14.4649 325.082C13.6781 322.057 14.4396 318.432 14.6183 317.178C15.0087 314.436 16.1969 311.438 17.2279 309.864C18.7628 310.731 19.1993 311.742 24.4886 311.379C27.0183 312.336 27.4549 313.389 28.4645 314.288C29.6287 315.324 31.3111 316.869 31.3111 316.869L30.9142 319.993Z" fill="#47A864"/>
<path d="M22.5822 308.839C20.9317 308.782 18.9889 307.824 17.8477 307.271C17.1271 307.053 15.0623 304.049 14.12 302.574C13.4071 301.098 14.1155 298.189 14.5589 296.92C15.0756 295.593 16.9372 294.571 17.8034 294.226C19.2506 293.889 21.468 294.038 22.3958 294.155C24.1095 294.324 25.1896 295.047 25.5155 295.387C25.9212 295.49 26.3785 296.338 26.5565 296.749L27.5439 297.525C27.6823 297.9 27.8155 298.834 27.556 299.702C27.1411 300.875 27.3904 300.908 27.478 301.355C27.5656 301.802 27.7446 301.977 27.8071 302.495C27.8521 302.868 27.7419 303.833 27.4409 304.841C27.0531 306.138 26.728 307.153 26.5786 307.726C26.3286 308.563 25.2613 308.993 24.7746 309.01C23.7139 309.047 23.1108 308.857 22.5822 308.839Z" fill="#96B29F"/>
<path d="M27.6842 298.192C29.1179 298.367 28.9457 296.715 28.1482 296.399C29.1403 294.101 27.1799 293.48 26.1841 293.218C26.3474 292.711 25.7291 292.009 25.4009 291.729C24.9362 291.333 24.114 290.926 23.0365 290.879C21.9591 290.832 20.7091 291.443 20.5281 291.881C20.254 291.755 20.2111 291.294 18.9021 291.199C17.5931 291.104 16.1679 291.565 15.6781 291.882C14.4436 292.392 13.6963 294.13 13.6867 295.102C12.5001 294.541 11.0575 295.596 10.8629 296.399C10.5379 297.739 11.1037 298.49 11.4215 299.164C11.1669 299.195 10.0431 299.541 9.64306 301.332C9.24303 303.123 11.0269 303.723 11.5582 303.839C11.4215 306.21 13.7463 306.787 14.8926 307.03C14.6768 307.473 15.4472 308.642 16.7131 308.845C17.979 309.048 18.6721 308.664 19.4027 308.322C20.5741 307.773 22.2073 305.415 21.2488 304.73L20.0446 303.988C19.1905 303.422 19.2541 302.595 19.5439 302.029C19.7723 301.583 20.0824 301.354 20.8046 301.332C22.1583 301.289 22.0508 303.511 22.8876 303.485C23.2953 303.36 23.4045 303.468 23.6163 302.95C23.7417 302.643 23.7673 301.556 23.3276 300.839C25.0751 300.784 25.252 300.096 24.8768 299.06C25.4673 299.179 25.5317 299.551 26.7566 299.318C27.7669 299.125 27.8923 298.576 27.6842 298.192Z" fill="#6883A6"/>
<path d="M61.1976 316.674C52.1969 319.3 48.3884 326.875 46.9835 328.691C43.3573 333.378 39.8731 338.847 38.1318 342.88C37.0471 345.392 34.107 348.241 34.107 348.241C36.2352 349.748 40.2726 351.872 44.7533 351.142C55.7599 349.35 59.2814 331.998 60.7344 326.636C60.7767 330.243 64.1244 338.532 64.8637 341.409L71.733 340.597C70.4956 334.203 70.1184 330.07 68.8413 325.656C66.9552 319.138 62.8508 316.568 61.1976 316.674Z" fill="#C1D6F6"/>
<path d="M48.7416 298.463L40.2522 308.896C39.9106 309.316 39.9649 309.931 40.3748 310.285L46.1028 315.224C46.5315 315.593 47.1813 315.534 47.5356 315.092L57.2934 302.938C57.7008 302.43 57.5226 301.675 56.9314 301.403L49.9351 298.186C49.5206 297.995 49.0296 298.109 48.7416 298.463Z" fill="#7A7474"/>
<path d="M48.8445 299.533L41.6337 308.547C41.2961 308.969 41.3549 309.583 41.7664 309.933L45.8281 313.39C46.258 313.756 46.9052 313.694 47.2575 313.253L55.2846 303.207C55.6824 302.709 55.5192 301.971 54.9485 301.688L50.0706 299.262C49.6491 299.053 49.1385 299.165 48.8445 299.533Z" fill="#E3EDFD"/>
<path d="M50.7089 312.379L47.0328 320.095L43.4662 317.28L48.7402 310.355C48.9504 310.062 48.9554 309.694 48.9316 309.546C48.7616 309.18 48.3901 308.271 48.2644 307.557C48.1387 306.844 48.5885 307.152 48.829 307.395C48.9906 307.544 49.3644 307.917 49.5669 308.217C49.7694 308.517 50.2561 308.807 50.4742 308.914C50.8779 309.195 51.2869 308.946 51.4409 308.786C51.5255 308.639 52.0167 308.461 52.2517 308.39C52.7912 308.391 53.4661 307.562 53.7361 307.147C53.7187 308.552 52.9039 309.329 52.4987 309.541C52.0843 311.042 51.1328 312.059 50.7089 312.379Z" fill="#96B29F"/>
<path d="M34.9722 330.498C33.6948 329.968 31.071 327.897 30.0813 326.24C31.0604 325.991 36.3818 327.34 40.1103 328.843C40.4794 329.153 41.3414 329.982 42.1356 330.891C39.5578 331.766 36.2496 331.027 34.9722 330.498Z" fill="#3C8F55"/>
<path d="M31.9071 315.835C29.1991 314.241 26.988 312.09 24.9258 311.574C23.5157 313.436 22.3993 319.174 22.7023 320.464C23.0054 321.754 24.8064 324.468 26.487 325.503C28.5354 326.765 34.869 328.449 38.087 328.91C39.5387 329.118 42.7043 329.337 44.4565 326.812C46.2087 324.287 48.6207 318.895 49.6077 316.514C48.5733 316.224 46.6635 314.466 45.838 313.623L39.9038 320.464C38.7176 319.641 35.2629 317.809 31.9071 315.835Z" fill="#47A864"/>
<defs>
<linearGradient id="paint0_linear" x1="391.503" y1="319.039" x2="351.357" y2="354.257" gradientUnits="userSpaceOnUse">
<stop stop-color="#0275d8"/>
<stop offset="1" stop-color="#D8E5F7"/>
</linearGradient>
<clipPath id="clip0">
<rect width="18.1427" height="17.9395" fill="#0275d8" transform="translate(293.276 250.23)"/>
</clipPath>
<clipPath id="clip1">
<rect width="18.1426" height="17.9395" fill="#0275d8" transform="translate(248.39 172.905)"/>
</clipPath>
</defs>
</svg>
